<svg xmlns="http://www.w3.org/2000/svg" xmlns:xlink="http://www.w3.org/1999/xlink" version="1.1" width="91.04257" height="164.84835" viewBox="0,0,91.04257,164.84835"><g><g data-paper-data="{&quot;isPaintingLayer&quot;:true}" fill-rule="nonzero" stroke-linejoin="miter" stroke-miterlimit="10" stroke-dasharray="" stroke-dashoffset="0" style="mix-blend-mode: normal"><g><path d="M 25.3452 56.8825 L 25.3452 124.1796 L 13.2976 163.0983 " data-paper-data="{&quot;origPos&quot;:null}" fill="none" stroke="#000000" stroke-width="3.5" stroke-linecap="round"/><path d="M 26.1484 122.7428 L 38.196 162.9015 " fill="none" stroke="#000000" stroke-width="3.5" stroke-linecap="round"/><path d="M 1.25 33.992 C 1.25 20.0192 12.5772 8.692 26.55 8.692 C 40.5228 8.692 51.85 20.0192 51.85 33.992 C 51.85 47.9648 40.5228 59.292 26.55 59.292 C 12.5772 59.292 1.25 47.9648 1.25 33.992 Z " data-paper-data="{&quot;origPos&quot;:null}" fill="#d4d4d4" stroke="#000000" stroke-width="2.5" stroke-linecap="butt"/><path d="M238.61126,109.54405c0,-2.66149 2.15756,-4.81905 4.81905,-4.81905c2.66149,0 4.81905,2.15756 4.81905,4.81905c0,2.66149 -2.15756,4.81905 -4.81905,4.81905c-2.66149,0 -4.81905,-2.15756 -4.81905,-4.81905z" data-paper-data="{&quot;origPos&quot;:null}" fill="#000000" stroke="none" stroke-width="0" stroke-linecap="butt" transform="matrix(1,0,0,1,-216.47872,-81.57584)"/><path d="M252.26523,109.54405c0,-2.66148 2.15757,-4.81905 4.81905,-4.81905c2.66148,0 4.81905,2.15757 4.81905,4.81905c0,2.66148 -2.15757,4.81905 -4.81905,4.81905c-2.66148,0 -4.81905,-2.15757 -4.81905,-4.81905z" data-paper-data="{&quot;origPos&quot;:null}" fill="#000000" stroke="none" stroke-width="0" stroke-linecap="butt" transform="matrix(1,0,0,1,-216.47872,-81.57584)"/><path d="M 22.3516 20.9619 L 31.4786 24.6127 " data-paper-data="{&quot;origPos&quot;:null}" fill="none" stroke="#000000" stroke-width="2.5" stroke-linecap="round"/><path d="M 43.5262 20.9968 L 36.5897 24.2825 " data-paper-data="{&quot;origPos&quot;:null}" fill="none" stroke="#000000" stroke-width="2.5" stroke-linecap="round"/><path d="M 50.1278 86.84 C 50.1278 86.84 38.014 88.3322 33.6771 84.7354 C 29.3189 81.121 24.0421 65.2063 24.0421 65.2063 " data-paper-data="{&quot;origPos&quot;:null}" fill="none" stroke="#000000" stroke-width="3.5" stroke-linecap="round"/><path d="M 55.1487 65.9813 C 55.1487 65.9813 44.2265 71.0055 39.3715 71.108 C 34.7664 71.2053 26.7286 66.5816 26.7286 66.5816 " data-paper-data="{&quot;index&quot;:null}" fill="none" stroke="#000000" stroke-width="3.5" stroke-linecap="round"/><g><path d="M267.53568,90.9862c0,3.9224 -10.55811,10.72713 -24.24767,10.72713c-13.68955,0 -24.78713,-6.55473 -24.78713,-10.47713c0,-3.9224 10.94494,-3.72713 24.6345,-3.72713c13.68955,0 24.4003,-0.44527 24.4003,3.47713z" data-paper-data="{&quot;origPos&quot;:null}" fill="#47270e" stroke="none" stroke-width="0" stroke-linecap="butt" transform="matrix(1,0,0,1,-216.47872,-81.57584)"/><path d="M231.44392,95.08468l2.44208,-12.07362c0,0 5.77559,0.59184 9.08149,0.59184c3.90156,0 9.38675,-0.59184 9.38675,-0.59184l2.28946,12.07362c0,0 -7.21248,0.88777 -11.82883,0.88777c-4.43766,0 -11.37094,-0.88777 -11.37094,-0.88777z" data-paper-data="{&quot;origPos&quot;:null}" fill="#201206" stroke="none" stroke-width="0" stroke-linecap="butt" transform="matrix(1,0,0,1,-216.47872,-81.57584)"/><path d="M252.43057,83.35137c0,0.9806 -4.16842,1.77553 -9.31043,1.77553c-5.14201,0 -9.31043,-0.79493 -9.31043,-1.77553c0,-0.9806 4.16842,-1.77553 9.31043,-1.77553c5.14201,0 9.31043,0.79493 9.31043,1.77553z" data-paper-data="{&quot;origPos&quot;:null}" fill="#201206" stroke="none" stroke-width="0" stroke-linecap="butt" transform="matrix(1,0,0,1,-216.47872,-81.57584)"/><path d="M242.18971,87.77765c0,-1.51798 1.48816,-2.74854 3.3239,-2.74854c1.83574,0 3.3239,1.23056 3.3239,2.74854c0,1.51798 -1.48816,2.74854 -3.3239,2.74854c-1.83574,0 -3.3239,-1.23056 -3.3239,-2.74854z" data-paper-data="{&quot;origPos&quot;:null}" fill="#ffffff" stroke="none" stroke-width="0" stroke-linecap="butt" transform="matrix(1,0,0,1,-216.47872,-81.57584)"/><path d="M246.01679,87.1133c0,-0.50868 0.42538,-0.92105 0.95011,-0.92105c0.52473,0 0.95011,0.41237 0.95011,0.92105c0,0.50868 -0.42538,0.92105 -0.95011,0.92105c-0.52473,0 -0.95011,-0.41237 -0.95011,-0.92105z" data-paper-data="{&quot;origPos&quot;:null}" fill="#000000" stroke="none" stroke-width="0" stroke-linecap="butt" transform="matrix(1,0,0,1,-216.47872,-81.57584)"/><path d="M243.68222,87.1133c0,-0.50868 0.42539,-0.92105 0.95012,-0.92105c0.52473,0 0.95011,0.41237 0.95011,0.92105c0,0.50868 -0.42538,0.92105 -0.95011,0.92105c-0.52473,0 -0.95012,-0.41237 -0.95012,-0.92105z" data-paper-data="{&quot;origPos&quot;:null}" fill="#000000" stroke="none" stroke-width="0" stroke-linecap="butt" transform="matrix(1,0,0,1,-216.47872,-81.57584)"/><path d="M243.41076,92.6133v-2.31579c0,0 1.28289,0.52632 2.07385,0.52632c0.88292,0 2.21525,-0.52632 2.21525,-0.52632v2.31579z" data-paper-data="{&quot;origPos&quot;:null}" fill="#ffffff" stroke="none" stroke-width="0" stroke-linecap="butt" transform="matrix(1,0,0,1,-216.47872,-81.57584)"/><path d="M 27.7464 10.4059 L 27.7464 9.0375 " data-paper-data="{&quot;origPos&quot;:null}" fill="none" stroke="#000000" stroke-width="0.5" stroke-linecap="round"/><path d="M 30.5153 10.3006 L 30.5153 8.9322 " data-paper-data="{&quot;origPos&quot;:null}" fill="none" stroke="#000000" stroke-width="0.5" stroke-linecap="round"/><path d="M 29.158 10.3006 L 29.158 9.3006 " data-paper-data="{&quot;origPos&quot;:null}" fill="none" stroke="#000000" stroke-width="0.5" stroke-linecap="round"/></g><g stroke-linecap="butt"><path d="M269.11119,154.20409l0.53191,-15.37212l6.6335,0.14726l-0.53191,15.37212z" fill="#894c00" stroke-width="0" stroke="none" transform="matrix(1,0,0,1,-216.47872,-81.57584)"/><path d="M269.23979,144.53135l0.18257,-8.20608l38.09893,0.20716l-0.18257,8.20608z" data-paper-data="{&quot;origPos&quot;:null}" fill="#8a8a8a" stroke-width="0" stroke="none" transform="matrix(1,0,0,1,-216.47872,-81.57584)"/><path d="M288.67392,148.1931l-1.23967,-4.65598l18.92234,0.06573l-1.42906,4.80711z" data-paper-data="{&quot;origPos&quot;:null}" fill="#894c00" stroke-width="0" stroke="none" transform="matrix(1,0,0,1,-216.47872,-81.57584)"/></g><g stroke-linecap="butt"><path d="M265.45188,172.67412l0.53191,-15.37212l6.6335,0.14726l-0.53191,15.37212z" fill="#894c00" stroke-width="0" stroke="none" transform="matrix(1,0,0,1,-216.47872,-81.57584)"/><path d="M265.58048,163.00138l0.18257,-8.20609l38.09893,0.20716l-0.18257,8.20608z" data-paper-data="{&quot;origPos&quot;:null}" fill="#8a8a8a" stroke-width="0" stroke="none" transform="matrix(1,0,0,1,-216.47872,-81.57584)"/><path d="M285.01461,166.66313l-1.23967,-4.65598l18.92234,0.06573l-1.42906,4.80711z" data-paper-data="{&quot;origPos&quot;:null}" fill="#894c00" stroke-width="0" stroke="none" transform="matrix(1,0,0,1,-216.47872,-81.57584)"/></g></g></g></g></svg>