<svg xmlns="http://www.w3.org/2000/svg" xmlns:xlink="http://www.w3.org/1999/xlink" version="1.1" width="62.98344" height="165.24901" viewBox="0,0,62.98344,165.24901"><g><g data-paper-data="{&quot;isPaintingLayer&quot;:true}" fill-rule="nonzero" stroke-linejoin="miter" stroke-miterlimit="10" stroke-dasharray="" stroke-dashoffset="0" style="mix-blend-mode: normal"><g><path d="M 32.5568 121.5635 C 32.5568 121.5635 17.1663 125.007 9.5267 122.8055 C 5.046 121.5142 1.5 112.6136 1.5 112.6136 " data-paper-data="{&quot;origPos&quot;:null,&quot;origRot&quot;:0}" fill="none" stroke="#ff8300" stroke-width="3" stroke-linecap="round"/><path d="M250.76242,92.89932l11.1768,-12.27616l-0.20416,17.13427z" data-paper-data="{&quot;origRot&quot;:0,&quot;origPos&quot;:null,&quot;index&quot;:null}" fill="#ff8300" stroke="none" stroke-width="0" stroke-linecap="butt" transform="matrix(1,0,0,1,-209.10127,-80.62316)"/><path d="M221.96659,98.75743l-0.20417,-17.13427l11.1768,12.27616z" data-paper-data="{&quot;origRot&quot;:0,&quot;origPos&quot;:null}" fill="#ff8300" stroke="none" stroke-width="0" stroke-linecap="butt" transform="matrix(1,0,0,1,-209.10127,-80.62316)"/><path d="M 32.2561 57.2831 L 32.2561 124.5802 L 20.2085 163.499 " data-paper-data="{&quot;origPos&quot;:null}" fill="none" stroke="#000000" stroke-width="3.5" stroke-linecap="round"/><path d="M 45.1069 163.3022 L 33.0593 123.1435 " fill="none" stroke="#000000" stroke-width="3.5" stroke-linecap="round"/><path d="M 8.1609 34.3927 C 8.1609 20.4199 19.4881 9.0927 33.4609 9.0927 C 47.4337 9.0927 58.7609 20.4199 58.7609 34.3927 C 58.7609 48.3655 47.4337 59.6927 33.4609 59.6927 C 19.4881 59.6927 8.1609 48.3655 8.1609 34.3927 Z " data-paper-data="{&quot;origPos&quot;:null}" fill="#ffdcb6" stroke="#000000" stroke-width="2.5" stroke-linecap="butt"/><path d="M238.1447,108.99205c0,-2.66149 2.15756,-4.81905 4.81905,-4.81905c2.66149,0 4.81905,2.15756 4.81905,4.81905c0,2.66149 -2.15756,4.81905 -4.81905,4.81905c-2.66149,0 -4.81905,-2.15756 -4.81905,-4.81905z" data-paper-data="{&quot;origPos&quot;:null}" fill="#000000" stroke="none" stroke-width="0" stroke-linecap="butt" transform="matrix(1,0,0,1,-209.10127,-80.62316)"/><path d="M251.79867,108.99205c0,-2.66148 2.15757,-4.81905 4.81905,-4.81905c2.66148,0 4.81905,2.15757 4.81905,4.81905c0,2.66148 -2.15757,4.81905 -4.81905,4.81905c-2.66148,0 -4.81905,-2.15757 -4.81905,-4.81905z" data-paper-data="{&quot;origPos&quot;:null}" fill="#000000" stroke="none" stroke-width="0" stroke-linecap="butt" transform="matrix(1,0,0,1,-209.10127,-80.62316)"/><path d="M 38.3895 25.0133 L 29.2625 21.3625 " data-paper-data="{&quot;origPos&quot;:null}" fill="none" stroke="#000000" stroke-width="2.5" stroke-linecap="round"/><path d="M 43.5006 24.6832 L 50.4371 21.3975 " data-paper-data="{&quot;origPos&quot;:null}" fill="none" stroke="#000000" stroke-width="2.5" stroke-linecap="round"/><path d="M 15.2545 95.1784 L 30.953 65.607 " data-paper-data="{&quot;origPos&quot;:null}" fill="none" stroke="#000000" stroke-width="3.5" stroke-linecap="round"/><path d="M 51.8418 77.6784 C 51.8418 77.6784 43.4865 91.2532 40.5388 85.7006 C 37.36 79.7126 33.1434 65.607 33.1434 65.607 " data-paper-data="{&quot;origPos&quot;:null,&quot;index&quot;:null}" fill="none" stroke="#000000" stroke-width="3.5" stroke-linecap="round"/><path d="M 9.7113 109.4422 C 9.7113 109.4422 10.0742 105.2766 10.7413 103.1543 C 11.7669 99.892 14.0487 95.6447 14.0487 95.6447 " data-paper-data="{&quot;origPos&quot;:null}" fill="none" stroke="#a2a2a2" stroke-width="1.5" stroke-linecap="round"/><path d="M 12.8225 110.2277 C 12.8225 110.2277 12.662 106.0495 13.0588 103.8604 C 13.6687 100.4955 15.402 95.9964 15.402 95.9964 " data-paper-data="{&quot;origPos&quot;:null,&quot;origRot&quot;:0}" fill="none" stroke="#a2a2a2" stroke-width="1.5" stroke-linecap="round"/><path d="M 16.6403 110.5227 C 16.6403 110.5227 15.7605 106.435 15.7731 104.2103 C 15.7926 100.7907 16.7226 96.0598 16.7226 96.0598 " data-paper-data="{&quot;origPos&quot;:null,&quot;origRot&quot;:0}" fill="none" stroke="#a2a2a2" stroke-width="1.5" stroke-linecap="round"/><path d="M 57.2218 58.8993 C 57.2218 58.8993 56.9552 64.3397 56.3371 67.126 C 55.3871 71.409 53.2039 77.0137 53.2039 77.0137 " data-paper-data="{&quot;origPos&quot;:null}" fill="none" stroke="#a4a4a4" stroke-width="1.5" stroke-linecap="round"/><path d="M 54.0934 57.9691 C 54.0934 57.9691 54.3502 63.4102 54.004 66.2754 C 53.4719 70.6796 51.8428 76.5959 51.8428 76.5959 " data-paper-data="{&quot;origPos&quot;:null,&quot;origRot&quot;:0}" fill="none" stroke="#a4a4a4" stroke-width="1.5" stroke-linecap="round"/><path d="M 50.2698 57.6994 C 50.2698 57.6994 51.2437 63.0008 51.2823 65.9009 C 51.3417 70.3588 50.5211 76.553 50.5211 76.553 " data-paper-data="{&quot;origPos&quot;:null,&quot;origRot&quot;:0}" fill="none" stroke="#a4a4a4" stroke-width="1.5" stroke-linecap="round"/><path d="M 62.2334 62.3551 C 62.2334 62.3551 60.4187 67.4908 59.028 69.9831 C 56.8902 73.8141 53.1922 78.5579 53.1922 78.5579 " data-paper-data="{&quot;origPos&quot;:null,&quot;origRot&quot;:0}" fill="none" stroke="#a4a4a4" stroke-width="1.5" stroke-linecap="round"/><path d="M 5.6862 106.4347 C 5.6862 106.4347 7.3181 102.5851 8.6083 100.7726 C 10.5915 97.9867 14.0738 94.6521 14.0738 94.6521 " data-paper-data="{&quot;origPos&quot;:null,&quot;origRot&quot;:0}" fill="none" stroke="#a2a2a2" stroke-width="1.5" stroke-linecap="round"/><path d="M 44.4135 38.6294 L 55.4135 34.1294 " data-paper-data="{&quot;origPos&quot;:null}" fill="none" stroke="#ffffff" stroke-width="1" stroke-linecap="round"/><path d="M 44.4015 39.7496 L 58.2826 40.1014 " data-paper-data="{&quot;origPos&quot;:null,&quot;origRot&quot;:0}" fill="none" stroke="#ffffff" stroke-width="1" stroke-linecap="round"/><path d="M 55.2706 45.7723 L 44.2706 41.2723 " data-paper-data="{&quot;origPos&quot;:null,&quot;index&quot;:null}" fill="none" stroke="#ffffff" stroke-width="1" stroke-linecap="round"/><path d="M 37.1278 38.4866 L 26.1278 33.9866 " data-paper-data="{&quot;origPos&quot;:null,&quot;index&quot;:null}" fill="none" stroke="#ffffff" stroke-width="1" stroke-linecap="round"/><path d="M 23.4015 39.5146 L 36.9969 39.8592 " data-paper-data="{&quot;origPos&quot;:null,&quot;origRot&quot;:0}" fill="none" stroke="#ffffff" stroke-width="1" stroke-linecap="round"/><path d="M 37.1278 41.2723 L 26.1278 45.7723 " data-paper-data="{&quot;origPos&quot;:null,&quot;index&quot;:null}" fill="none" stroke="#ffffff" stroke-width="1" stroke-linecap="round"/><path d="M254.51477,120.50258c0,1.79493 -2.01472,3.25 -4.5,3.25c-2.48528,0 -4.5,-1.45507 -4.5,-3.25c0,-1.79493 2.01472,-3.25 4.5,-3.25c2.48528,0 4.5,1.45507 4.5,3.25z" data-paper-data="{&quot;origPos&quot;:null}" fill="#000000" stroke="none" stroke-width="0" stroke-linecap="butt" transform="matrix(1,0,0,1,-209.10127,-80.62316)"/></g></g></g></svg>