<svg xmlns="http://www.w3.org/2000/svg" xmlns:xlink="http://www.w3.org/1999/xlink" version="1.1" width="51.36411" height="148.90953" viewBox="0,0,51.36411,148.90953"><g><g data-paper-data="{&quot;isPaintingLayer&quot;:true}" fill-rule="nonzero" stroke-linejoin="miter" stroke-miterlimit="10" stroke-dasharray="" stroke-dashoffset="0" style="mix-blend-mode: normal"><g><path d="M270.62892,138.87147c0.16455,1.97852 -0.82099,6.74196 -0.82099,6.74196c0,0 -1.93895,-4.00278 -3.08319,-5.51503c-0.98287,-1.29898 -3.37201,-3.01629 -3.37201,-3.01629l5.32096,-5.10667c0,0 1.75053,4.43478 1.95523,6.89603z" data-paper-data="{&quot;index&quot;:null}" fill="#e8e8e8" stroke="none" stroke-width="0" stroke-linecap="butt" transform="matrix(1,0,0,1,-219.28334,-97.88019)"/><path d="M253.93952,141.41978l6.91245,-2.57075c0,0 0.50746,2.89821 1.24976,4.34817c0.86417,1.68801 3.62545,5.17472 3.62545,5.17472c0,0 -4.71803,-1.18401 -6.42811,-2.19258c-2.12732,-1.25466 -5.35954,-4.75956 -5.35954,-4.75956z" fill="#e8e8e8" stroke="none" stroke-width="0" stroke-linecap="butt" transform="matrix(1,0,0,1,-219.28334,-97.88019)"/><path d="M 23.55 96.6532 L 23.55 36.6532 " fill="none" stroke="#000000" stroke-width="3.5" stroke-linecap="round"/><path d="M 1.25 26.55 C 1.25 12.5772 12.5772 1.25 26.55 1.25 C 40.5228 1.25 50.2011 17.4566 49.85 31.425 C 49.725 36.3978 45.8978 43.6 31.925 43.6 C 17.9522 43.6 1.25 40.5228 1.25 26.55 Z " fill="#d4d4d4" stroke="#000000" stroke-width="2.5" stroke-linecap="butt"/><g stroke-linecap="round"><path d="M 8.8976 147.1564 L 11.3698 115.0185 L 23.1453 96.8376 " data-paper-data="{&quot;origPos&quot;:null}" stroke-width="3.5" fill="none" stroke="#000000"/><path d="M 24.1484 97.0008 L 35.1977 114.642 L 37.596 147.1595 " stroke-width="3.5" fill="none" stroke="#000000"/></g><g data-paper-data="{&quot;index&quot;:null}" stroke-linecap="round"><path d="M 4.4976 118.9575 L 9.9698 98.8262 L 22.9453 88.6376 " data-paper-data="{&quot;origPos&quot;:null}" stroke-width="3.5" fill="none" stroke="#000000"/><path d="M 23.9484 88.7398 L 36.7978 99.1904 L 41.9961 119.5595 " stroke-width="3.5" fill="none" stroke="#000000"/></g><g data-paper-data="{&quot;index&quot;:null}" stroke-linecap="round"><path d="M 23.3453 75.3595 L 12.1698 67.7786 L 9.2976 50.8407 " data-paper-data="{&quot;origPos&quot;:null}" stroke-width="3.5" fill="none" stroke="#000000"/><path d="M 37.996 50.8375 L 35.9977 68.1551 L 24.3484 75.1963 " stroke-width="3.5" fill="none" stroke="#000000"/></g><g data-paper-data="{&quot;index&quot;:null}" stroke-linecap="round"><path d="M 22.9453 83.3595 L 10.7698 78.5709 L 5.0976 66.6396 " data-paper-data="{&quot;origPos&quot;:null}" stroke-width="3.5" fill="none" stroke="#000000"/><path d="M 42.596 66.6376 L 37.5977 78.8067 L 23.9484 83.2573 " stroke-width="3.5" fill="none" stroke="#000000"/></g><g stroke-linecap="butt"><path d="M249.90974,130.69446c0,-1.44975 1.17525,-2.625 2.625,-2.625c1.44975,0 2.625,1.17525 2.625,2.625c0,1.44975 -1.17525,2.625 -2.625,2.625c-1.44975,0 -2.625,-1.17525 -2.625,-2.625z" stroke-width="0" fill="#ff0000" stroke="none" transform="matrix(1,0,0,1,-219.28334,-97.88019)"/><path d="M260.03472,126.94446c0,-1.44975 1.17525,-2.625 2.625,-2.625c1.44975,0 2.625,1.17525 2.625,2.625c0,1.44975 -1.17525,2.625 -2.625,2.625c-1.44975,0 -2.625,-1.17525 -2.625,-2.625z" stroke-width="0" fill="#ff0000" stroke="none" transform="matrix(1,0,0,1,-219.28334,-97.88019)"/></g><g stroke-linecap="butt"><path d="M247.86807,124.27779c0,-1.44975 1.17525,-2.625 2.625,-2.625c1.44975,0 2.625,1.17525 2.625,2.625c0,1.44975 -1.17525,2.625 -2.625,2.625c-1.44975,0 -2.625,-1.17525 -2.625,-2.625z" stroke-width="0" fill="#ff0000" stroke="none" transform="matrix(1,0,0,1,-219.28334,-97.88019)"/><path d="M257.99307,120.52779c0,-1.44975 1.17525,-2.625 2.625,-2.625c1.44975,0 2.625,1.17525 2.625,2.625c0,1.44975 -1.17525,2.625 -2.625,2.625c-1.44975,0 -2.625,-1.17525 -2.625,-2.625z" stroke-width="0" fill="#ff0000" stroke="none" transform="matrix(1,0,0,1,-219.28334,-97.88019)"/></g><g stroke-linecap="butt"><path d="M244.74307,118.77779c0,-1.44975 1.17525,-2.625 2.625,-2.625c1.44975,0 2.625,1.17525 2.625,2.625c0,1.44975 -1.17525,2.625 -2.625,2.625c-1.44975,0 -2.625,-1.17525 -2.625,-2.625z" stroke-width="0" fill="#ff0000" stroke="none" transform="matrix(1,0,0,1,-219.28334,-97.88019)"/><path d="M254.86807,115.02779c0,-1.44975 1.17525,-2.625 2.625,-2.625c1.44975,0 2.625,1.17525 2.625,2.625c0,1.44975 -1.17525,2.625 -2.625,2.625c-1.44975,0 -2.625,-1.17525 -2.625,-2.625z" stroke-width="0" fill="#ff0000" stroke="none" transform="matrix(1,0,0,1,-219.28334,-97.88019)"/></g><g stroke-linecap="butt"><path d="M240.53474,113.94446c0,-1.44975 1.17525,-2.625 2.625,-2.625c1.44975,0 2.625,1.17525 2.625,2.625c0,1.44975 -1.17525,2.625 -2.625,2.625c-1.44975,0 -2.625,-1.17525 -2.625,-2.625z" stroke-width="0" fill="#ff0000" stroke="none" transform="matrix(1,0,0,1,-219.28334,-97.88019)"/><path d="M250.65974,110.19446c0,-1.44975 1.17525,-2.625 2.625,-2.625c1.44975,0 2.625,1.17525 2.625,2.625c0,1.44975 -1.17525,2.625 -2.625,2.625c-1.44975,0 -2.625,-1.17525 -2.625,-2.625z" stroke-width="0" fill="#ff0000" stroke="none" transform="matrix(1,0,0,1,-219.28334,-97.88019)"/></g><path d="M270.53691,147.28256c0,0.80081 -0.307,1.05 -0.68571,1.05c-0.37871,0 -0.68571,-0.24919 -0.68571,-1.05c0,-0.36782 0.04466,-0.8646 0.20109,-1.34837c0.18415,-0.56949 0.08462,-1.10163 0.08462,-1.10163c0,0 0.46275,0.25122 0.72663,0.87105c0.19255,0.45229 0.35908,1.24111 0.35908,1.57895z" fill="#1ae600" stroke="none" stroke-width="0" stroke-linecap="butt" transform="matrix(1,0,0,1,-219.28334,-97.88019)"/><path d="M262.51905,150.46826c0,1.14402 -0.29422,1.5 -0.65714,1.5c-0.36293,0 -0.65714,-0.35598 -0.65714,-1.5c0,-0.41309 0.08568,-0.98419 0.19516,-1.54533c0.19372,-0.99292 -0.11302,-1.65467 -0.11302,-1.65467l1.09094,0.24239c0,0 -0.14797,0.93157 -0.05563,1.40372c0.11028,0.56389 0.19683,1.13871 0.19683,1.55389z" fill="#1ae600" stroke="none" stroke-width="0" stroke-linecap="butt" transform="matrix(1,0,0,1,-219.28334,-97.88019)"/><path d="M263.90182,147.80262c-0.08283,0.42596 -0.90337,0.62477 -1.83274,0.44406c-0.92937,-0.18071 -1.61563,-0.67251 -1.5328,-1.09847c0.08283,-0.42596 0.90337,-0.62477 1.83274,-0.44406c0.92937,0.18071 1.61563,0.67251 1.5328,1.09847z" fill="#1ae600" stroke="none" stroke-width="0" stroke-linecap="butt" transform="matrix(1,0,0,1,-219.28334,-97.88019)"/><path d="M270.15637,145.44024c-0.34548,0.26258 -1.08997,-0.13562 -1.66286,-0.88939c-0.5729,-0.75377 -0.75725,-1.57769 -0.41177,-1.84026c0.34548,-0.26258 1.08997,0.13562 1.66286,0.88939c0.5729,0.75377 0.75725,1.57769 0.41177,1.84026z" fill="#1ae600" stroke="none" stroke-width="0" stroke-linecap="butt" transform="matrix(1,0,0,1,-219.28334,-97.88019)"/></g></g></g></svg>