<svg xmlns="http://www.w3.org/2000/svg" xmlns:xlink="http://www.w3.org/1999/xlink" version="1.1" width="69.38905" height="165.24595" viewBox="0,0,69.38905,165.24595"><g><g data-paper-data="{&quot;isPaintingLayer&quot;:true}" fill-rule="nonzero" stroke-linejoin="miter" stroke-miterlimit="10" stroke-dasharray="" stroke-dashoffset="0" style="mix-blend-mode: normal"><g><path d="M 25.3452 57.0301 L 25.3452 124.3272 L 13.2976 163.2459 " fill="none" stroke="#000000" stroke-width="4" stroke-linecap="round"/><path d="M 37.696 163.0492 L 25.6484 122.8904 " fill="none" stroke="#000000" stroke-width="4" stroke-linecap="round"/><path d="M 1.25 34.1396 C 1.25 20.1668 12.5772 8.8396 26.55 8.8396 C 40.5228 8.8396 51.85 20.1668 51.85 34.1396 C 51.85 48.1124 40.5228 59.4396 26.55 59.4396 C 12.5772 59.4396 1.25 48.1124 1.25 34.1396 Z " fill="#d4d4d4" stroke="#000000" stroke-width="2.5" stroke-linecap="butt"/><path d="M238.70844,112.24283c0,-2.66149 2.15756,-4.81905 4.81905,-4.81905c2.66149,0 4.81905,2.15756 4.81905,4.81905c0,2.66149 -2.15756,4.81905 -4.81905,4.81905c-2.66149,0 -4.81905,-2.15756 -4.81905,-4.81905z" fill="#000000" stroke="none" stroke-width="0" stroke-linecap="butt" transform="matrix(1,0,0,1,-216.5759,-81.37702)"/><path d="M252.3624,112.24283c0,-2.66148 2.15757,-4.81905 4.81905,-4.81905c2.66148,0 4.81905,2.15757 4.81905,4.81905c0,2.66148 -2.15757,4.81905 -4.81905,4.81905c-2.66148,0 -4.81905,-2.15757 -4.81905,-4.81905z" fill="#000000" stroke="none" stroke-width="0" stroke-linecap="butt" transform="matrix(1,0,0,1,-216.5759,-81.37702)"/><path d="M 22.3516 24.1095 L 31.4786 27.7603 " fill="none" stroke="#000000" stroke-width="2.5" stroke-linecap="round"/><path d="M 43.5262 23.8944 L 36.5897 27.1801 " fill="none" stroke="#000000" stroke-width="2.5" stroke-linecap="round"/><path d="M 50.7056 76.1058 C 50.7056 76.1058 40.3548 73.4858 36.124 71.5641 C 31.9766 69.6803 25.5659 64.6872 25.5659 64.6872 " data-paper-data="{&quot;index&quot;:null}" fill="none" stroke="#000000" stroke-width="4" stroke-linecap="round"/><path d="M268.36276,90.78737c0,3.9224 -10.55811,10.72713 -24.24767,10.72713c-13.68955,0 -24.78713,-6.55473 -24.78713,-10.47713c0,-3.9224 10.94494,-3.72713 24.6345,-3.72713c13.68955,0 24.4003,-0.44527 24.4003,3.47713z" data-paper-data="{&quot;origPos&quot;:null}" fill="#47270e" stroke="none" stroke-width="0" stroke-linecap="butt" transform="matrix(1,0,0,1,-216.5759,-81.37702)"/><path d="M232.27099,94.88585l2.44208,-12.07362c0,0 5.77559,0.59184 9.08149,0.59184c3.90156,0 9.38675,-0.59184 9.38675,-0.59184l2.28946,12.07362c0,0 -7.21248,0.88777 -11.82883,0.88777c-4.43766,0 -11.37094,-0.88777 -11.37094,-0.88777z" data-paper-data="{&quot;origPos&quot;:null}" fill="#201206" stroke="none" stroke-width="0" stroke-linecap="butt" transform="matrix(1,0,0,1,-216.5759,-81.37702)"/><path d="M253.25764,83.15255c0,0.9806 -4.16842,1.77553 -9.31043,1.77553c-5.14201,0 -9.31043,-0.79493 -9.31043,-1.77553c0,-0.9806 4.16842,-1.77553 9.31043,-1.77553c5.14201,0 9.31043,0.79493 9.31043,1.77553z" data-paper-data="{&quot;origPos&quot;:null}" fill="#201206" stroke="none" stroke-width="0" stroke-linecap="butt" transform="matrix(1,0,0,1,-216.5759,-81.37702)"/><g stroke-linecap="butt"><path d="M243.58449,86.48928c0,0 0.26893,-0.60289 0.29885,-0.93297c0.02977,-0.3285 -0.52125,-0.95638 -0.11979,-1.04279c0.40145,-0.08641 0.65621,0.81988 1.08585,0.83486c0.32908,0.01148 0.22286,-0.80696 0.50775,-0.67688c0.47504,0.21691 0.4823,1.10153 0.74217,1.1408c0.42687,0.06449 0.51628,-1.05349 0.84298,-0.79148c0.32671,0.26201 0.38793,1.01044 0.38793,1.56978c0,0.45597 -0.47747,1.3609 -0.47747,1.3609z" fill="#ff3b00" stroke-width="0" stroke="none" transform="matrix(1,0,0,1,-216.5759,-81.37702)"/><path d="M247.33808,90.26677c0.34008,-0.06645 0.73052,0.46701 0.87209,1.19151c0.14157,0.7245 -0.01935,1.3657 -0.35942,1.43215c-0.34008,0.06645 -0.73052,-0.46701 -0.87209,-1.19151c-0.14157,-0.7245 0.01936,-1.36571 0.35943,-1.43216z" fill="#ff3b00" stroke-width="0" stroke="none" transform="matrix(1,0,0,1,-216.5759,-81.37702)"/><path d="M246.20321,91.27854l0.35031,-2.72784l3.4141,1.74582z" fill="#ffb500" stroke-width="0" stroke="none" transform="matrix(1,0,0,1,-216.5759,-81.37702)"/><path d="M241.07488,89.17811c0,-1.70239 1.38006,-3.08246 3.08245,-3.08246c1.70239,0 3.08246,1.38006 3.08246,3.08246c0,1.70239 -1.38007,3.08245 -3.08246,3.08245c-1.70239,0 -3.08245,-1.38006 -3.08245,-3.08245z" fill="#e3e3e3" stroke-width="0" stroke="none" transform="matrix(1,0,0,1,-216.5759,-81.37702)"/><path d="M246.89825,90.11736c0.36812,0.13386 0.42863,0.8966 0.13517,1.70363c-0.29346,0.80703 -0.82978,1.35274 -1.1979,1.21887c-0.36812,-0.13386 -0.42863,-0.8966 -0.13517,-1.70363c0.29346,-0.80703 0.82978,-1.35274 1.1979,-1.21887z" fill="#ff3b00" stroke-width="0" stroke="none" transform="matrix(1,0,0,1,-216.5759,-81.37702)"/><path d="M245.11208,88.55071c0,-0.3917 0.31754,-0.70923 0.70924,-0.70923c0.3917,0 0.70923,0.31753 0.70923,0.70923c0,0.3917 -0.31753,0.70924 -0.70923,0.70924c-0.3917,0 -0.70924,-0.31754 -0.70924,-0.70924z" fill="#000000" stroke-width="0" stroke="none" transform="matrix(1,0,0,1,-216.5759,-81.37702)"/></g><g stroke-linecap="butt"><path d="M249.8706,149.5302c0,-7.3705 6.68481,-8.15302 13.34547,-8.15302c6.66066,0 13.49866,1.8842 13.34546,8.15302c-0.18219,7.45494 -5.97496,11.52356 -13.34546,11.52356c-7.3705,0 -13.34547,-4.15306 -13.34547,-11.52356z" fill="#e3e3e3" stroke-width="NaN" stroke="none" transform="matrix(1,0,0,1,-216.5759,-81.37702)"/><g><path d="M274.17911,136.46287c0,0 0.49656,-1.11317 0.55179,-1.72264c0.05496,-0.60654 -0.96243,-1.76587 -0.22119,-1.92542c0.74124,-0.15955 1.21162,1.51384 2.00491,1.54149c0.60762,0.02119 0.4115,-1.48998 0.93752,-1.24979c0.87712,0.40051 0.89051,2.03389 1.37034,2.10639c0.78817,0.11908 0.95326,-1.94519 1.55649,-1.46141c0.60323,0.48378 0.71628,1.86569 0.71628,2.89845c0,0.84192 -0.88158,2.51277 -0.88158,2.51277z" fill="#ff3b00" stroke-width="0" stroke="none" transform="matrix(1,0,0,1,-216.5759,-81.37702)"/><path d="M281.10974,143.43765c0.62791,-0.12269 1.34884,0.86228 1.61023,2.20001c0.26139,1.33773 -0.03573,2.52164 -0.66364,2.64433c-0.62791,0.12269 -1.34884,-0.86228 -1.61023,-2.20001c-0.26139,-1.33773 0.03573,-2.52164 0.66364,-2.64433z" fill="#ff3b00" stroke-width="0" stroke="none" transform="matrix(1,0,0,1,-216.5759,-81.37702)"/><path d="M279.01433,145.30578l0.64682,-5.03669l6.30381,3.22348z" fill="#ffb500" stroke-width="0" stroke="none" transform="matrix(1,0,0,1,-216.5759,-81.37702)"/><path d="M269.54535,141.42754c0,-3.1433 2.54815,-5.69146 5.69146,-5.69146c3.1433,0 5.69146,2.54815 5.69146,5.69146c0,3.1433 -2.54815,5.69146 -5.69146,5.69146c-3.1433,0 -5.69146,-2.54815 -5.69146,-5.69146z" fill="#e3e3e3" stroke-width="0" stroke="none" transform="matrix(1,0,0,1,-216.5759,-81.37702)"/><path d="M280.29764,143.16176c0.67969,0.24716 0.79143,1.65548 0.24958,3.14559c-0.54185,1.4901 -1.53211,2.4977 -2.21181,2.25054c-0.67969,-0.24716 -0.79143,-1.65548 -0.24958,-3.14559c0.54185,-1.4901 1.53212,-2.4977 2.21181,-2.25054z" fill="#ff3b00" stroke-width="0" stroke="none" transform="matrix(1,0,0,1,-216.5759,-81.37702)"/><path d="M276.99965,140.2691c0,-0.72323 0.5863,-1.30953 1.30954,-1.30953c0.72323,0 1.30953,0.5863 1.30953,1.30953c0,0.72323 -0.5863,1.30954 -1.30953,1.30954c-0.72323,0 -1.30954,-0.5863 -1.30954,-1.30954z" fill="#000000" stroke-width="0" stroke="none" transform="matrix(1,0,0,1,-216.5759,-81.37702)"/></g></g><path d="M 23.7488 64.8582 C 23.7488 64.8582 27.1638 71.2567 30.1649 73.9939 C 33.0785 76.6513 42.1413 79.4476 42.1413 79.4476 " fill="none" stroke="#000000" stroke-width="4" stroke-linecap="round"/></g></g></g></svg>