<svg xmlns="http://www.w3.org/2000/svg" xmlns:xlink="http://www.w3.org/1999/xlink" version="1.1" width="58.37812" height="162.95726" viewBox="0,0,58.37812,162.95726"><defs><linearGradient x1="231.78295" y1="88.31697" x2="231.78295" y2="134.21573" gradientUnits="userSpaceOnUse" id="color-1"><stop offset="0" stop-color="#ffe500"/><stop offset="1" stop-color="#b29100"/></linearGradient><linearGradient x1="231.66079" y1="90.81024" x2="231.66079" y2="138.88682" gradientUnits="userSpaceOnUse" id="color-2"><stop offset="0" stop-color="#ffe500"/><stop offset="1" stop-color="#b29100"/></linearGradient><linearGradient x1="224.30535" y1="88.09364" x2="224.30535" y2="136.17458" gradientUnits="userSpaceOnUse" id="color-3"><stop offset="0" stop-color="#ffe500"/><stop offset="1" stop-color="#b29100"/></linearGradient><linearGradient x1="226.72968" y1="84.34873" x2="226.72968" y2="126.11913" gradientUnits="userSpaceOnUse" id="color-4"><stop offset="0" stop-color="#ffe500"/><stop offset="1" stop-color="#b29100"/></linearGradient><linearGradient x1="239.13839" y1="85.59943" x2="239.13839" y2="131.50348" gradientUnits="userSpaceOnUse" id="color-5"><stop offset="0" stop-color="#ffe500"/><stop offset="1" stop-color="#b29100"/></linearGradient><linearGradient x1="239.07965" y1="88.09364" x2="239.07965" y2="136.17458" gradientUnits="userSpaceOnUse" id="color-6"><stop offset="0" stop-color="#ffe500"/><stop offset="1" stop-color="#b29100"/></linearGradient><linearGradient x1="239.09298" y1="89.17739" x2="239.09298" y2="141.90043" gradientUnits="userSpaceOnUse" id="color-7"><stop offset="0" stop-color="#ffe500"/><stop offset="1" stop-color="#b29100"/></linearGradient><linearGradient x1="248.88907" y1="82.81713" x2="248.88907" y2="128.70365" gradientUnits="userSpaceOnUse" id="color-8"><stop offset="0" stop-color="#ffe500"/><stop offset="1" stop-color="#b29100"/></linearGradient><linearGradient x1="248.82592" y1="85.31066" x2="248.82592" y2="133.45007" gradientUnits="userSpaceOnUse" id="color-9"><stop offset="0" stop-color="#ffe500"/><stop offset="1" stop-color="#b29100"/></linearGradient><linearGradient x1="258.50872" y1="86.69138" x2="258.50872" y2="139.47729" gradientUnits="userSpaceOnUse" id="color-10"><stop offset="0" stop-color="#ffe500"/><stop offset="1" stop-color="#b29100"/></linearGradient><linearGradient x1="258.45907" y1="85.61202" x2="258.45907" y2="133.75146" gradientUnits="userSpaceOnUse" id="color-11"><stop offset="0" stop-color="#ffe500"/><stop offset="1" stop-color="#b29100"/></linearGradient><linearGradient x1="248.87055" y1="86.46536" x2="248.87055" y2="139.25129" gradientUnits="userSpaceOnUse" id="color-12"><stop offset="0" stop-color="#ffe500"/><stop offset="1" stop-color="#b29100"/></linearGradient><linearGradient x1="224.51541" y1="90.53397" x2="224.51541" y2="90.53397" gradientUnits="userSpaceOnUse" id="color-13"><stop offset="0" stop-color="#ffe500"/><stop offset="1" stop-color="#b29100"/></linearGradient><linearGradient x1="243.59556" y1="82.83119" x2="243.59556" y2="102.06102" gradientUnits="userSpaceOnUse" id="color-14"><stop offset="0" stop-color="#ffe500"/><stop offset="1" stop-color="#b29100"/></linearGradient><linearGradient x1="258.02395" y1="83.1185" x2="258.02395" y2="129.00501" gradientUnits="userSpaceOnUse" id="color-15"><stop offset="0" stop-color="#ffe500"/><stop offset="1" stop-color="#b29100"/></linearGradient><linearGradient x1="256.35508" y1="81.8547" x2="256.35508" y2="128.01798" gradientUnits="userSpaceOnUse" id="color-16"><stop offset="0" stop-color="#ffe500"/><stop offset="1" stop-color="#b29100"/></linearGradient><linearGradient x1="256.17487" y1="84.32302" x2="256.17487" y2="132.60734" gradientUnits="userSpaceOnUse" id="color-17"><stop offset="0" stop-color="#ffe500"/><stop offset="1" stop-color="#b29100"/></linearGradient><linearGradient x1="257.4036" y1="84.96122" x2="257.4036" y2="133.29082" gradientUnits="userSpaceOnUse" id="color-18"><stop offset="0" stop-color="#ffe500"/><stop offset="1" stop-color="#b29100"/></linearGradient><linearGradient x1="229.56353" y1="82.12159" x2="229.56353" y2="126.98307" gradientUnits="userSpaceOnUse" id="color-19"><stop offset="0" stop-color="#ffe500"/><stop offset="1" stop-color="#b29100"/></linearGradient><linearGradient x1="231.52781" y1="83.46965" x2="231.52781" y2="131.12678" gradientUnits="userSpaceOnUse" id="color-20"><stop offset="0" stop-color="#ffe500"/><stop offset="1" stop-color="#b29100"/></linearGradient><linearGradient x1="235.10378" y1="85.60956" x2="235.10378" y2="135.72254" gradientUnits="userSpaceOnUse" id="color-21"><stop offset="0" stop-color="#ffe500"/><stop offset="1" stop-color="#b29100"/></linearGradient><linearGradient x1="232.31104" y1="88.32907" x2="232.31104" y2="134.22783" gradientUnits="userSpaceOnUse" id="color-22"><stop offset="0" stop-color="#ffe500"/><stop offset="1" stop-color="#b29100"/></linearGradient><linearGradient x1="232.18888" y1="90.82234" x2="232.18888" y2="138.89891" gradientUnits="userSpaceOnUse" id="color-23"><stop offset="0" stop-color="#ffe500"/><stop offset="1" stop-color="#b29100"/></linearGradient><linearGradient x1="224.83344" y1="88.10574" x2="224.83344" y2="136.18668" gradientUnits="userSpaceOnUse" id="color-24"><stop offset="0" stop-color="#ffe500"/><stop offset="1" stop-color="#b29100"/></linearGradient><linearGradient x1="227.25777" y1="84.36083" x2="227.25777" y2="126.13121" gradientUnits="userSpaceOnUse" id="color-25"><stop offset="0" stop-color="#ffe500"/><stop offset="1" stop-color="#b29100"/></linearGradient><linearGradient x1="239.66648" y1="85.61153" x2="239.66648" y2="131.51558" gradientUnits="userSpaceOnUse" id="color-26"><stop offset="0" stop-color="#ffe500"/><stop offset="1" stop-color="#b29100"/></linearGradient><linearGradient x1="239.60773" y1="88.10574" x2="239.60773" y2="136.18668" gradientUnits="userSpaceOnUse" id="color-27"><stop offset="0" stop-color="#ffe500"/><stop offset="1" stop-color="#b29100"/></linearGradient><linearGradient x1="225.0435" y1="90.54606" x2="225.0435" y2="90.54606" gradientUnits="userSpaceOnUse" id="color-28"><stop offset="0" stop-color="#ffe500"/><stop offset="1" stop-color="#b29100"/></linearGradient><linearGradient x1="244.12365" y1="82.8433" x2="244.12365" y2="102.07312" gradientUnits="userSpaceOnUse" id="color-29"><stop offset="0" stop-color="#ffe500"/><stop offset="1" stop-color="#b29100"/></linearGradient><linearGradient x1="230.09161" y1="82.13369" x2="230.09161" y2="126.99517" gradientUnits="userSpaceOnUse" id="color-30"><stop offset="0" stop-color="#ffe500"/><stop offset="1" stop-color="#b29100"/></linearGradient><linearGradient x1="232.0559" y1="83.48175" x2="232.0559" y2="131.13888" gradientUnits="userSpaceOnUse" id="color-31"><stop offset="0" stop-color="#ffe500"/><stop offset="1" stop-color="#b29100"/></linearGradient><linearGradient x1="235.63187" y1="85.62166" x2="235.63187" y2="135.73464" gradientUnits="userSpaceOnUse" id="color-32"><stop offset="0" stop-color="#ffe500"/><stop offset="1" stop-color="#b29100"/></linearGradient><linearGradient x1="242.16765" y1="143.72572" x2="242.16765" y2="181.92572" gradientUnits="userSpaceOnUse" id="color-33"><stop offset="0" stop-color="#0da3ff"/><stop offset="1" stop-color="#ffffff"/></linearGradient><linearGradient x1="250.06766" y1="143.72571" x2="250.06766" y2="187.12571" gradientUnits="userSpaceOnUse" id="color-34"><stop offset="0" stop-color="#ffffff"/><stop offset="1" stop-color="#ffffff"/></linearGradient><linearGradient x1="18.6387" y1="6.4623" x2="18.6387" y2="52.361" gradientUnits="userSpaceOnUse" id="color-1-,0,0,1,-213.14427,-81.8547"><stop offset="0" stop-color="#ffe500"/><stop offset="1" stop-color="#b29100"/></linearGradient><linearGradient x1="18.5165" y1="8.9555" x2="18.5165" y2="57.0321" gradientUnits="userSpaceOnUse" id="color-2-,0,0,1,-213.14427,-81.8547"><stop offset="0" stop-color="#ffe500"/><stop offset="1" stop-color="#b29100"/></linearGradient><linearGradient x1="11.1611" y1="6.2389" x2="11.1611" y2="54.3199" gradientUnits="userSpaceOnUse" id="color-3-,0,0,1,-213.14427,-81.8547"><stop offset="0" stop-color="#ffe500"/><stop offset="1" stop-color="#b29100"/></linearGradient><linearGradient x1="13.5854" y1="2.494" x2="13.5854" y2="44.2644" gradientUnits="userSpaceOnUse" id="color-4-,0,0,1,-213.14427,-81.8547"><stop offset="0" stop-color="#ffe500"/><stop offset="1" stop-color="#b29100"/></linearGradient><linearGradient x1="25.9941" y1="3.7447" x2="25.9941" y2="49.6488" gradientUnits="userSpaceOnUse" id="color-5-,0,0,1,-213.14427,-81.8547"><stop offset="0" stop-color="#ffe500"/><stop offset="1" stop-color="#b29100"/></linearGradient><linearGradient x1="25.9354" y1="6.2389" x2="25.9354" y2="54.3199" gradientUnits="userSpaceOnUse" id="color-6-,0,0,1,-213.14427,-81.8547"><stop offset="0" stop-color="#ffe500"/><stop offset="1" stop-color="#b29100"/></linearGradient><linearGradient x1="25.9487" y1="7.3227" x2="25.9487" y2="60.0457" gradientUnits="userSpaceOnUse" id="color-7-,0,0,1,-213.14427,-81.8547"><stop offset="0" stop-color="#ffe500"/><stop offset="1" stop-color="#b29100"/></linearGradient><linearGradient x1="35.7448" y1="0.9624" x2="35.7448" y2="46.849" gradientUnits="userSpaceOnUse" id="color-8-,0,0,1,-213.14427,-81.8547"><stop offset="0" stop-color="#ffe500"/><stop offset="1" stop-color="#b29100"/></linearGradient><linearGradient x1="35.6816" y1="3.456" x2="35.6816" y2="51.5954" gradientUnits="userSpaceOnUse" id="color-9-,0,0,1,-213.14427,-81.8547"><stop offset="0" stop-color="#ffe500"/><stop offset="1" stop-color="#b29100"/></linearGradient><linearGradient x1="45.3644" y1="4.8367" x2="45.3644" y2="57.6226" gradientUnits="userSpaceOnUse" id="color-10-,0,0,1,-213.14427,-81.8547"><stop offset="0" stop-color="#ffe500"/><stop offset="1" stop-color="#b29100"/></linearGradient><linearGradient x1="45.3148" y1="3.7573" x2="45.3148" y2="51.8968" gradientUnits="userSpaceOnUse" id="color-11-,0,0,1,-213.14427,-81.8547"><stop offset="0" stop-color="#ffe500"/><stop offset="1" stop-color="#b29100"/></linearGradient><linearGradient x1="35.7263" y1="4.6107" x2="35.7263" y2="57.3966" gradientUnits="userSpaceOnUse" id="color-12-,0,0,1,-213.14427,-81.8547"><stop offset="0" stop-color="#ffe500"/><stop offset="1" stop-color="#b29100"/></linearGradient><linearGradient x1="30.4513" y1="0.9765" x2="30.4513" y2="20.2063" gradientUnits="userSpaceOnUse" id="color-14-,0,0,1,-213.14427,-81.8547"><stop offset="0" stop-color="#ffe500"/><stop offset="1" stop-color="#b29100"/></linearGradient><linearGradient x1="44.8797" y1="1.2638" x2="44.8797" y2="47.1503" gradientUnits="userSpaceOnUse" id="color-15-,0,0,1,-213.14427,-81.8547"><stop offset="0" stop-color="#ffe500"/><stop offset="1" stop-color="#b29100"/></linearGradient><linearGradient x1="43.2108" y1="0" x2="43.2108" y2="46.1633" gradientUnits="userSpaceOnUse" id="color-16-,0,0,1,-213.14427,-81.8547"><stop offset="0" stop-color="#ffe500"/><stop offset="1" stop-color="#b29100"/></linearGradient><linearGradient x1="43.0306" y1="2.4683" x2="43.0306" y2="50.7526" gradientUnits="userSpaceOnUse" id="color-17-,0,0,1,-213.14427,-81.8547"><stop offset="0" stop-color="#ffe500"/><stop offset="1" stop-color="#b29100"/></linearGradient><linearGradient x1="44.2593" y1="3.1065" x2="44.2593" y2="51.4361" gradientUnits="userSpaceOnUse" id="color-18-,0,0,1,-213.14427,-81.8547"><stop offset="0" stop-color="#ffe500"/><stop offset="1" stop-color="#b29100"/></linearGradient><linearGradient x1="16.4193" y1="0.2669" x2="16.4193" y2="45.1284" gradientUnits="userSpaceOnUse" id="color-19-,0,0,1,-213.14427,-81.8547"><stop offset="0" stop-color="#ffe500"/><stop offset="1" stop-color="#b29100"/></linearGradient><linearGradient x1="18.3835" y1="1.615" x2="18.3835" y2="49.2721" gradientUnits="userSpaceOnUse" id="color-20-,0,0,1,-213.14427,-81.8547"><stop offset="0" stop-color="#ffe500"/><stop offset="1" stop-color="#b29100"/></linearGradient><linearGradient x1="21.9595" y1="3.7549" x2="21.9595" y2="53.8678" gradientUnits="userSpaceOnUse" id="color-21-,0,0,1,-213.14427,-81.8547"><stop offset="0" stop-color="#ffe500"/><stop offset="1" stop-color="#b29100"/></linearGradient><linearGradient x1="19.1668" y1="6.4744" x2="19.1668" y2="52.3731" gradientUnits="userSpaceOnUse" id="color-22-,0,0,1,-213.14427,-81.8547"><stop offset="0" stop-color="#ffe500"/><stop offset="1" stop-color="#b29100"/></linearGradient><linearGradient x1="19.0446" y1="8.9676" x2="19.0446" y2="57.0442" gradientUnits="userSpaceOnUse" id="color-23-,0,0,1,-213.14427,-81.8547"><stop offset="0" stop-color="#ffe500"/><stop offset="1" stop-color="#b29100"/></linearGradient><linearGradient x1="11.6892" y1="6.251" x2="11.6892" y2="54.332" gradientUnits="userSpaceOnUse" id="color-24-,0,0,1,-213.14427,-81.8547"><stop offset="0" stop-color="#ffe500"/><stop offset="1" stop-color="#b29100"/></linearGradient><linearGradient x1="14.1135" y1="2.5061" x2="14.1135" y2="44.2765" gradientUnits="userSpaceOnUse" id="color-25-,0,0,1,-213.14427,-81.8547"><stop offset="0" stop-color="#ffe500"/><stop offset="1" stop-color="#b29100"/></linearGradient><linearGradient x1="26.5222" y1="3.7568" x2="26.5222" y2="49.6609" gradientUnits="userSpaceOnUse" id="color-26-,0,0,1,-213.14427,-81.8547"><stop offset="0" stop-color="#ffe500"/><stop offset="1" stop-color="#b29100"/></linearGradient><linearGradient x1="26.4635" y1="6.251" x2="26.4635" y2="54.332" gradientUnits="userSpaceOnUse" id="color-27-,0,0,1,-213.14427,-81.8547"><stop offset="0" stop-color="#ffe500"/><stop offset="1" stop-color="#b29100"/></linearGradient><linearGradient x1="30.9794" y1="0.9886" x2="30.9794" y2="20.2184" gradientUnits="userSpaceOnUse" id="color-29-,0,0,1,-213.14427,-81.8547"><stop offset="0" stop-color="#ffe500"/><stop offset="1" stop-color="#b29100"/></linearGradient><linearGradient x1="16.9473" y1="0.279" x2="16.9473" y2="45.1405" gradientUnits="userSpaceOnUse" id="color-30-,0,0,1,-213.14427,-81.8547"><stop offset="0" stop-color="#ffe500"/><stop offset="1" stop-color="#b29100"/></linearGradient><linearGradient x1="18.9116" y1="1.6271" x2="18.9116" y2="49.2842" gradientUnits="userSpaceOnUse" id="color-31-,0,0,1,-213.14427,-81.8547"><stop offset="0" stop-color="#ffe500"/><stop offset="1" stop-color="#b29100"/></linearGradient><linearGradient x1="22.4876" y1="3.767" x2="22.4876" y2="53.8799" gradientUnits="userSpaceOnUse" id="color-32-,0,0,1,-213.14427,-81.8547"><stop offset="0" stop-color="#ffe500"/><stop offset="1" stop-color="#b29100"/></linearGradient><linearGradient x1="29.0234" y1="61.871" x2="29.0234" y2="100.071" gradientUnits="userSpaceOnUse" id="color-33-,0,0,1,-213.14427,-81.8547"><stop offset="0" stop-color="#0da3ff"/><stop offset="1" stop-color="#ffffff"/></linearGradient><linearGradient x1="36.9234" y1="61.871" x2="36.9234" y2="105.271" gradientUnits="userSpaceOnUse" id="color-34-,0,0,1,-213.14427,-81.8547"><stop offset="0" stop-color="#ffffff"/><stop offset="1" stop-color="#ffffff"/></linearGradient></defs><g><g data-paper-data="{&quot;isPaintingLayer&quot;:true}" fill-rule="nonzero" stroke-linejoin="miter" stroke-miterlimit="10" stroke-dasharray="" stroke-dashoffset="0" style="mix-blend-mode: normal"><g><g stroke-linecap="butt"><path d="M 32.0425 8.0012 C 33.057 9.3573 11.8784 8.9806 11.8784 29.0965 C 11.8784 49.2123 10.2298 52.904 7.313 52.3013 C 2.8743 51.4725 6.8057 49.4383 6.8057 29.3225 C 6.6789 16.0626 21.3898 1.6726 32.0425 8.0012 Z " fill="url(#color-1-,0,0,1,-213.14427,-81.8547)" stroke-width="1" stroke="none"/><path d="M 29.6329 10.3368 C 30.6475 11.6929 14.0343 13.6517 14.0343 33.7676 C 14.0343 53.8834 12.3857 57.5751 9.4689 56.9724 C 5.0302 56.1436 8.9616 54.1094 8.9616 33.9936 C 8.9616 20.7337 19.107 4.0082 29.6329 10.3368 Z " fill="url(#color-2-,0,0,1,-213.14427,-81.8547)" stroke-width="1" stroke="none"/><path d="M 22.2775 7.6245 C 23.292 8.9806 6.6789 10.9395 6.6789 31.0553 C 6.6789 51.1712 5.0302 54.8628 2.1134 54.2601 C -2.3252 53.4314 1.6061 51.3972 1.6061 31.2813 C 1.6061 17.9461 11.7516 1.2959 22.2775 7.6245 Z " fill="url(#color-3-,0,0,1,-213.14427,-81.8547)" stroke-width="1" stroke="none"/><path d="M 5.7911 24.124 C 5.7911 44.2399 14.5416 44.6166 11.6248 44.0892 C 7.1861 44.8426 4.6498 44.0138 1.4793 23.9733 C -0.6766 10.1107 8.9616 0.0151 25.9552 3.0288 C 26.9698 4.3849 5.7912 4.0082 5.7912 24.124 Z " fill="url(#color-4-,0,0,1,-213.14427,-81.8547)" stroke-width="1" stroke="none"/><path d="M 39.3979 5.289 C 40.4125 6.6451 19.2339 6.2684 19.2339 26.3842 C 19.2339 46.5001 17.5852 50.1917 14.6684 49.589 C 10.2298 48.7603 14.1611 46.7261 14.1611 26.6102 C 14.0343 13.275 28.872 -1.0396 39.3979 5.2889 Z " fill="url(#color-5-,0,0,1,-213.14427,-81.8547)" stroke-width="1" stroke="none"/><path d="M 37.1152 7.6245 C 38.1297 8.9806 21.5166 10.9395 21.5166 31.0553 C 21.5166 51.1712 19.8679 54.8628 16.8243 54.2601 C 12.3857 53.4314 16.317 51.3972 16.317 31.2813 C 16.4439 17.9461 26.4625 1.2959 37.1152 7.6245 Z " fill="url(#color-6-,0,0,1,-213.14427,-81.8547)" stroke-width="1" stroke="none"/><path d="M 33.8179 8.9806 C 34.8325 10.3368 24.687 16.6653 24.687 36.7812 C 24.687 56.897 23.0384 60.5887 20.1216 59.986 C 15.683 59.1572 19.6143 57.123 19.6143 37.0072 C 19.6143 23.7473 27.8575 0.9946 33.8179 8.9806 Z " fill="url(#color-7-,0,0,1,-213.14427,-81.8547)" stroke-width="1" stroke="none"/><path d="M 22.2775 2.5014 C 32.8034 -3.8272 47.6411 10.5628 47.6411 23.8227 C 47.6411 43.9385 51.5725 45.9727 47.1338 46.8014 C 44.217 47.3288 42.5684 43.7125 42.5684 23.5966 C 42.5684 3.4808 21.2629 3.8575 22.2775 2.5014 Z " fill="url(#color-8-,0,0,1,-213.14427,-81.8547)" stroke-width="1" stroke="none"/><path d="M 24.5602 4.8369 C 35.0861 -1.4917 45.2315 15.2339 45.2315 28.5691 C 45.2315 48.6849 49.1629 50.7191 44.7243 51.5479 C 41.8075 52.0752 40.1588 48.4589 40.1588 28.3431 C 40.1588 8.2272 23.6725 6.193 24.5602 4.8369 Z " fill="url(#color-9-,0,0,1,-213.14427,-81.8547)" stroke-width="1" stroke="none"/><path d="M 37.4956 6.4944 C 43.4561 -1.4917 51.6993 21.2611 51.6993 34.5963 C 51.6993 54.7121 55.6306 56.7463 51.192 57.5751 C 48.2752 58.1025 46.4997 54.4861 46.4997 34.3703 C 46.4997 14.2544 36.4811 7.7752 37.4957 6.4944 Z " fill="url(#color-10-,0,0,1,-213.14427,-81.8547)" stroke-width="1" stroke="none"/><path d="M 34.1984 5.1383 C 44.7243 -1.1903 54.8697 15.5352 54.8697 28.8705 C 54.8697 48.9863 58.8011 51.0205 54.3624 51.8492 C 51.4456 52.3766 49.797 48.7603 49.797 28.6444 C 49.797 8.5286 33.1838 6.4191 34.1984 5.1383 Z " fill="url(#color-11-,0,0,1,-213.14427,-81.8547)" stroke-width="1" stroke="none"/><path d="M 27.8575 6.2684 C 33.8179 -1.7177 42.0611 21.0351 42.0611 34.3703 C 42.0611 54.4861 45.9925 56.5203 41.5538 57.3491 C 38.637 57.8764 36.8616 54.2601 36.8616 34.1443 C 36.8616 14.0284 26.8429 7.5492 27.8575 6.2684 Z " fill="url(#color-12-,0,0,1,-213.14427,-81.8547)" stroke-width="1" stroke="none"/><path d="M 11.3711 8.6793 " fill="#b29100" stroke-width="1" stroke="none"/></g><path d="M 42.822 7.4738 C 39.6516 7.0971 23.7993 7.3985 20.8825 8.2272 C 13.6539 10.4121 11.8784 20.2063 11.8784 20.2063 L 8.5811 19.6036 C 8.5811 19.6036 4.1425 0.8439 31.2816 0.9946 C 45.7388 0.5425 51.9529 8.6793 52.587 13.5764 C 52.587 13.501 53.0943 8.6793 42.822 7.4738 Z " fill="url(#color-14-,0,0,1,-213.14427,-81.8547)" stroke="none" stroke-width="1" stroke-linecap="butt"/><g stroke-linecap="butt"><g data-paper-data="{&quot;origPos&quot;:null}"><path d="M 31.4084 2.8027 C 41.9343 -3.5258 56.772 10.8641 56.772 24.124 C 56.772 44.2399 60.7034 46.2741 56.2647 47.1028 C 53.3479 47.6302 51.6993 44.0138 51.6993 23.898 C 51.6993 3.7822 30.5207 4.0835 31.4084 2.8027 Z " fill="url(#color-15-,0,0,1,-213.14427,-81.8547)" stroke-width="1" stroke="none"/><path d="M 28.872 1.748 C 39.3979 -4.5806 57.5329 7.3232 57.5329 20.6584 C 57.5329 40.7742 58.2938 45.2946 53.7284 46.1234 C 50.8116 46.6508 52.2065 42.1303 52.2065 21.9392 C 52.2065 1.748 27.8575 3.0288 28.872 1.748 Z " data-paper-data="{&quot;origPos&quot;:null}" fill="url(#color-16-,0,0,1,-213.14427,-81.8547)" stroke-width="1" stroke="none"/><path d="M 31.1548 4.0835 C 41.6806 -2.2451 54.8697 11.1655 54.8697 24.5007 C 54.8697 44.6166 55.7575 49.8904 51.3188 50.7191 C 48.402 51.2465 51.0652 45.6713 51.0652 25.5555 C 51.0652 5.4397 30.1402 5.4397 31.1548 4.0835 Z " fill="url(#color-17-,0,0,1,-213.14427,-81.8547)" stroke-width="1" stroke="none"/><path d="M 33.5643 5.2136 C 39.5247 -2.7724 54.9965 13.5764 54.9965 26.9116 C 54.9965 47.0275 47.7679 53.9587 44.3438 50.6438 C 42.3147 48.6849 50.1775 46.8768 50.1775 26.7609 C 50.1775 6.6451 32.5498 6.4944 33.5643 5.2136 Z " fill="url(#color-18-,0,0,1,-213.14427,-81.8547)" stroke-width="1" stroke="none"/></g><g data-paper-data="{&quot;origPos&quot;:null}"><path d="M 9.5957 21.8638 C 9.5957 41.9797 7.9471 45.6713 5.0302 45.0686 C 0.5916 44.2399 4.523 42.2057 4.523 22.0898 C 4.523 8.7546 12.8929 -2.2451 29.8866 0.7685 C 30.9011 2.1247 9.5957 1.748 9.5957 21.8638 Z " fill="url(#color-19-,0,0,1,-213.14427,-81.8547)" stroke-width="1" stroke="none"/><path d="M 10.6102 26.0075 C 10.6102 46.1234 8.9616 49.815 6.0448 49.2123 C 1.6062 48.3836 5.5375 46.3494 5.5375 26.2335 C 5.5375 12.8983 22.1507 -3.2998 32.8034 3.0287 C 33.8179 4.4602 10.6102 5.8917 10.6102 26.0075 Z " fill="url(#color-20-,0,0,1,-213.14427,-81.8547)" stroke-width="1" stroke="none"/><path d="M 13.9075 30.6033 C 15.9366 50.7191 12.2589 54.4108 9.3421 53.8081 C 4.9034 52.9793 8.8348 50.9451 8.8348 30.8293 C 8.8348 17.4941 12.2589 0.6932 36.6079 4.2342 C 38.3834 10.2614 10.8639 0.7686 13.9075 30.6033 Z " fill="url(#color-21-,0,0,1,-213.14427,-81.8547)" stroke-width="1" stroke="none"/></g></g><path d="M 27.8507 54.9914 L 27.8507 122.2885 L 15.8031 161.2072 " data-paper-data="{&quot;origPos&quot;:null}" fill="none" stroke="#000000" stroke-width="3.5" stroke-linecap="round"/><path d="M 28.6539 120.8517 L 40.7015 161.0104 " fill="none" stroke="#000000" stroke-width="3.5" stroke-linecap="round"/><path d="M 3.7554 32.1009 C 3.7554 18.1281 15.0827 6.8009 29.0555 6.8009 C 43.0283 6.8009 54.3555 18.1281 54.3555 32.1009 C 54.3555 46.0737 43.0283 57.4009 29.0555 57.4009 C 15.0827 57.4009 3.7554 46.0737 3.7554 32.1009 Z " data-paper-data="{&quot;origPos&quot;:null}" fill="#d4d4d4" stroke="#000000" stroke-width="2.5" stroke-linecap="butt"/><path d="M237.78226,107.93182c0,-2.66149 2.15756,-4.81905 4.81905,-4.81905c2.66149,0 4.81905,2.15756 4.81905,4.81905c0,2.66149 -2.15756,4.81905 -4.81905,4.81905c-2.66149,0 -4.81905,-2.15756 -4.81905,-4.81905z" data-paper-data="{&quot;origPos&quot;:null}" fill="#000000" stroke="none" stroke-width="0" stroke-linecap="butt" transform="matrix(1,0,0,1,-213.14427,-81.8547)"/><path d="M251.43623,107.93182c0,-2.66148 2.15757,-4.81905 4.81905,-4.81905c2.66148,0 4.81905,2.15757 4.81905,4.81905c0,2.66148 -2.15757,4.81905 -4.81905,4.81905c-2.66148,0 -4.81905,-2.15757 -4.81905,-4.81905z" data-paper-data="{&quot;origPos&quot;:null}" fill="#000000" stroke="none" stroke-width="0" stroke-linecap="butt" transform="matrix(1,0,0,1,-213.14427,-81.8547)"/><path d="M 24.857 19.0708 L 33.984 22.7216 " data-paper-data="{&quot;origPos&quot;:null}" fill="none" stroke="#000000" stroke-width="2.5" stroke-linecap="round"/><path d="M 46.0316 19.1057 L 39.0951 22.3914 " data-paper-data="{&quot;origPos&quot;:null}" fill="none" stroke="#000000" stroke-width="2.5" stroke-linecap="round"/><path d="M 44.4364 92.8867 L 28.738 63.3152 " data-paper-data="{&quot;origPos&quot;:null,&quot;index&quot;:null}" fill="none" stroke="#000000" stroke-width="3.5" stroke-linecap="round"/><g stroke-linecap="butt"><path d="M 32.5706 8.0133 C 33.5851 9.3694 12.4065 8.9927 12.4065 29.1086 C 12.4065 49.2244 10.7579 52.9161 7.841 52.3134 C 3.4024 51.4846 7.3338 49.4504 7.3338 29.3346 C 7.207 16.0747 21.9178 1.6847 32.5706 8.0133 Z " fill="url(#color-22-,0,0,1,-213.14427,-81.8547)" stroke-width="1" stroke="none"/><path d="M 30.161 10.3489 C 31.1756 11.705 14.5624 13.6638 14.5624 33.7797 C 14.5624 53.8955 12.9138 57.5872 9.997 56.9845 C 5.5583 56.1557 9.4897 54.1215 9.4897 34.0057 C 9.4897 20.7458 19.6351 4.0203 30.161 10.3489 Z " fill="url(#color-23-,0,0,1,-213.14427,-81.8547)" stroke-width="1" stroke="none"/><path d="M 22.8056 7.6366 C 23.8201 8.9927 7.207 10.9516 7.207 31.0674 C 7.207 51.1833 5.5583 54.8749 2.6415 54.2722 C -1.7971 53.4435 2.1342 51.4093 2.1342 31.2934 C 2.1342 17.9582 12.2797 1.308 22.8056 7.6366 Z " fill="url(#color-24-,0,0,1,-213.14427,-81.8547)" stroke-width="1" stroke="none"/><path d="M 6.3192 24.1361 C 6.3192 44.252 15.0697 44.6287 12.1529 44.1013 C 7.7142 44.8547 5.1779 44.0259 2.0074 23.9854 C -0.1485 10.1228 9.4897 0.0273 26.4833 3.0409 C 27.4978 4.397 6.3192 4.0203 6.3192 24.1361 Z " fill="url(#color-25-,0,0,1,-213.14427,-81.8547)" stroke-width="1" stroke="none"/><path d="M 39.926 5.3011 C 40.9406 6.6572 19.7619 6.2805 19.7619 26.3963 C 19.7619 46.5122 18.1133 50.2038 15.1965 49.6011 C 10.7579 48.7724 14.6892 46.7382 14.6892 26.6223 C 14.5624 13.2871 29.4001 -1.0275 39.926 5.3011 Z " fill="url(#color-26-,0,0,1,-213.14427,-81.8547)" stroke-width="1" stroke="none"/><path d="M 37.6433 7.6366 C 38.6578 8.9927 22.0447 10.9516 22.0447 31.0674 C 22.0447 51.1833 20.3961 54.8749 17.3524 54.2722 C 12.9138 53.4435 16.8451 51.4093 16.8451 31.2934 C 16.9719 17.9582 26.9906 1.308 37.6433 7.6366 Z " fill="url(#color-27-,0,0,1,-213.14427,-81.8547)" stroke-width="1" stroke="none"/><path d="M 11.8992 8.6914 " fill="#b29100" stroke-width="1" stroke="none"/></g><path d="M 43.3501 7.4859 C 40.1797 7.1092 24.3274 7.4106 21.4106 8.2393 C 14.182 10.4242 12.4065 20.2184 12.4065 20.2184 L 9.1092 19.6157 C 9.1092 19.6157 4.6706 0.856 31.8096 1.0067 C 46.2669 0.5546 52.481 8.6914 53.1151 13.5885 C 53.1151 13.5131 53.6223 8.6914 43.3501 7.4859 Z " fill="url(#color-29-,0,0,1,-213.14427,-81.8547)" stroke="none" stroke-width="1" stroke-linecap="butt"/><g stroke-linecap="butt"><g data-paper-data="{&quot;origPos&quot;:null}" font-family="sans-serif" font-weight="normal" font-size="12" text-anchor="start"/><g data-paper-data="{&quot;origPos&quot;:null}"><path d="M 10.1238 21.8759 C 10.1238 41.9918 8.4751 45.6834 5.5583 45.0807 C 1.1197 44.252 5.0511 42.2178 5.0511 22.1019 C 5.0511 8.7667 13.421 -2.233 30.4147 0.7806 C 31.4292 2.1368 10.1238 1.7601 10.1238 21.8759 Z " fill="url(#color-30-,0,0,1,-213.14427,-81.8547)" stroke-width="1" stroke="none"/><path d="M 11.1383 26.0196 C 11.1383 46.1355 9.4897 49.8271 6.5729 49.2244 C 2.1342 48.3957 6.0656 46.3615 6.0656 26.2456 C 6.0656 12.9104 22.6788 -3.2877 33.3315 3.0409 C 34.346 4.4723 11.1383 5.9038 11.1383 26.0196 Z " fill="url(#color-31-,0,0,1,-213.14427,-81.8547)" stroke-width="1" stroke="none"/><path d="M 14.4356 30.6154 C 16.4647 50.7312 12.787 54.4229 9.8701 53.8202 C 5.4315 52.9914 9.3629 50.9572 9.3629 30.8414 C 9.3629 17.5062 12.7869 0.7053 37.136 4.2463 C 38.9115 10.2735 11.392 0.7807 14.4356 30.6154 Z " fill="url(#color-32-,0,0,1,-213.14427,-81.8547)" stroke-width="1" stroke="none"/></g></g><path d="M 23.5415 62.7014 L 26.4089 62.1478 L 27.7583 68.2377 L 28.9391 72.9435 L 29.7824 61.871 L 33.8306 61.871 L 36.0234 96.7493 L 22.0234 100.071 Z " fill="url(#color-33-,0,0,1,-213.14427,-81.8547)" stroke="#000000" stroke-width="0.5" stroke-linecap="round"/><path d="M 31.2234 105.271 L 28.8234 101.671 L 30.4234 61.871 L 39.2234 63.871 L 45.0234 82.871 L 39.6234 90.671 L 36.6234 83.271 L 35.8234 104.471 Z " data-paper-data="{&quot;index&quot;:null}" fill="url(#color-34-,0,0,1,-213.14427,-81.8547)" stroke="#000000" stroke-width="0.5" stroke-linecap="round"/><path d="M 20.0475 68.4819 L 53.1824 73.8866 " data-paper-data="{&quot;origPos&quot;:null}" fill="none" stroke="#000000" stroke-width="3.5" stroke-linecap="round"/><path d="M 21.0234 103.871 L 20.2234 82.671 L 17.6234 63.271 L 26.4234 61.271 L 28.0234 101.071 L 25.6234 104.671 Z " fill="#ffffff" stroke="#000000" stroke-width="0.5" stroke-linecap="round"/><path d="M 15.4433 70.6707 L 17.4433 63.1707 L 42.4433 66.504 L 42.4433 77.1707 L 18.7905 73.9985 Z " fill="#ffffff" stroke="#000000" stroke-width="0.5" stroke-linecap="butt"/></g></g></g></svg>