<svg xmlns="http://www.w3.org/2000/svg" xmlns:xlink="http://www.w3.org/1999/xlink" version="1.1" width="59.09934997558594" height="157.9062957763672" viewBox="-1.75 -0.5 59.09934997558594 157.9062957763672"><defs><radialGradient cx="257.48787" cy="175.65561" r="11.5352" gradientUnits="userSpaceOnUse" id="color-1"><stop offset="0" stop-color="#a230ff"/><stop offset="1" stop-color="#a230ff" stop-opacity="0"/></radialGradient><radialGradient cx="224.95891" cy="176.2167" r="11.53519" gradientUnits="userSpaceOnUse" id="color-2"><stop offset="0" stop-color="#a230ff"/><stop offset="1" stop-color="#a230ff" stop-opacity="0"/></radialGradient></defs><g><g data-paper-data="{&quot;isPaintingLayer&quot;:true}" fill-rule="nonzero" stroke-linecap="none" stroke-linejoin="miter" stroke-miterlimit="10" stroke-dasharray="" stroke-dashoffset="0" font-family="none" font-weight="none" font-size="none" text-anchor="none" style="mix-blend-mode: normal"><path d="M 27.8301 49.4405 L 27.8301 116.7375 L 15.7825 155.6563 " data-paper-data="{&quot;origPos&quot;:null}" fill="none" stroke="#000000" stroke-width="3.5" stroke-linecap="round"/><path d="M 28.6333 115.3008 L 40.6809 155.4595 " fill="none" stroke="#000000" stroke-width="3.5" stroke-linecap="round"/><path d="M 3.7348 26.55 C 3.7348 12.5772 15.062 1.25 29.0348 1.25 C 43.0076 1.25 54.3348 12.5772 54.3348 26.55 C 54.3348 40.5228 43.0076 51.85 29.0348 51.85 C 15.062 51.85 3.7348 40.5228 3.7348 26.55 Z " data-paper-data="{&quot;origPos&quot;:null}" fill="#333333" stroke="#000000" stroke-width="2.5" stroke-linecap="butt"/><path d="M238.40157,109.34917c0,-2.66149 2.15756,-4.81905 4.81905,-4.81905c2.66149,0 4.81905,2.15756 4.81905,4.81905c0,2.66149 -2.15756,4.81905 -4.81905,4.81905c-2.66149,0 -4.81905,-2.15756 -4.81905,-4.81905z" data-paper-data="{&quot;origPos&quot;:null}" fill="#a230ff" stroke="#008080" stroke-width="0" stroke-linecap="butt" transform="matrix(1,0,0,1,-213.7842,-88.82297)"/><path d="M252.05554,109.34917c0,-2.66148 2.15757,-4.81905 4.81905,-4.81905c2.66148,0 4.81905,2.15757 4.81905,4.81905c0,2.66148 -2.15757,4.81905 -4.81905,4.81905c-2.66148,0 -4.81905,-2.15757 -4.81905,-4.81905z" data-paper-data="{&quot;origPos&quot;:null}" fill="#a230ff" stroke="#008080" stroke-width="0" stroke-linecap="butt" transform="matrix(1,0,0,1,-213.7842,-88.82297)"/><path d="M 24.8364 13.5199 L 33.9634 17.1706 " data-paper-data="{&quot;origPos&quot;:null}" fill="none" stroke="#000000" stroke-width="2.5" stroke-linecap="round"/><path d="M 46.011 13.5548 L 39.0745 16.8405 " data-paper-data="{&quot;origPos&quot;:null}" fill="none" stroke="#000000" stroke-width="2.5" stroke-linecap="round"/><path d="M 26.5269 57.7643 L 10.8285 87.3357 " data-paper-data="{&quot;origPos&quot;:null}" fill="none" stroke="#000000" stroke-width="3.5" stroke-linecap="round"/><path d="M 28.7174 57.7643 L 44.4158 87.3357 " data-paper-data="{&quot;origPos&quot;:null,&quot;index&quot;:null}" fill="none" stroke="#000000" stroke-width="3.5" stroke-linecap="round"/><path d="M246.31316,175.29513c0,-6.37071 5.16448,-11.53519 11.53519,-11.53519c6.37071,0 11.5352,5.16448 11.5352,11.53519c0,6.37071 -5.16449,11.53519 -11.5352,11.53519c-6.37071,0 -11.53519,-5.16448 -11.53519,-11.53519z" data-paper-data="{&quot;origPos&quot;:null}" fill="url(#color-1)" stroke="none" stroke-width="0" stroke-linecap="butt" transform="matrix(1,0,0,1,-213.7842,-88.82297)"/><path d="M213.7842,175.85622c0,-6.37071 5.16448,-11.53519 11.53519,-11.53519c6.37071,0 11.5352,5.16448 11.5352,11.53519c0,6.37071 -5.16449,11.53519 -11.5352,11.53519c-6.37071,0 -11.53519,-5.16448 -11.53519,-11.53519z" data-paper-data="{&quot;origPos&quot;:null}" fill="url(#color-2)" stroke="none" stroke-width="0" stroke-linecap="butt" transform="matrix(1,0,0,1,-213.7842,-88.82297)"/></g></g></svg>