<svg xmlns="http://www.w3.org/2000/svg" xmlns:xlink="http://www.w3.org/1999/xlink" version="1.1" width="70.44779" height="184.10596" viewBox="0,0,70.44779,184.10596"><g><g data-paper-data="{&quot;isPaintingLayer&quot;:true}" fill-rule="nonzero" stroke-linecap="none" stroke-linejoin="miter" stroke-miterlimit="10" stroke-dasharray="" stroke-dashoffset="0" font-family="none" font-weight="none" font-size="none" text-anchor="none" style="mix-blend-mode: normal"><path d="M264.01452,105.1455c-4.7595,0.71724 -12.13017,1.15378 -12.13017,1.15378l-0.72253,-8.15l13.33689,-2.16548l4.37615,-17.86431c0,0 1.84944,8.91722 2.60545,13.93399c0.71724,4.7595 1.16957,11.1165 1.16957,11.1165c0,0 -5.29085,1.4715 -8.63536,1.97551z" data-paper-data="{&quot;origPos&quot;:null,&quot;index&quot;:null,&quot;origRot&quot;:0}" fill="#b84d00" stroke="none" stroke-width="0" stroke-linecap="butt" transform="matrix(1,0,0,1,-202.20209,-62.21263)"/><path d="M 49.8465 0 Z " fill="none" stroke="#ebe300" stroke-width="4" stroke-linecap="butt"/><path d="M 12.4072 81.3564 L 18.0121 73.098 C 18.0121 73.098 21.2315 82.8446 24.7495 85.8291 C 28.7204 89.1979 39.4978 91.0291 39.4978 91.0291 L 37.2468 100.7789 C 37.2468 100.7789 34.1688 101.1978 32.3707 103.0031 C 29.6694 105.7152 29.7203 110.2239 25.4227 108.935 C 21.1251 107.6461 28.7581 102.3245 26.361 101.2007 C 23.9638 100.077 21.1303 106.1043 19.3854 104.4774 C 17.6405 102.8505 22.9647 98.8916 21.009 96.2106 C 19.0533 93.5297 14.4408 100.7445 13.0618 97.9674 C 11.6829 95.1903 17.4681 87.8015 16.6629 87.4579 C 15.4663 86.9473 12.9739 89.2759 10.3863 89.9474 C 7.7986 90.6188 12.4072 81.3564 12.4072 81.3564 Z " data-paper-data="{&quot;origPos&quot;:null,&quot;origRot&quot;:0}" fill="#ff6f00" stroke="#b84d00" stroke-width="1.5" stroke-linecap="butt"/><path d="M 7.6029 101.5065 L 7.0211 91.5427 C 7.0211 91.5427 15.5092 97.3145 20.1172 97.5402 C 25.3183 97.7949 34.9828 92.6858 34.9828 92.6858 L 39.1332 101.7907 C 39.1332 101.7907 36.9465 103.997 36.6192 106.524 C 36.1276 110.3201 38.913 113.8659 34.719 115.46 C 30.525 117.0541 33.3402 108.1851 30.7544 108.7531 C 28.1686 109.3212 29.5905 115.8278 27.2157 115.5995 C 24.841 115.3713 26.6543 108.9891 23.4705 108.0531 C 20.2868 107.117 21.0204 115.6487 18.2357 114.2853 C 15.451 112.9218 15.5417 103.538 14.6937 103.7557 C 13.4336 104.0792 12.8742 107.444 11.2303 109.5521 C 9.5864 111.6602 7.6029 101.5065 7.6029 101.5065 Z " data-paper-data="{&quot;origPos&quot;:null,&quot;origRot&quot;:0}" fill="#ff6f00" stroke="#b84d00" stroke-width="1.5" stroke-linecap="butt"/><path d="M 37.9856 76.1401 L 37.9856 143.4372 L 25.938 182.356 " data-paper-data="{&quot;origPos&quot;:null}" fill="none" stroke="#b84d00" stroke-width="3.5" stroke-linecap="round"/><path d="M 38.7888 142.0004 L 50.8364 182.1592 " fill="none" stroke="#b84d00" stroke-width="3.5" stroke-linecap="round"/><path d="M 13.8904 53.2496 C 13.8904 39.2768 25.2176 27.9496 39.1904 27.9496 C 53.1632 27.9496 64.4904 39.2768 64.4904 53.2496 C 64.4904 67.2224 53.1632 78.5496 39.1904 78.5496 C 25.2176 78.5496 13.8904 67.2224 13.8904 53.2496 Z " data-paper-data="{&quot;origPos&quot;:null}" fill="#ffbe8c" stroke="#b84d00" stroke-width="2.5" stroke-linecap="butt"/><path d="M236.30833,109.43845c0,-2.66149 2.15756,-4.81905 4.81905,-4.81905c2.66149,0 4.81905,2.15756 4.81905,4.81905c0,2.66149 -2.15756,4.81905 -4.81905,4.81905c-2.66149,0 -4.81905,-2.15756 -4.81905,-4.81905z" data-paper-data="{&quot;origPos&quot;:null}" fill="#b84d00" stroke="#b8b300" stroke-width="0" stroke-linecap="butt" transform="matrix(1,0,0,1,-202.20209,-62.21263)"/><path d="M250.62896,109.43845c0,-2.66148 2.15757,-4.81905 4.81905,-4.81905c2.66148,0 4.81905,2.15757 4.81905,4.81905c0,2.66148 -2.15757,4.81905 -4.81905,4.81905c-2.66148,0 -4.81905,-2.15757 -4.81905,-4.81905z" data-paper-data="{&quot;origPos&quot;:null}" fill="#b84d00" stroke="#b8b300" stroke-width="0" stroke-linecap="butt" transform="matrix(1,0,0,1,-202.20209,-62.21263)"/><path d="M 36.6824 84.4639 L 20.984 114.0353 " data-paper-data="{&quot;origPos&quot;:null}" fill="none" stroke="#b84d00" stroke-width="3.5" stroke-linecap="round"/><path d="M 54.5713 114.0354 L 38.8729 84.4639 " data-paper-data="{&quot;origPos&quot;:null,&quot;index&quot;:null}" fill="none" stroke="#b84d00" stroke-width="3.5" stroke-linecap="round"/><path d="M 37.0147 62.691 C 37.0147 62.691 43.2912 60.1176 47.3084 60.1176 C 50.8235 60.1176 56.3155 62.691 56.3155 62.691 " data-paper-data="{&quot;origPos&quot;:null,&quot;index&quot;:null}" fill="none" stroke="#b84d00" stroke-width="2.5" stroke-linecap="round"/><path d="M 36.9744 39.7891 L 43.6411 43.9558 " data-paper-data="{&quot;origPos&quot;:null}" fill="none" stroke="#b84d00" stroke-width="2.5" stroke-linecap="round"/><path d="M 55.3077 39.9558 L 48.6411 44.1224 " data-paper-data="{&quot;origPos&quot;:null,&quot;index&quot;:null}" fill="none" stroke="#b84d00" stroke-width="2.5" stroke-linecap="round"/><path d="M203.26426,107.82077c0,0 -0.75518,-6.32817 -0.94881,-11.13752c-0.20409,-5.06931 -0.0703,-14.17531 -0.0703,-14.17531l7.66805,16.71781l13.50593,-0.38971l0.82812,8.13995c0,0 -7.32066,0.96194 -12.13,1.15556c-3.37954,0.13606 -8.853,-0.31078 -8.853,-0.31078z" data-paper-data="{&quot;origPos&quot;:null,&quot;origRot&quot;:0}" fill="#b84d00" stroke="none" stroke-width="0" stroke-linecap="butt" transform="matrix(1,0,0,1,-202.20209,-62.21263)"/></g></g></svg>