<svg version="1.1" xmlns="http://www.w3.org/2000/svg" xmlns:xlink="http://www.w3.org/1999/xlink" width="487.22533" height="319.98236" viewBox="0,0,487.22533,319.98236"><g transform="translate(3.47885,-46.5)"><g data-paper-data="{&quot;isPaintingLayer&quot;:true}" fill-rule="nonzero" stroke-linejoin="miter" stroke-miterlimit="10" stroke-dasharray="" stroke-dashoffset="0" style="mix-blend-mode: normal"><path d="M-3.47884,364.70067v-36.20067h486.17603v36.20067z" data-paper-data="{&quot;origPos&quot;:null}" fill="#1ac000" stroke="none" stroke-width="0" stroke-linecap="butt"/><path d="M-2.62321,151.5v-21h54.12323v21z" data-paper-data="{&quot;origPos&quot;:null}" fill="#707070" stroke="none" stroke-width="0" stroke-linecap="butt"/><path d="M430.50002,147.5v-21h52.80633v21z" data-paper-data="{&quot;origPos&quot;:null}" fill="#707070" stroke="none" stroke-width="0" stroke-linecap="butt"/><path d="M-3.08799,366.48236v-26.98236h486.83448v26.98236z" data-paper-data="{&quot;origPos&quot;:null}" fill="#a16600" stroke="none" stroke-width="0" stroke-linecap="butt"/><path d="M26.50002,338.5h19l-9.5,19z" fill="#1ac000" stroke="#000000" stroke-width="0" stroke-linecap="butt"/><path d="M14.50002,332h19l-9.5,19z" data-paper-data="{&quot;origPos&quot;:null}" fill="#1ac000" stroke="#000000" stroke-width="0" stroke-linecap="butt"/><path d="M241.50002,337h19l-9.5,7z" data-paper-data="{&quot;origPos&quot;:null}" fill="#1ac000" stroke="#000000" stroke-width="0" stroke-linecap="butt"/><path d="M261.50002,337h19l-9.5,12z" data-paper-data="{&quot;origPos&quot;:null}" fill="#1ac000" stroke="#000000" stroke-width="0" stroke-linecap="butt"/><path d="M101.55905,328.5104l67,-117l25,20l61,-137l59,186l21,-16l21,64z" fill="#707070" stroke="#707070" stroke-width="0.5" stroke-linecap="round"/><path d="M176.31715,228.9462c-0.0265,0.0479 -0.0534,0.0956 -0.0809,0.143c0.0527,0.001 0.1054,0.002 0.1581,0.0029c-0.017,-0.0516 -0.0437,-0.0999 -0.0772,-0.1459zM148.59375,248.7446c-2.1438,-1.2862 -0.8575,-3.43 -0.8575,-3.43c3.0194,-5.0324 5.2535,-10.634 8.5,-15.5c0.5202,-0.7797 1.1577,-1.5302 1.8266,-2.2734c-0.1179,-0.2903 -0.1829,-0.6077 -0.1829,-0.9403c0,-0.5719 0.192,-1.099 0.5152,-1.5202l0.7348,-0.9798c-0.1422,-0.3303 0.3694,-0.5638 0.6419,-0.8559l0.1081,-0.1441c0.33,-0.5963 0.397,-1.308 0.6788,-1.9285c1.172,-2.5803 2.7986,-5.5183 4.6635,-7.7866c0.0449,-0.2423 0.1224,-0.439 0.3365,-0.4634l0.4784,-1.1959c0.3545,-0.9495 1.2697,-1.6256 2.3428,-1.6256c0.9645,0 1.8015,0.5462 2.2184,1.3462c1.1119,0.6025 2.1187,1.4297 2.9253,2.3675c1.4597,1.6972 5.4433,3.1468 7.5348,3.9651c2.4595,0.9838 5.4114,2.411 7.3215,4.3212c0.9278,0.9278 1.4372,2.0414 2.5,2.75c0.4667,0.3111 3.402,2.5017 3.2678,2.9822c-0.4604,1.6484 -1.458,3.1331 -2.5275,4.4692c-1.415,1.7678 -5.3392,-0.8674 -7.5037,-2.0667c-0.0974,0.6222 -0.4051,1.452 -0.5351,2.1056c-1.0223,5.1114 -6.0288,7.9801 -10.88,6.5809c-1.2855,-0.3708 -2.4589,-1.1501 -3.75,-1.5c-0.0712,-0.0194 -0.355,-0.0465 -0.7069,-0.0794c0.0595,0.5625 -1.178,1.1761 -1.6146,1.7582c-1.7655,2.354 -4.4024,4.5663 -7.0097,5.7014c-1.1039,0.2208 -3.3555,-0.1927 -4.2403,0.2986c-0.237,0.1315 0.8166,0.0011 0.7678,0.2677c-0.1699,0.9274 -1.3334,1.3334 -2,2l-1,1c-0.4524,0.4524 -1.0774,0.7323 -1.7678,0.7323c-0.2346,0 -0.4617,-0.0323 -0.677,-0.0928c-0.5523,0.2176 -1.2641,0.2436 -2.1092,-0.2635zM177.13175,221.5437c0.0063,0.0187 0.0126,0.0374 0.0188,0.0561c0.0236,-0.0054 0.0472,-0.0108 0.0708,-0.0162c-0.0299,-0.0132 -0.0597,-0.0265 -0.0896,-0.0399z" fill="#ffffff" stroke="none" stroke-width="0.5" stroke-linecap="butt"/><path d="M243.48475,110.7454c0.5322,-0.5687 1.0735,-1.1359 1.611,-1.7069c0.9612,-3.2138 1.0583,-6.8441 2.2649,-9.8851c0.4621,-1.1648 0.5921,-2.9921 1.8077,-3.296c0.9755,-0.2439 1.853,-0.3492 2.6437,-0.3295v-0.8842c0,-1.3808 1.1193,-2.5 2.5,-2.5c1.2289,0 2.2507,0.8866 2.4606,2.0551l0.4909,2.4546l-0.3616,0.0723c-0.0386,0.1489 -0.0776,0.295 -0.0899,0.418c-0.0395,0.3962 -0.0956,0.788 -0.165,1.1764c0.5562,0.8659 1.0012,1.9064 1.3665,3.0833c0.4209,2.1045 1.5039,3.5753 2.4423,5.454c0.9437,1.8893 1.0409,3.9086 1.8077,5.796c0.6165,1.5175 2.0221,2.806 2.3697,4.5618c0.3848,1.9435 -0.2099,4.0264 0.1788,5.9285c0.428,2.0939 1.4344,3.8974 1.5,6.25c0,0.2104 0.0083,0.4176 0.0239,0.6219l0.3327,1.663c0.0687,0.312 0.1453,0.6249 0.2294,0.9376c0.4218,1.2702 0.9858,2.4891 1.392,3.7782c0.2819,0.593 0.5882,1.167 0.9158,1.713c1.0445,1.7854 5.249,7.1245 2.4274,9.2147c-1.3138,0.9733 -2.753,1.8584 -4.3211,2.3215c-0.3997,0.1181 -0.7083,-0.4525 -1,-0.75c-0.2105,-0.2146 -0.4237,-0.4288 -0.6332,-0.6465c-5.105,3.9205 -7.7839,0.7088 -11.8668,-2.3535c-0.3334,-0.25 -0.6048,-0.6182 -1,-0.75c-0.1768,-0.0589 0.4166,0.4167 0.25,0.5c-0.3805,0.1903 -0.9043,0.1021 -1.2138,0.3938c-0.9824,0.9257 -2.8342,1.5459 -4.1078,1.9274c-2.651,0.7943 -4.2468,0.2846 -6.8569,-0.5c-0.4008,-0.1204 -3.9819,-0.1846 -4.0716,-0.3212c-0.3306,-0.5036 -0.6138,-0.9593 -0.8517,-1.3762c-0.1569,0.0652 -0.3139,0.1304 -0.4698,0.1974c-0.4122,0.1774 -0.915,0.7986 -1.25,0.5c-0.3119,-0.278 -0.6068,-0.576 -0.8852,-0.8902c-0.4242,0.6376 -1.2971,1.453 -2.8338,0.9407c-2.3717,-0.7905 -1.5812,-3.1622 -1.5812,-3.1622c2.193,-6.5789 7.2116,-12.1419 10.5506,-18.1379c0.5309,-0.9535 1.1735,-1.8101 1.786,-2.6832M260.79185,145.1285l-0.9798,-0.7349c-0.1445,-0.1084 -0.2882,-0.2137 -0.4313,-0.3161c-0.0214,0.0128 -0.0428,0.0256 -0.0643,0.0384c0.5909,0.523 1.1183,0.9526 1.4066,1.0618c0.0279,0.0105 0.0577,0.019 0.089,0.0256c0,-0.0199 0,-0.0397 0,-0.0595c-0.0067,-0.0051 -0.0135,-0.0102 -0.0202,-0.0153zM237.86125,138.0783c0.2961,-0.2862 0.6019,-0.5783 0.9146,-0.8714c-0.3267,0.2783 -0.6374,0.5667 -0.9146,0.8714zM243.25545,118.8819c0.0265,-0.0523 0.0534,-0.104 0.0808,-0.1553l-0.0413,0.0165M250.79045,129.0235c0.0088,0.0016 0.0176,0.0033 0.0264,0.0049c-0.0069,-0.0107 -0.0139,-0.0214 -0.0208,-0.0321c-0.0019,0.009 -0.0037,0.0181 -0.0056,0.0272z" fill="#ffffff" stroke="none" stroke-width="0.5" stroke-linecap="butt"/><path d="M313.44325,278.4337c-0.9284,-2.3212 1.3927,-3.2497 1.3927,-3.2497c5.2333,-2.0933 9.21,-4.9958 13.1607,-8.9466c1.0802,-1.0801 3.6214,-4.0139 5.3393,-3.5534c3.7562,1.0069 4.1701,1.9888 5.13,5.0809c0.733,3.665 0.6929,7.7332 1.75,11.25c1.1114,3.6977 3.2251,7.1892 3.8873,10.9903h0.1612v2.5c0,1.3807 -1.1193,2.5 -2.5,2.5c-0.6903,0 -1.3153,-0.2798 -1.7677,-0.7322l-1,-1c-0.9107,-0.0338 -2.1329,-2.6684 -2.7323,-3.2678c-0.1006,-0.1007 -0.2058,-0.1991 -0.3153,-0.2932c-1.868,1.2218 -3.7523,2.3513 -5.6132,1.1144c-1.5909,-1.0575 -2.7389,-2.9931 -4.2495,-4.1546c0.0208,0.3249 -0.4752,0.7839 -0.822,0.8334c-1.4872,0.2125 -3,-0.1667 -4.5,-0.25c-0.9541,-0.7156 -2.7378,-3.7051 -2.9745,-3.9809l-1.0022,-0.7517c-0.6205,-0.4549 -1.0233,-1.1891 -1.0233,-2.0174c0,-0.1714 0.0173,-0.3387 0.0501,-0.5004c-0.7575,0.044 -1.8147,-0.1796 -2.3713,-1.5711zM333.76255,269.7673c-0.0003,0.0215 -0.0006,0.0429 -0.001,0.0643c0.0049,0.0022 0.0097,0.0044 0.0145,0.0066c-0.0045,-0.0236 -0.009,-0.0472 -0.0135,-0.0709z" fill="#ffffff" stroke="none" stroke-width="0.5" stroke-linecap="butt"/><path d="M115.50002,67.5v-21h64v21z" data-paper-data="{&quot;origPos&quot;:null}" fill="#707070" stroke="none" stroke-width="0" stroke-linecap="butt"/><path d="M324.50002,69.5v-21h64v21z" data-paper-data="{&quot;origPos&quot;:null}" fill="#707070" stroke="none" stroke-width="0" stroke-linecap="butt"/></g></g></svg>