<svg xmlns="http://www.w3.org/2000/svg" xmlns:xlink="http://www.w3.org/1999/xlink" version="1.1" width="27.12742" height="12.30715" viewBox="0,0,27.12742,12.30715"><g><g data-paper-data="{&quot;isPaintingLayer&quot;:true}" fill-rule="nonzero" stroke-linecap="none" stroke-linejoin="miter" stroke-miterlimit="10" stroke-dasharray="" stroke-dashoffset="0" font-family="none" font-weight="none" font-size="none" text-anchor="none" style="mix-blend-mode: normal"><path d="M 6.871 8.5144 C 6.871 8.5144 1.1884 8.9303 0.6754 5.0574 C 0.5473 1.2728 6.2995 1.3239 6.2995 1.3239 " data-paper-data="{&quot;origPos&quot;:null}" fill="none" stroke="#d9bc00" stroke-width="0.5" stroke-linecap="round"/><path d="M236.54858,173.20197c0,0 -0.95684,-0.66096 -1.54656,-0.6082c-0.60805,0.05439 -1.52257,0.88276 -1.52257,0.88276c0,0 -0.33816,-1.07906 1.24863,-1.73341c1.51846,-0.62616 1.8205,1.45885 1.8205,1.45885z" data-paper-data="{&quot;origPos&quot;:null,&quot;origRot&quot;:0}" fill="#8f7c00" stroke="none" stroke-width="0" stroke-linecap="butt" transform="matrix(1,0,0,1,-227.12435,-171.62584)"/><path d="M246.85071,179.80848c0,1.38071 -2.92737,2.5 -6.53847,2.5c-3.6111,0 -6.53846,-1.11929 -6.53846,-2.5c0,-1.38071 2.92736,-2.5 6.53846,-2.5c3.6111,0 6.53847,1.11929 6.53847,2.5z" data-paper-data="{&quot;origPos&quot;:null}" fill="#a69100" stroke="none" stroke-width="0" stroke-linecap="butt" transform="matrix(1,0,0,1,-227.12435,-171.62584)"/><path d="M232.33888,180.62043v-1.04598h1.38085v1.04598z" data-paper-data="{&quot;origPos&quot;:null}" fill="#a69100" stroke="#a69100" stroke-width="0" stroke-linecap="butt" transform="matrix(1,0,0,1,-227.12435,-171.62584)"/><path d="M230.37593,180.18956l0.54421,-0.97619l1.28872,0.34233l-0.54421,0.97619z" data-paper-data="{&quot;origPos&quot;:null,&quot;origRot&quot;:0}" fill="#a69100" stroke="#a69100" stroke-width="0" stroke-linecap="butt" transform="matrix(1,0,0,1,-227.12435,-171.62584)"/><path d="M228.75469,179.31901l0.992,-0.79068l1.04381,0.62402l-0.992,0.79068z" data-paper-data="{&quot;origPos&quot;:null,&quot;origRot&quot;:0}" fill="#a69100" stroke="#a69100" stroke-width="0" stroke-linecap="butt" transform="matrix(1,0,0,1,-227.12435,-171.62584)"/><path d="M227.62576,178.14377l1.28881,-0.55007l0.72618,0.81073l-1.28882,0.55008z" data-paper-data="{&quot;origPos&quot;:null,&quot;origRot&quot;:0}" fill="#a69100" stroke="#a69100" stroke-width="0" stroke-linecap="butt" transform="matrix(1,0,0,1,-227.12435,-171.62584)"/><path d="M227.12435,176.76468l1.48902,-0.19385l0.25592,0.93667l-1.48902,0.19385z" data-paper-data="{&quot;origPos&quot;:null,&quot;origRot&quot;:0}" fill="#a69100" stroke="#a69100" stroke-width="0" stroke-linecap="butt" transform="matrix(1,0,0,1,-227.12435,-171.62584)"/><path d="M227.34442,175.35499l1.49593,0.16661l-0.21996,0.94101l-1.49593,-0.16662z" data-paper-data="{&quot;origPos&quot;:null,&quot;origRot&quot;:0}" fill="#a69100" stroke="#a69100" stroke-width="0" stroke-linecap="butt" transform="matrix(1,0,0,1,-227.12435,-171.62584)"/><path d="M228.20077,174.00517l1.29457,0.5436l-0.71764,0.81435l-1.29457,-0.5436z" data-paper-data="{&quot;origPos&quot;:null,&quot;origRot&quot;:0}" fill="#a69100" stroke="#a69100" stroke-width="0" stroke-linecap="butt" transform="matrix(1,0,0,1,-227.12435,-171.62584)"/><path d="M229.7542,173.07145l0.92537,0.82827l-1.09345,0.58211l-0.92536,-0.82827z" data-paper-data="{&quot;origPos&quot;:null,&quot;origRot&quot;:0}" fill="#a69100" stroke="#a69100" stroke-width="0" stroke-linecap="butt" transform="matrix(1,0,0,1,-227.12435,-171.62584)"/><path d="M231.67422,172.56776l0.46304,0.99595l-1.31479,0.29128l-0.46305,-0.99595z" data-paper-data="{&quot;origPos&quot;:null,&quot;origRot&quot;:0}" fill="#a69100" stroke="#a69100" stroke-width="0" stroke-linecap="butt" transform="matrix(1,0,0,1,-227.12435,-171.62584)"/><path d="M233.71547,172.51276l0.011,1.04595l-1.38081,0.00692l-0.011,-1.04595z" data-paper-data="{&quot;origPos&quot;:null,&quot;origRot&quot;:0}" fill="#a69100" stroke="#a69100" stroke-width="0" stroke-linecap="butt" transform="matrix(1,0,0,1,-227.12435,-171.62584)"/><path d="M 5.4 5.7659 L 7.4 5.7659 L 8.313 6.679 " data-paper-data="{&quot;origPos&quot;:null}" fill="none" stroke="#a69100" stroke-width="0.75" stroke-linecap="round"/><path d="M 8.313 9.8529 L 7.4 10.7659 L 5.4 10.7659 " data-paper-data="{&quot;origPos&quot;:null,&quot;index&quot;:null}" fill="none" stroke="#a69100" stroke-width="0.75" stroke-linecap="round"/><path d="M 7.0377 4.7659 L 9.7043 4.7659 L 10.9217 5.9833 " data-paper-data="{&quot;origPos&quot;:null}" fill="none" stroke="#a69100" stroke-width="0.75" stroke-linecap="round"/><path d="M 11.2695 10.4616 L 10.0522 11.679 L 7.3855 11.679 " data-paper-data="{&quot;origPos&quot;:null,&quot;index&quot;:null}" fill="none" stroke="#a69100" stroke-width="0.75" stroke-linecap="round"/><path d="M 20.1391 10.679 L 18.1391 10.679 L 17.2261 9.7659 " data-paper-data="{&quot;origPos&quot;:null,&quot;index&quot;:null}" fill="none" stroke="#a69100" stroke-width="0.75" stroke-linecap="round"/><path d="M 18.0666 11.592 L 15.4 11.592 L 14.1826 10.3746 " data-paper-data="{&quot;origPos&quot;:null,&quot;index&quot;:null}" fill="none" stroke="#a69100" stroke-width="0.75" stroke-linecap="round"/><path d="M 17.5304 6.3311 L 18.4435 5.4181 L 20.4435 5.4181 " data-paper-data="{&quot;origPos&quot;:null,&quot;index&quot;:null}" fill="none" stroke="#a69100" stroke-width="0.75" stroke-linecap="round"/><path d="M 14.4869 5.7225 L 15.7043 4.5051 L 18.371 4.5051 " data-paper-data="{&quot;origPos&quot;:null,&quot;index&quot;:null}" fill="none" stroke="#a69100" stroke-width="0.75" stroke-linecap="round"/><path d="M246.31225,179.82687c0,-1.06208 0.861,-1.92308 1.92308,-1.92308c1.06208,0 1.92308,0.86099 1.92308,1.92308c0,1.06208 -0.86099,1.92308 -1.92308,1.92308c-1.06208,0 -1.92308,-0.861 -1.92308,-1.92308z" data-paper-data="{&quot;origPos&quot;:null}" fill="#a69100" stroke="none" stroke-width="0" stroke-linecap="butt" transform="matrix(1,0,0,1,-227.12435,-171.62584)"/><path d="M 22.6608 5.8529 L 21.9217 6.592 " data-paper-data="{&quot;origPos&quot;:null}" fill="none" stroke="#a69100" stroke-width="0.75" stroke-linecap="round"/><path d="M 21.5739 9.8529 L 22.4217 10.7007 " data-paper-data="{&quot;origPos&quot;:null}" fill="none" stroke="#a69100" stroke-width="0.75" stroke-linecap="round"/><path d="M249.33133,182.95163l0.24261,-1.32581l1.83903,0.33653l-0.24261,1.32581z" data-paper-data="{&quot;origRot&quot;:0,&quot;origPos&quot;:null}" fill="#8f7c00" stroke="none" stroke-width="0" stroke-linecap="butt" transform="matrix(1,0,0,1,-227.12435,-171.62584)"/><path d="M251.43123,176.36495l0.24261,1.32581l-1.83902,0.33653l-0.24262,-1.32581z" data-paper-data="{&quot;origRot&quot;:0,&quot;origPos&quot;:null,&quot;index&quot;:null}" fill="#8f7c00" stroke="none" stroke-width="0" stroke-linecap="butt" transform="matrix(1,0,0,1,-227.12435,-171.62584)"/><path d="M252.63223,176.81413l1.61954,1.3323c0,0 -3.46919,0.07736 -3.41661,-1.26087c0.05267,-1.34061 3.41661,-1.26087 3.41661,-1.26087z" data-paper-data="{&quot;origPos&quot;:null}" fill="#8f7c00" stroke="none" stroke-width="0" stroke-linecap="butt" transform="matrix(1,0,0,1,-227.12435,-171.62584)"/><path d="M254.18034,183.93208c0,0 -3.36393,0.07973 -3.41661,-1.26087c-0.05258,-1.33823 3.41661,-1.26087 3.41661,-1.26087l-1.61954,1.3323z" data-paper-data="{&quot;origPos&quot;:null,&quot;index&quot;:null}" fill="#8f7c00" stroke="none" stroke-width="0" stroke-linecap="butt" transform="matrix(1,0,0,1,-227.12435,-171.62584)"/><path d="M248.47981,178.98114c0,-0.32058 0.25988,-0.58046 0.58046,-0.58046c0.32058,0 0.58046,0.25988 0.58046,0.58046c0,0.32058 -0.25988,0.58046 -0.58046,0.58046c-0.32058,0 -0.58046,-0.25988 -0.58046,-0.58046z" data-paper-data="{&quot;origPos&quot;:null}" fill="#e40000" stroke="none" stroke-width="0" stroke-linecap="butt" transform="matrix(1,0,0,1,-227.12435,-171.62584)"/><path d="M248.47981,180.49838c0,-0.32058 0.25988,-0.58046 0.58046,-0.58046c0.32058,0 0.58046,0.25988 0.58046,0.58046c0,0.32058 -0.25988,0.58046 -0.58046,0.58046c-0.32058,0 -0.58046,-0.25988 -0.58046,-0.58046z" data-paper-data="{&quot;origPos&quot;:null}" fill="#e40000" stroke="none" stroke-width="0" stroke-linecap="butt" transform="matrix(1,0,0,1,-227.12435,-171.62584)"/></g></g></svg>