<svg xmlns="http://www.w3.org/2000/svg" xmlns:xlink="http://www.w3.org/1999/xlink" version="1.1" width="109.73329162597656" height="172.61978149414062" viewBox="0 -2.0000076293945312 109.73329162597656 172.61978149414062"><g><g data-paper-data="{&quot;isPaintingLayer&quot;:true}" fill-rule="nonzero" stroke-linecap="none" stroke-linejoin="miter" stroke-miterlimit="10" stroke-dasharray="" stroke-dashoffset="0" font-family="none" font-weight="none" font-size="none" text-anchor="none" style="mix-blend-mode: normal"><g><path d="M249.05754,238.17785c-1.51378,0.76792 -4.05015,0.22069 -5.66514,-1.22228c-1.61499,-1.44297 -1.69704,-3.23526 -0.18327,-4.00318c1.51378,-0.76792 4.05015,-0.22069 5.66514,1.22228c1.61499,1.44297 1.69704,3.23526 0.18327,4.00318z" data-paper-data="{&quot;origRot&quot;:0,&quot;origPos&quot;:null}" fill="#019a00" stroke="none" stroke-width="0" stroke-linecap="butt" transform="matrix(1,0,0,1,-213.13334,-76.19011)"/><path d="M 28.7043 146.5657 C 28.7043 146.5657 33.0546 145.0084 35.6774 146.5365 C 37.8234 147.7868 40.427 152.7818 40.427 152.7818 " data-paper-data="{&quot;origPos&quot;:null,&quot;index&quot;:null,&quot;origRot&quot;:0}" fill="none" stroke="#79603c" stroke-width="4" stroke-linecap="round"/><path d="M258.1495,230.09637c2.06567,1.16442 3.30436,2.85156 2.76669,3.76834c-0.53767,0.91678 -2.64811,0.71604 -4.71378,-0.44839c-2.06567,-1.16442 -3.30437,-2.85156 -2.76669,-3.76834c0.53768,-0.91678 2.64811,-0.71604 4.71379,0.44839z" data-paper-data="{&quot;origRot&quot;:0,&quot;origPos&quot;:null}" fill="#019a00" stroke="none" stroke-width="0" stroke-linecap="butt" transform="matrix(1,0,0,1,-213.13334,-76.19011)"/><path d="M 40.2357 152.0566 C 40.2357 152.0566 40.968 156.7695 39.7177 158.9155 C 38.1895 161.5383 33.6503 163.3596 33.6503 163.3596 " data-paper-data="{&quot;origPos&quot;:null,&quot;origRot&quot;:0}" fill="none" stroke="#79603c" stroke-width="4" stroke-linecap="round"/><g data-paper-data="{&quot;origPos&quot;:null}"><path d="M276.32125,156.80577c0.88547,0.87911 -0.42584,1.86338 -2.31211,2.9694c-1.88627,1.10602 -3.2582,4.28997 -4.14367,3.41087c-0.88547,-0.87911 -0.07417,-4.36337 1.8121,-5.4694c1.88627,-1.10602 3.75821,-1.78998 4.64368,-0.91087z" data-paper-data="{&quot;origPos&quot;:null,&quot;origRot&quot;:0}" fill="#019a00" stroke="none" stroke-width="0" stroke-linecap="butt" transform="matrix(1,0,0,1,-213.13334,-76.19011)"/><path d="M282.88333,156.16928c0,1.13908 -1.34314,2.0625 -3,2.0625c-1.65686,0 -3,-0.92342 -3,-2.0625c0,-1.13908 1.34314,-2.0625 3,-2.0625c1.65686,0 3,0.92342 3,2.0625z" data-paper-data="{&quot;origPos&quot;:null}" fill="#019a00" stroke="none" stroke-width="0" stroke-linecap="butt" transform="matrix(1,0,0,1,-213.13334,-76.19011)"/><path d="M277.2521,145.11819c0.76247,1.70088 0.76774,3.35443 0.0118,3.69331c-0.75594,0.33888 -1.98686,-0.76525 -2.74933,-2.46614c-0.76247,-1.70088 -0.76774,-3.35443 -0.0118,-3.69331c0.75594,-0.33888 1.98686,0.76525 2.74933,2.46614z" data-paper-data="{&quot;origRot&quot;:0}" fill="#019a00" stroke="none" stroke-width="0" stroke-linecap="butt" transform="matrix(1,0,0,1,-213.13334,-76.19011)"/><path d="M285.06122,140.46224c0.64757,0.90166 0.26988,2.62071 -0.84361,3.83962c-1.11349,1.21891 -2.5411,1.47609 -3.18867,0.57443c-0.64757,-0.90166 -0.26988,-2.62071 0.84361,-3.83962c1.11349,-1.21891 2.5411,-1.47609 3.18867,-0.57443z" data-paper-data="{&quot;origRot&quot;:0,&quot;origPos&quot;:null}" fill="#019a00" stroke="none" stroke-width="0" stroke-linecap="butt" transform="matrix(1,0,0,1,-213.13334,-76.19011)"/><path d="M 64 83.5833 C 64 83.5833 63.4344 77.9154 63.9257 75.5678 C 64.6051 72.3217 67 69.25 67 69.25 " data-paper-data="{&quot;origPos&quot;:null}" fill="none" stroke="#79603c" stroke-width="4" stroke-linecap="round"/><path d="M 23.5 107.25 C 23.5 107.25 28.1035 106.8536 30.25 109 C 32.0062 110.7562 33.75 116.25 33.75 116.25 " data-paper-data="{&quot;origPos&quot;:null,&quot;index&quot;:null}" fill="none" stroke="#79603c" stroke-width="4" stroke-linecap="round"/><path d="M 23 90.25 C 23 90.25 27.6035 89.8536 29.75 92 C 31.5062 93.7562 32.75 99.25 32.75 99.25 " data-paper-data="{&quot;origPos&quot;:null,&quot;index&quot;:null}" fill="none" stroke="#79603c" stroke-width="4" stroke-linecap="round"/><path d="M 27.7952 62.4039 L 27.7952 129.701 L 15.7476 168.6198 " data-paper-data="{&quot;origPos&quot;:null}" fill="none" stroke="#000000" stroke-width="3.5" stroke-linecap="round"/><path d="M240.1495,219.59637c2.06567,1.16442 3.30437,2.85156 2.76669,3.76834c-0.53768,0.91678 -2.64811,0.71604 -4.71379,-0.44839c-2.06567,-1.16442 -3.30437,-2.85156 -2.76669,-3.76834c0.53768,-0.91678 2.64811,-0.71604 4.71379,0.44839z" data-paper-data="{&quot;origRot&quot;:0,&quot;origPos&quot;:null}" fill="#019a00" stroke="none" stroke-width="0" stroke-linecap="butt" transform="matrix(1,0,0,1,-213.13334,-76.19011)"/><path d="M241.66774,187.11522c1.80992,-0.67872 3.70946,-0.07611 4.24274,1.34597c0.53328,1.42208 -0.50164,3.12512 -2.31156,3.80384c-1.80992,0.67872 -3.70946,0.0761 -4.24274,-1.34598c-0.53328,-1.42208 0.50164,-3.12511 2.31156,-3.80383z" data-paper-data="{&quot;origRot&quot;:0}" fill="#019a00" stroke="none" stroke-width="0" stroke-linecap="butt" transform="matrix(1,0,0,1,-213.13334,-76.19011)"/><path d="M238.38333,181.81512c0,1.31168 -1.95875,2.375 -4.375,2.375c-2.41625,0 -4.375,-1.06332 -4.375,-2.375c0,-1.31168 1.95875,-2.375 4.375,-2.375c2.41625,0 4.375,1.06332 4.375,2.375z" fill="#019a00" stroke="none" stroke-width="0" stroke-linecap="butt" transform="matrix(1,0,0,1,-213.13334,-76.19011)"/><path d="M254.13333,192.69012c0,1.24264 -1.84682,2.25 -4.125,2.25c-2.27818,0 -4.125,-1.00736 -4.125,-2.25c0,-1.24264 1.84682,-2.25 4.125,-2.25c2.27818,0 4.125,1.00736 4.125,2.25z" fill="#019a00" stroke="none" stroke-width="0" stroke-linecap="butt" transform="matrix(1,0,0,1,-213.13334,-76.19011)"/><path d="M239.20555,200.13398c-1.21449,1.51666 -3.79837,1.81989 -5.77125,0.67729c-1.97288,-1.1426 -2.58767,-3.29836 -1.37318,-4.81502c1.21449,-1.51666 3.79837,-1.81989 5.77125,-0.67729c1.97288,1.1426 2.58767,3.29836 1.37318,4.81502z" data-paper-data="{&quot;origRot&quot;:0,&quot;origPos&quot;:null}" fill="#019a00" stroke="none" stroke-width="0" stroke-linecap="butt" transform="matrix(1,0,0,1,-213.13334,-76.19011)"/><path d="M232.71921,169.98844c2.36111,-2.57561 5.19618,-3.78977 6.3323,-2.7119c1.13612,1.07788 0.14308,4.03962 -2.21803,6.61523c-2.36111,2.57561 -5.19618,3.78978 -6.3323,2.7119c-1.13612,-1.07788 -0.14308,-4.03962 2.21803,-6.61524z" data-paper-data="{&quot;origRot&quot;:0,&quot;origPos&quot;:null}" fill="#019a00" stroke="none" stroke-width="0" stroke-linecap="butt" transform="matrix(1,0,0,1,-213.13334,-76.19011)"/><path d="M250.42256,165.08684c2.32854,2.6051 3.2553,5.54668 2.06999,6.5702c-1.18532,1.02353 -4.03387,-0.25858 -6.36241,-2.86368c-2.32854,-2.6051 -3.2553,-5.54668 -2.06999,-6.57021c1.18532,-1.02353 4.03387,0.25859 6.36241,2.86368z" data-paper-data="{&quot;origRot&quot;:0,&quot;origPos&quot;:null}" fill="#019a00" stroke="none" stroke-width="0" stroke-linecap="butt" transform="matrix(1,0,0,1,-213.13334,-76.19011)"/><path d="M248.17255,175.07834c2.12225,-1.05779 4.21376,-1.13773 4.67152,-0.17855c0.45775,0.95918 -0.89158,2.59428 -3.01383,3.65207c-2.12225,1.05779 -4.21377,1.13773 -4.67152,0.17855c-0.45775,-0.95918 0.89158,-2.59428 3.01383,-3.65207z" data-paper-data="{&quot;origRot&quot;:0,&quot;origPos&quot;:null}" fill="#019a00" stroke="none" stroke-width="0" stroke-linecap="butt" transform="matrix(1,0,0,1,-213.13334,-76.19011)"/><path d="M 28.5984 128.2643 L 40.646 168.423 " data-paper-data="{&quot;origPos&quot;:null}" fill="none" stroke="#000000" stroke-width="3.5" stroke-linecap="round"/><path d="M 85.3809 56.9659 C 85.3809 56.9659 68.6433 75.044 58.1438 77.6542 C 46.5161 80.5448 28.6825 71.0611 28.6825 71.0611 " data-paper-data="{&quot;origPos&quot;:null,&quot;index&quot;:null}" fill="none" stroke="#000000" stroke-width="3.5" stroke-linecap="round"/><path d="M 3.7 45.1802 C 3.7 31.2074 15.0272 19.8802 29 19.8802 C 42.9728 19.8802 54.3 31.2074 54.3 45.1802 C 54.3 59.153 42.9728 70.4802 29 70.4802 C 15.0272 70.4802 3.7 59.153 3.7 45.1802 Z " data-paper-data="{&quot;origPos&quot;:null}" fill="#d4d4d4" stroke="#000000" stroke-width="2.5" stroke-linecap="butt"/><path d="M 46.8095 36.0183 L 39.873 39.304 " data-paper-data="{&quot;origPos&quot;:null}" fill="none" stroke="#000000" stroke-width="2.5" stroke-linecap="round"/><g data-paper-data="{&quot;origPos&quot;:null}"><g data-paper-data="{&quot;origPos&quot;:null}"><path d="M 65.7759 51.1397 L 65.7759 44.5745 " data-paper-data="{&quot;origPos&quot;:null}" fill="none" stroke="#767676" stroke-width="1" stroke-linecap="round"/><path d="M 52.8178 50.5044 L 52.8178 43.9392 " fill="none" stroke="#767676" stroke-width="1" stroke-linecap="round"/><path d="M257.90812,122.67068c0,0 -0.44683,-2.71173 -0.44683,-4.44737c0,-1.81829 0.44683,-4.65915 0.44683,-4.65915c0,0 8.30972,1.0589 13.62836,1.0589c5.7546,0 14.74544,-1.0589 14.74544,-1.0589c0,0 0.44683,2.92351 0.44683,4.65915c0,1.81829 -0.44683,4.44737 -0.44683,4.44737c0,0 -8.81646,-1.0589 -14.74544,-1.0589c-5.14426,0 -13.62836,1.0589 -13.62836,1.0589z" data-paper-data="{&quot;origPos&quot;:null}" fill="#bda593" stroke="none" stroke-width="0" stroke-linecap="butt" transform="matrix(1,0,0,1,-213.13334,-76.19011)"/></g><path d="M237.66666,151.00675l3.12782,-18.67895c0,0 3.0793,-1.04772 4.44962,-2.28763c1.31516,-1.18999 2.43158,-3.93869 2.43158,-3.93869h73.19098v5.92982c0,0 -33.1615,-1.20254 -50.98789,1.69816c-2.34089,0.38091 -3.45368,3.75418 -3.45368,3.75418c0,0 -10.64901,1.20388 -12.80655,4.03538c-2.15754,2.8315 -3.75338,9.48772 -3.75338,9.48772z" data-paper-data="{&quot;origPos&quot;:null}" fill="#bc8860" stroke="none" stroke-width="NaN" stroke-linecap="butt" transform="matrix(1,0,0,1,-213.13334,-76.19011)"/><path d="M283.61948,133.30758l-0.02595,-2.3296l32.83096,-0.09583l0.02595,2.3296z" data-paper-data="{&quot;origPos&quot;:null,&quot;origRot&quot;:0}" fill="#bda593" stroke="none" stroke-width="0" stroke-linecap="butt" transform="matrix(1,0,0,1,-213.13334,-76.19011)"/></g><path d="M 40.127 67.2992 C 40.127 67.2992 17.9084 81.4911 14.7218 71.6311 C 13.2365 67.0354 23.4921 70.7278 23.4921 70.7278 " data-paper-data="{&quot;origPos&quot;:null}" fill="none" stroke="#000000" stroke-width="3.5" stroke-linecap="round"/><path d="M247.72685,91.2634c0.86549,3.95653 0.1821,7.4669 -1.5264,7.84064c-1.7085,0.37373 -3.79514,-2.53069 -4.66063,-6.48722c-0.86549,-3.95653 -0.1821,-7.46691 1.5264,-7.84064c1.7085,-0.37373 3.79514,2.5307 4.66063,6.48723z" data-paper-data="{&quot;origRot&quot;:0,&quot;origPos&quot;:null}" fill="#019a00" stroke="none" stroke-width="0" stroke-linecap="butt" transform="matrix(1,0,0,1,-213.13334,-76.19011)"/><path d="M242.12827,115.12605c-0.7619,1.84284 -3.91432,2.58194 -7.04113,1.65082c-3.12681,-0.93112 -5.04396,-3.17987 -4.28206,-5.02271c0.7619,-1.84284 3.91431,-2.58194 7.04113,-1.65082c3.12681,0.93112 5.04397,3.17987 4.28207,5.02271z" data-paper-data="{&quot;origPos&quot;:null,&quot;origRot&quot;:0}" fill="#019a00" stroke="none" stroke-width="0" stroke-linecap="butt" transform="matrix(1,0,0,1,-213.13334,-76.19011)"/><path d="M223.69733,125.73103c0.80933,2.73629 0.39209,5.27195 -0.93192,5.66357c-1.32401,0.39161 -3.05343,-1.50913 -3.86275,-4.24542c-0.80933,-2.73629 -0.39208,-5.27196 0.93193,-5.66357c1.32401,-0.39161 3.05342,1.50913 3.86274,4.24542z" data-paper-data="{&quot;origRot&quot;:0,&quot;origPos&quot;:null}" fill="#019a00" stroke="none" stroke-width="0" stroke-linecap="butt" transform="matrix(1,0,0,1,-213.13334,-76.19011)"/><path d="M256.39351,103.93006c0.86549,3.95653 0.1821,7.4669 -1.5264,7.84064c-1.7085,0.37373 -3.79514,-2.53069 -4.66063,-6.48722c-0.86549,-3.95653 -0.18209,-7.4669 1.52641,-7.84064c1.7085,-0.37373 3.79513,2.53069 4.66062,6.48722z" data-paper-data="{&quot;origRot&quot;:0,&quot;origPos&quot;:null}" fill="#019a00" stroke="none" stroke-width="0" stroke-linecap="butt" transform="matrix(1,0,0,1,-213.13334,-76.19011)"/><path d="M233.25828,104.7113c-1.16372,1.61935 -4.40163,1.61677 -7.23207,-0.00576c-2.83043,-1.62253 -4.18156,-4.25061 -3.01784,-5.86996c1.16372,-1.61935 4.40163,-1.61677 7.23206,0.00576c2.83043,1.62253 4.18157,4.2506 3.01784,5.86996z" data-paper-data="{&quot;origPos&quot;:null,&quot;origRot&quot;:0}" fill="#019a00" stroke="none" stroke-width="0" stroke-linecap="butt" transform="matrix(1,0,0,1,-213.13334,-76.19011)"/><path d="M234.69933,129.30459c2.057,1.97764 2.94878,4.38771 1.99186,5.38303c-0.95692,0.99532 -3.40018,0.19899 -5.45718,-1.77865c-2.057,-1.97764 -2.94878,-4.38771 -1.99186,-5.38303c0.95692,-0.99532 3.40018,-0.19899 5.45718,1.77865z" data-paper-data="{&quot;origRot&quot;:0,&quot;origPos&quot;:null}" fill="#019a00" stroke="none" stroke-width="0" stroke-linecap="butt" transform="matrix(1,0,0,1,-213.13334,-76.19011)"/><path d="M 2 56.4167 C 2 56.4167 15.0064 57.3284 16.5783 50.9789 C 18.5657 42.9511 15.8837 33.5815 20.9286 27.0283 C 26.4201 19.895 42.3333 21.0833 42.3333 21.0833 " data-paper-data="{&quot;origPos&quot;:null}" fill="none" stroke="#79603c" stroke-width="4" stroke-linecap="round"/><path d="M 32.75 98.5 C 32.75 98.5 32.2562 103.2438 30.5 105 C 28.3535 107.1465 23.5 107.75 23.5 107.75 " data-paper-data="{&quot;origPos&quot;:null}" fill="none" stroke="#79603c" stroke-width="4" stroke-linecap="round"/><path d="M 33.5 116.5 C 33.5 116.5 33.1784 120.5843 31.5639 122.3065 C 29.9494 124.0286 27.8188 122.866 26 124.5 C 24.1812 126.134 23 130 23 130 " data-paper-data="{&quot;origPos&quot;:null}" fill="none" stroke="#79603c" stroke-width="4" stroke-linecap="round"/><path d="M252.11939,211.92827c2.70528,-1.38697 5.38539,-1.5199 5.98619,-0.29691c0.6008,1.22299 -1.10521,3.33879 -3.81049,4.72576c-2.70528,1.38697 -5.38539,1.5199 -5.98619,0.29691c-0.6008,-1.22299 1.10521,-3.33879 3.81049,-4.72576z" data-paper-data="{&quot;origRot&quot;:0,&quot;origPos&quot;:null}" fill="#019a00" stroke="none" stroke-width="0" stroke-linecap="butt" transform="matrix(1,0,0,1,-213.13334,-76.19011)"/><path d="M246.74275,214.37187c0.82002,2.22496 0.67137,4.31271 -0.33201,4.66313c-1.00339,0.35041 -2.48156,-1.16921 -3.30158,-3.39417c-0.82002,-2.22496 -0.67138,-4.31271 0.33201,-4.66313c1.00339,-0.35041 2.48157,1.16921 3.30159,3.39417z" data-paper-data="{&quot;origRot&quot;:0,&quot;origPos&quot;:null}" fill="#019a00" stroke="none" stroke-width="0" stroke-linecap="butt" transform="matrix(1,0,0,1,-213.13334,-76.19011)"/><path d="M 35.5952 135.4407 C 35.5952 135.4407 36.1494 140.459 34.8991 142.605 C 33.371 145.2278 28.8318 147.0491 28.8318 147.0491 " data-paper-data="{&quot;origPos&quot;:null,&quot;origRot&quot;:0}" fill="none" stroke="#79603c" stroke-width="4" stroke-linecap="round"/><g data-paper-data="{&quot;origPos&quot;:null}"><path d="M265.63333,91.87783c0,6.82795 -10.35342,12.3631 -23.125,12.3631c-12.77158,0 -23.125,-5.53515 -23.125,-12.3631c0,-6.82795 10.35342,-12.3631 23.125,-12.3631c12.77158,0 23.125,5.53515 23.125,12.3631z" fill="#ffd035" stroke="none" stroke-width="0" stroke-linecap="butt" transform="matrix(1,0,0,1,-213.13334,-76.19011)"/><path d="M261.38333,93.84555c0,5.37542 -8.73045,9.73306 -19.5,9.73306c-10.76955,0 -19.5,-4.35764 -19.5,-9.73306c0,-5.37542 8.73045,-9.73306 19.5,-9.73306c10.76955,0 19.5,4.35764 19.5,9.73306z" data-paper-data="{&quot;origPos&quot;:null}" fill="#ffdf74" stroke="none" stroke-width="0" stroke-linecap="butt" transform="matrix(1,0,0,1,-213.13334,-76.19011)"/><path d="M 12.1792 24.099 C 12.1792 24.099 8.5146 20.0572 7.4508 17.3404 C 6.6186 15.2152 7.3208 11.6919 7.3208 11.6919 " data-paper-data="{&quot;origPos&quot;:null,&quot;origRot&quot;:0}" fill="none" stroke="#ba8e00" stroke-width="2.5" stroke-linecap="round"/><path d="M 6 16.0715 C 6 16.0715 11.9141 13.2496 16.1795 11.8673 C 22.5488 9.8033 33.25 8.7861 33.25 8.7861 " data-paper-data="{&quot;origPos&quot;:null,&quot;index&quot;:null}" fill="none" stroke="#b08700" stroke-width="2.5" stroke-linecap="round"/><path d="M 24.75 4.5915 C 24.75 4.5915 35.4512 5.6086 41.8205 7.6727 C 46.0859 9.055 52 11.8769 52 11.8769 " data-paper-data="{&quot;origPos&quot;:null,&quot;index&quot;:null}" fill="none" stroke="#c19400" stroke-width="2.5" stroke-linecap="round"/><path d="M 10 6.7992 C 10 6.7992 18.4007 3.3891 23.2975 2.6196 C 29.9134 1.5798 39.5 2.163 39.5 2.163 " data-paper-data="{&quot;origPos&quot;:null,&quot;index&quot;:null}" fill="none" stroke="#b08700" stroke-width="2.5" stroke-linecap="round"/><path d="M 13.25 10.773 C 13.25 10.773 20.1354 6.5765 26.1426 5.021 C 33.1117 3.2164 46.5 2.163 46.5 2.163 " data-paper-data="{&quot;origPos&quot;:null,&quot;index&quot;:null}" fill="none" stroke="#715600" stroke-width="2.5" stroke-linecap="round"/><path d="M 7 9.89 C 7 9.89 26.6902 8.4394 34.3326 9.3479 C 41.9105 10.2487 46 14.5261 46 14.5261 " data-paper-data="{&quot;origPos&quot;:null,&quot;index&quot;:null}" fill="none" stroke="#9b7700" stroke-width="2.5" stroke-linecap="round"/><path d="M 30.75 21.6485 C 30.75 21.6485 20.0488 20.6313 13.6795 18.5673 C 9.4141 17.185 3.5 14.3631 3.5 14.3631 " data-paper-data="{&quot;origPos&quot;:null}" fill="none" stroke="#bd9100" stroke-width="2.5" stroke-linecap="round"/><path d="M 49.5 18.5577 C 49.5 18.5577 43.5859 21.3796 39.3205 22.7619 C 32.9512 24.826 22.25 25.8431 22.25 25.8431 " data-paper-data="{&quot;origPos&quot;:null,&quot;index&quot;:null}" fill="none" stroke="#ffc400" stroke-width="2.5" stroke-linecap="round"/><path d="M 37 28.2716 C 37 28.2716 27.4134 28.8548 20.7975 27.815 C 15.9007 27.0455 7.5 23.6354 7.5 23.6354 " data-paper-data="{&quot;origPos&quot;:null}" fill="none" stroke="#edb700" stroke-width="2.5" stroke-linecap="round"/><path d="M 44 28.2716 C 44 28.2716 30.6117 27.2182 23.6426 25.4136 C 17.6354 23.8581 10.75 19.6616 10.75 19.6616 " data-paper-data="{&quot;origPos&quot;:null}" fill="none" stroke="#daa700" stroke-width="2.5" stroke-linecap="round"/><path d="M 43.5 15.9085 C 43.5 15.9085 39.4105 20.1859 31.8326 21.0867 C 24.1903 21.9952 4.5 20.5446 4.5 20.5446 " data-paper-data="{&quot;origPos&quot;:null}" fill="none" stroke="#edb700" stroke-width="2.5" stroke-linecap="round"/><path d="M 7.75 20.7654 C 7.75 20.7654 5.6102 17.3961 6.1607 14.533 C 6.4882 12.8297 10 9.0646 10 9.0646 " data-paper-data="{&quot;origPos&quot;:null}" fill="none" stroke="#daa700" stroke-width="2.5" stroke-linecap="round"/><path d="M 11.25 21.6485 C 11.25 21.6485 10.8174 17.2832 11.5005 14.9132 C 12.1833 12.5445 14.75 9.5062 14.75 9.5062 " data-paper-data="{&quot;origPos&quot;:null}" fill="none" stroke="#ba8e00" stroke-width="2.5" stroke-linecap="round"/><path d="M 49.3587 16.3492 C 49.3587 16.3492 48.9066 20.1317 47.3948 22.2206 C 45.882 24.3107 41.6085 27.0575 41.6085 27.0575 " data-paper-data="{&quot;origPos&quot;:null,&quot;index&quot;:null,&quot;origRot&quot;:0}" fill="none" stroke="#ba8e00" stroke-width="2.5" stroke-linecap="round"/><path d="M 40.7719 7.99 C 40.7719 7.99 47.1702 10.5888 48.3197 11.8124 C 50.6108 14.2511 51.9714 19.9115 51.9714 19.9115 " data-paper-data="{&quot;origPos&quot;:null,&quot;index&quot;:null,&quot;origRot&quot;:0}" fill="none" stroke="#a47e00" stroke-width="2.5" stroke-linecap="round"/><path d="M 46.5 16.5708 C 46.5 16.5708 45.715 18.6404 44.8926 19.6824 C 43.471 21.4836 40.75 23.8562 40.75 23.8562 " data-paper-data="{&quot;origPos&quot;:null}" fill="none" stroke="#daa700" stroke-width="2.5" stroke-linecap="round"/></g><g data-paper-data="{&quot;origPos&quot;:null}" stroke-linecap="butt"><path d="M220.75833,83.06511c0,-2.41625 1.95875,-5.125 4.375,-5.125c2.41625,0 4.375,1.95875 4.375,4.375c0,2.1414 0.47142,3.77617 2.11141,5.15312c1.71275,1.43805 6.025,2.38932 6.025,2.38932c0,0 -0.62679,4.57797 -7.01798,4.42967c-6.59852,-0.15311 -3.39101,-7.59711 -5.49343,-7.59711c-2.41625,0 -4.375,-1.20875 -4.375,-3.625z" data-paper-data="{&quot;origPos&quot;:null}" fill="#b65224" stroke-width="NaN" stroke="none" transform="matrix(1,0,0,1,-213.13334,-76.19011)"/><path d="M217.84593,84.87551l3.30114,-3.85592l0.76815,3.7981z" data-paper-data="{&quot;origPos&quot;:null,&quot;origRot&quot;:0}" fill="#cc7529" stroke-width="0" stroke="none" transform="matrix(1,0,0,1,-213.13334,-76.19011)"/><path d="M222.44583,80.50261c0,-0.62132 0.50368,-1.125 1.125,-1.125c0.62132,0 1.125,0.50368 1.125,1.125c0,0.62132 -0.50368,1.125 -1.125,1.125c-0.62132,0 -1.125,-0.50368 -1.125,-1.125z" data-paper-data="{&quot;origPos&quot;:null}" fill="#000000" stroke-width="0" stroke="none" transform="matrix(1,0,0,1,-213.13334,-76.19011)"/></g><g data-paper-data="{&quot;origPos&quot;:null,&quot;index&quot;:null}" stroke-linecap="butt"><path d="M256.48234,84.94011c-2.10242,0 1.10509,7.444 -5.49343,7.59711c-6.3912,0.1483 -7.01798,-4.42967 -7.01798,-4.42967c0,0 4.31224,-0.95127 6.025,-2.38932c1.63999,-1.37695 2.11141,-3.01172 2.11141,-5.15312c0,-2.41625 1.95875,-4.375 4.375,-4.375c2.41624,0 4.375,2.70875 4.375,5.125c0,2.41625 -1.95875,3.625 -4.375,3.625z" data-paper-data="{&quot;origPos&quot;:null}" fill="#ab2222" stroke-width="NaN" stroke="none" transform="matrix(1,0,0,1,-213.13334,-76.19011)"/><path d="M259.70045,83.0677l0.76816,-3.7981l3.30113,3.85592z" data-paper-data="{&quot;origPos&quot;:null,&quot;origRot&quot;:0}" fill="#cc7529" stroke-width="0" stroke="none" transform="matrix(1,0,0,1,-213.13334,-76.19011)"/><path d="M258.04484,79.87761c-0.62132,0 -1.125,-0.50368 -1.125,-1.125c0,-0.62132 0.50368,-1.125 1.125,-1.125c0.62132,0 1.125,0.50368 1.125,1.125c0,0.62132 -0.50368,1.125 -1.125,1.125z" data-paper-data="{&quot;origPos&quot;:null}" fill="#000000" stroke-width="0" stroke="none" transform="matrix(1,0,0,1,-213.13334,-76.19011)"/></g><path d="M237.70317,115.51313c0,-2.66148 2.15757,-4.81905 4.81905,-4.81905c2.66148,0 4.81905,2.15757 4.81905,4.81905c0,2.66148 -2.15757,4.81905 -4.81905,4.81905c-2.66148,0 -4.81905,-2.15757 -4.81905,-4.81905z" data-paper-data="{&quot;origPos&quot;:null}" fill="#000000" stroke="none" stroke-width="0" stroke-linecap="butt" transform="matrix(1,0,0,1,-213.13334,-76.19011)"/><path d="M 24.8016 32.4833 L 33.9286 36.1341 " data-paper-data="{&quot;origPos&quot;:null}" fill="none" stroke="#000000" stroke-width="2.5" stroke-linecap="round"/><path d="M 67.3333 69.25 C 67.3333 69.25 71.0245 72.2036 71.7779 74.4899 C 72.8402 77.7135 72.8333 93.4167 72.8333 93.4167 " data-paper-data="{&quot;origPos&quot;:null}" fill="none" stroke="#79603c" stroke-width="4" stroke-linecap="round"/><path d="M291.65836,163.64738c1.94022,2.00738 3.00627,4.66119 2.38108,5.92742c-0.6252,1.26623 -2.70489,0.66542 -4.64512,-1.34197c-1.94022,-2.00738 -3.00627,-4.66118 -2.38108,-5.92742c0.6252,-1.26623 2.70489,-0.66542 4.64512,1.34196z" data-paper-data="{&quot;origRot&quot;:0,&quot;origPos&quot;:null}" fill="#019a00" stroke="none" stroke-width="0" stroke-linecap="butt" transform="matrix(1,0,0,1,-213.13334,-76.19011)"/><path d="M290.50582,159.0124c2.49249,-1.2576 5.34306,-1.48864 6.36691,-0.51604c1.02385,0.9726 -0.16672,2.78054 -2.6592,4.03814c-2.49249,1.2576 -5.34306,1.48864 -6.36691,0.51604c-1.02385,-0.9726 0.16672,-2.78054 2.65921,-4.03814z" data-paper-data="{&quot;origRot&quot;:0,&quot;origPos&quot;:null}" fill="#019a00" stroke="none" stroke-width="0" stroke-linecap="butt" transform="matrix(1,0,0,1,-213.13334,-76.19011)"/><path d="M241.17011,157.73283c-0.46661,-2.75251 0.15328,-5.54444 1.38457,-6.23593c1.23129,-0.69149 2.60771,0.97931 3.07432,3.73183c0.46661,2.75251 -0.15328,5.54443 -1.38456,6.23592c-1.23129,0.69149 -2.60772,-0.97931 -3.07433,-3.73182z" data-paper-data="{&quot;origRot&quot;:0,&quot;origPos&quot;:null}" fill="#019a00" stroke="none" stroke-width="0" stroke-linecap="butt" transform="matrix(1,0,0,1,-213.13334,-76.19011)"/><path d="M239.50217,162.20826c-2.76707,-0.3707 -5.24954,-1.79071 -5.54475,-3.17168c-0.29521,-1.38097 1.70862,-2.19996 4.47569,-1.82926c2.76707,0.3707 5.24955,1.79072 5.54476,3.17168c0.29521,1.38097 -1.70863,2.19995 -4.47569,1.82925z" data-paper-data="{&quot;origRot&quot;:0,&quot;origPos&quot;:null}" fill="#019a00" stroke="none" stroke-width="0" stroke-linecap="butt" transform="matrix(1,0,0,1,-213.13334,-76.19011)"/><path d="M 32.5 81.25 C 32.5 81.25 31.7562 86.2438 30 88 C 27.8535 90.1465 23 90.75 23 90.75 " data-paper-data="{&quot;origPos&quot;:null}" fill="none" stroke="#79603c" stroke-width="4" stroke-linecap="round"/><g data-paper-data="{&quot;origPos&quot;:null,&quot;origRot&quot;:0}" stroke-linecap="butt"><path d="M241.34675,87.87027c0.76602,2.65305 0.07268,5.18326 -1.54863,5.65138c-1.62131,0.46813 -3.55662,-1.30311 -4.32264,-3.95615c-0.76602,-2.65305 -0.07268,-5.18326 1.54863,-5.65139c1.62131,-0.46813 3.55662,1.30311 4.32264,3.95616z" data-paper-data="{&quot;origPos&quot;:null}" fill="#d9c0b4" stroke-width="0" stroke="none" transform="matrix(1,0,0,1,-213.13334,-76.19011)"/><path d="M 22.986 10.2982 C 22.8711 9.9003 23.1006 9.4845 23.4985 9.3696 C 23.8965 9.2547 24.3122 9.4842 24.4271 9.8821 C 24.542 10.2801 24.3126 10.6958 23.9146 10.8107 C 23.5167 10.9256 23.1009 10.6962 22.986 10.2982 Z " fill="#7ea52c" stroke-width="0.5" stroke="none"/><path d="M 25.9367 12.1062 C 25.8218 11.7083 26.0513 11.2925 26.4492 11.1776 C 26.8472 11.0627 27.2629 11.2922 27.3778 11.6901 C 27.4927 12.0881 27.2633 12.5038 26.8653 12.6187 C 26.4674 12.7336 26.0516 12.5042 25.9367 12.1062 Z " fill="#7ea52c" stroke-width="0.5" stroke="none"/><path d="M 22.9522 14.587 C 22.8373 14.1891 23.0668 13.7733 23.4647 13.6584 C 23.8627 13.5435 24.2784 13.773 24.3933 14.1709 C 24.5082 14.5689 24.2788 14.9847 23.8808 15.0996 C 23.4829 15.2145 23.0671 14.985 22.9522 14.587 Z " fill="#7ea52c" stroke-width="0.5" stroke="none"/><path d="M 25.2744 15.42 C 25.1595 15.0221 25.3889 14.6063 25.7869 14.4914 C 26.1849 14.3765 26.6006 14.6059 26.7155 15.0039 C 26.8304 15.4018 26.601 15.8176 26.203 15.9325 C 25.8051 16.0474 25.3893 15.818 25.2744 15.42 Z " fill="#7ea52c" stroke-width="0.5" stroke="none"/><path d="M 24.1415 8.6925 C 24.0266 8.2945 24.256 7.8788 24.654 7.7639 C 25.052 7.6489 25.4677 7.8784 25.5826 8.2764 C 25.6975 8.6743 25.4681 9.0901 25.0701 9.205 C 24.6722 9.3199 24.2564 9.0904 24.1415 8.6925 Z " fill="#7ea52c" stroke-width="0.5" stroke="none"/></g><g data-paper-data="{&quot;origPos&quot;:null,&quot;origRot&quot;:0,&quot;index&quot;:null}" stroke-linecap="butt"><path d="M241.58461,90.1127c1.049,-2.55442 3.16485,-4.10551 4.72588,-3.46445c1.56104,0.64106 1.97612,3.2315 0.92712,5.78592c-1.049,2.55442 -3.16485,4.10551 -4.72589,3.46445c-1.56104,-0.64106 -1.97612,-3.2315 -0.92711,-5.78592z" data-paper-data="{&quot;origPos&quot;:null}" fill="#d9c0b4" stroke-width="0" stroke="none" transform="matrix(1,0,0,1,-213.13334,-76.19011)"/><path d="M 31.6872 18.2544 C 31.5299 18.6375 31.0917 18.8206 30.7085 18.6632 C 30.3253 18.5059 30.1423 18.0677 30.2996 17.6845 C 30.457 17.3014 30.8952 17.1183 31.2783 17.2757 C 31.6615 17.433 31.8445 17.8712 31.6872 18.2544 Z " fill="#7ea52c" stroke-width="0.5" stroke="none"/><path d="M 30.4996 15.004 C 30.3422 15.3871 29.9041 15.5702 29.5209 15.4128 C 29.1377 15.2555 28.9547 14.8173 29.112 14.4342 C 29.2694 14.051 29.7075 13.868 30.0907 14.0253 C 30.4739 14.1826 30.6569 14.6208 30.4996 15.004 Z " fill="#7ea52c" stroke-width="0.5" stroke="none"/><path d="M 34.3795 14.9157 C 34.2222 15.2989 33.784 15.4819 33.4008 15.3246 C 33.0177 15.1672 32.8346 14.729 32.992 14.3459 C 33.1493 13.9627 33.5875 13.7797 33.9706 13.937 C 34.3538 14.0944 34.5369 14.5325 34.3795 14.9157 Z " fill="#7ea52c" stroke-width="0.5" stroke="none"/><path d="M 33.0781 12.8198 C 32.9208 13.203 32.4826 13.386 32.0995 13.2287 C 31.7163 13.0713 31.5333 12.6331 31.6906 12.25 C 31.8479 11.8668 32.2861 11.6838 32.6693 11.8411 C 33.0524 11.9985 33.2355 12.4366 33.0781 12.8198 Z " fill="#7ea52c" stroke-width="0.5" stroke="none"/><path d="M 29.784 18.794 C 29.6266 19.1772 29.1884 19.3602 28.8053 19.2029 C 28.4221 19.0455 28.2391 18.6074 28.3964 18.2242 C 28.5538 17.841 28.9919 17.658 29.3751 17.8153 C 29.7583 17.9727 29.9413 18.4109 29.784 18.794 Z " fill="#7ea52c" stroke-width="0.5" stroke="none"/></g><path d="M 50.8889 79.75 C 50.8889 79.75 48.6971 84.927 46.3851 88.0393 C 44.0732 91.1515 39.3333 95.3056 39.3333 95.3056 " data-paper-data="{&quot;origPos&quot;:null}" fill="none" stroke="#cdcdcd" stroke-width="1" stroke-linecap="round"/><path d="M 37.25 76.9167 L 42.1111 92.4167 " data-paper-data="{&quot;origPos&quot;:null}" fill="none" stroke="#cdcdcd" stroke-width="1" stroke-linecap="round"/><path d="M 36.4444 88.3056 L 42.2778 78.8611 " data-paper-data="{&quot;origPos&quot;:null}" fill="none" stroke="#cdcdcd" stroke-width="1" stroke-linecap="round"/><path d="M 33.4444 84.8611 L 50.1111 81.0833 " data-paper-data="{&quot;origPos&quot;:null}" fill="none" stroke="#cdcdcd" stroke-width="1" stroke-linecap="round"/><path d="M 46.3333 88.1944 L 32.3333 77.9722 " fill="none" stroke="#cdcdcd" stroke-width="1" stroke-linecap="round"/><path d="M 36.8333 83.6528 C 36.8333 82.111 38.0832 80.8611 39.625 80.8611 C 41.1668 80.8611 42.4167 82.111 42.4167 83.6528 C 42.4167 85.1946 41.1668 86.4445 39.625 86.4445 C 38.0832 86.4445 36.8333 85.1946 36.8333 83.6528 Z " data-paper-data="{&quot;origPos&quot;:null}" fill="none" stroke="#cdcdcd" stroke-width="1" stroke-linecap="butt"/><path d="M 34.0833 83.5278 C 34.0833 80.5362 36.5085 78.1111 39.5 78.1111 C 42.4915 78.1111 44.9166 80.5362 44.9166 83.5278 C 44.9166 86.5193 42.4915 88.9445 39.5 88.9445 C 36.5084 88.9445 34.0833 86.5193 34.0833 83.5278 Z " data-paper-data="{&quot;origPos&quot;:null}" fill="none" stroke="#cdcdcd" stroke-width="1" stroke-linecap="butt"/><g data-paper-data="{&quot;origPos&quot;:null,&quot;origRot&quot;:0}" stroke-linecap="butt"><path d="M253.706,160.18373c-0.55005,0.9391 -1.47317,1.42087 -2.06186,1.07606c-0.58869,-0.34481 -0.62001,-1.38562 -0.06997,-2.32471c0.55005,-0.9391 1.47317,-1.42086 2.06186,-1.07606c0.58869,0.34481 0.62001,1.38561 0.06997,2.32471z" stroke-width="0" fill="#000000" stroke="none" transform="matrix(1,0,0,1,-213.13334,-76.19011)"/><path d="M255.35463,157.39c0,0 0.00849,1.1149 -0.30338,1.48719c-0.19879,0.23731 -1.00514,0.07485 -1.00514,0.07485l-0.34421,-0.98376c0,0 0.65022,0.34668 0.92665,0.24996c0.36857,-0.12896 0.72608,-0.82824 0.72608,-0.82824z" data-paper-data="{&quot;origPos&quot;:null,&quot;origRot&quot;:0,&quot;index&quot;:null}" stroke-width="0" fill="#000000" stroke="none" transform="matrix(1,0,0,1,-213.13334,-76.19011)"/><path d="M255.32278,159.00029c0,0 -0.48329,1.00474 -0.92723,1.20168c-0.28298,0.12554 -0.93541,-0.37538 -0.93541,-0.37538l0.12412,-1.03483c0,0 0.43115,0.59757 0.72193,0.63244c0.3877,0.0465 1.01659,-0.42392 1.01659,-0.42392z" data-paper-data="{&quot;origPos&quot;:null,&quot;origRot&quot;:0,&quot;index&quot;:null}" stroke-width="0" fill="#000000" stroke="none" transform="matrix(1,0,0,1,-213.13334,-76.19011)"/><path d="M252.64803,157.1802c0.05085,0.28842 0.67127,0.68598 0.67127,0.68598l-1.02641,0.18096c0,0 -0.53611,-0.62383 -0.42636,-0.9133c0.17218,-0.45412 1.14876,-0.99204 1.14876,-0.99204c0,0 -0.43505,0.65386 -0.36725,1.03841z" data-paper-data="{&quot;origPos&quot;:null,&quot;origRot&quot;:0,&quot;index&quot;:null}" stroke-width="0" fill="#000000" stroke="none" transform="matrix(1,0,0,1,-213.13334,-76.19011)"/><path d="M251.75384,158.05125c0.17265,0.23656 0.90474,0.32032 0.90474,0.32032l-0.84188,0.61442c0,0 -0.75603,-0.32405 -0.78494,-0.63227c-0.04537,-0.48354 0.59459,-1.39652 0.59459,-1.39652c0,0 -0.1027,0.77862 0.1275,1.09403z" data-paper-data="{&quot;origPos&quot;:null,&quot;origRot&quot;:0,&quot;index&quot;:null}" stroke-width="0" fill="#000000" stroke="none" transform="matrix(1,0,0,1,-213.13334,-76.19011)"/><path d="M252.44805,161.94102c-0.05085,-0.28842 -0.67127,-0.68598 -0.67127,-0.68598l1.02641,-0.18096c0,0 0.53611,0.62383 0.42636,0.9133c-0.17218,0.45412 -1.14876,0.99204 -1.14876,0.99204c0,0 0.43505,-0.65386 0.36725,-1.03841z" data-paper-data="{&quot;origPos&quot;:null,&quot;origRot&quot;:0,&quot;index&quot;:null}" stroke-width="0" fill="#000000" stroke="none" transform="matrix(1,0,0,1,-213.13334,-76.19011)"/><path d="M253.34224,161.06997c-0.17265,-0.23656 -0.90474,-0.32032 -0.90474,-0.32032l0.84188,-0.61442c0,0 0.75603,0.32405 0.78494,0.63227c0.04537,0.48354 -0.59459,1.39652 -0.59459,1.39652c0,0 0.1027,-0.77862 -0.1275,-1.09403z" data-paper-data="{&quot;origPos&quot;:null,&quot;origRot&quot;:0,&quot;index&quot;:null}" stroke-width="0" fill="#000000" stroke="none" transform="matrix(1,0,0,1,-213.13334,-76.19011)"/><path d="M249.84785,161.54956c0,0 -0.00849,-1.1149 0.30338,-1.4872c0.19879,-0.23731 1.00514,-0.07485 1.00514,-0.07485l0.34421,0.98376c0,0 -0.65022,-0.34668 -0.92665,-0.24995c-0.36857,0.12896 -0.72608,0.82824 -0.72608,0.82824z" data-paper-data="{&quot;origPos&quot;:null,&quot;origRot&quot;:0,&quot;index&quot;:null}" stroke-width="0" fill="#000000" stroke="none" transform="matrix(1,0,0,1,-213.13334,-76.19011)"/><path d="M249.8797,159.93927c0,0 0.48329,-1.00474 0.92723,-1.20168c0.28297,-0.12554 0.93541,0.37538 0.93541,0.37538l-0.12412,1.03483c0,0 -0.43114,-0.59757 -0.72192,-0.63244c-0.3877,-0.0465 -1.01659,0.42392 -1.01659,0.42392z" data-paper-data="{&quot;origPos&quot;:null,&quot;origRot&quot;:0,&quot;index&quot;:null}" stroke-width="0" fill="#000000" stroke="none" transform="matrix(1,0,0,1,-213.13334,-76.19011)"/></g><path d="M311.13333,127.32829c0,1.13545 -0.41231,2.27679 -1.53564,2.44219c-1.67044,0.24597 -2.78017,-0.58979 -4.46555,-0.69168c-1.67925,-0.10151 -2.77803,0.59564 -4.46035,0.59564c-1.47184,0 -2.60474,-0.90455 -4.0713,-0.77999c-1.64583,0.13978 -2.27349,0.66566 -3.91815,0.51272c-1.46857,-0.13656 -2.49271,-0.68106 -2.47208,-2.15581c0.03536,-2.52744 4.68378,-2.80769 10.46153,-2.80769c5.77775,0 10.46154,0.6658 10.46154,2.88461z" data-paper-data="{&quot;origPos&quot;:null}" fill="#4a300a" stroke="#000000" stroke-width="0" stroke-linecap="butt" transform="matrix(1,0,0,1,-213.13334,-76.19011)"/><path d="M 78.4615 47.4074 L 79.5384 49.0997 " fill="none" stroke="#25a200" stroke-width="1" stroke-linecap="round"/><path d="M 79.8461 45.3305 L 80.5385 48.9459 " fill="none" stroke="#25a200" stroke-width="1" stroke-linecap="round"/><path d="M 82.0769 46.0228 L 81.6154 48.869 " fill="none" stroke="#25a200" stroke-width="1" stroke-linecap="round"/><path d="M 91.6923 46.1766 L 92.3077 49.792 " fill="none" stroke="#25a200" stroke-width="1" stroke-linecap="round"/><path d="M 95.1538 45.6382 L 93.4615 50.3305 " fill="none" stroke="#25a200" stroke-width="1" stroke-linecap="round"/><path d="M 96.8461 48.6382 L 94.6154 50.4074 " fill="none" stroke="#25a200" stroke-width="1" stroke-linecap="round"/><path d="M 83.5384 48.2536 L 85.9231 51.5613 " fill="none" stroke="#25a200" stroke-width="1" stroke-linecap="round"/><path d="M 87.1538 51.2536 L 87.3846 46.3305 " fill="none" stroke="#25a200" stroke-width="1" stroke-linecap="round"/><path d="M 88.3077 51.2536 L 89.6154 48.5613 " fill="none" stroke="#25a200" stroke-width="1" stroke-linecap="round"/><path d="M 85.2308 48.4074 C 85.2308 48.4074 85.1258 47.2332 85.2063 46.4817 C 85.3195 45.4257 85.7276 44.8361 85.9032 43.7887 C 86.0239 43.0683 85.9231 41.9459 85.9231 41.9459 " data-paper-data="{&quot;origPos&quot;:null}" fill="none" stroke="#1a7100" stroke-width="1" stroke-linecap="round"/><g data-paper-data="{&quot;origPos&quot;:null,&quot;origRot&quot;:0}" stroke-linecap="butt"><path d="M298.80764,115.94823c-0.55215,-0.09481 -0.92289,-0.61928 -0.82808,-1.17143c0.09481,-0.55215 0.61928,-0.92289 1.17143,-0.82808c0.55215,0.09481 0.92289,0.61928 0.82808,1.17143c-0.09481,0.55215 -0.61928,0.92289 -1.17143,0.82808z" data-paper-data="{&quot;origPos&quot;:null,&quot;origRot&quot;:0}" fill="#fff300" stroke-width="0" stroke="none" transform="matrix(1,0,0,1,-213.13334,-76.19011)"/><path d="M299.28251,116.79118c0.1041,-0.55047 0.63473,-0.91234 1.1852,-0.80824c0.55047,0.1041 0.91234,0.63473 0.80824,1.1852c-0.1041,0.55047 -0.63473,0.91234 -1.1852,0.80824c-0.55047,-0.1041 -0.91234,-0.63473 -0.80824,-1.1852z" data-paper-data="{&quot;origPos&quot;:null}" fill="#fff300" stroke-width="0" stroke="none" transform="matrix(1,0,0,1,-213.13334,-76.19011)"/><path d="M295.96011,116.16289c0.1041,-0.55048 0.63473,-0.91234 1.1852,-0.80824c0.55048,0.1041 0.91234,0.63473 0.80824,1.1852c-0.1041,0.55048 -0.63473,0.91234 -1.1852,0.80824c-0.55048,-0.1041 -0.91234,-0.63473 -0.80824,-1.1852z" data-paper-data="{&quot;origPos&quot;:null}" fill="#fff300" stroke-width="0" stroke="none" transform="matrix(1,0,0,1,-213.13334,-76.19011)"/><path d="M298.14047,119.26279c-0.55215,-0.09481 -0.92289,-0.61928 -0.82808,-1.17143c0.09481,-0.55215 0.61928,-0.92289 1.17143,-0.82808c0.55215,0.09481 0.92289,0.61928 0.82808,1.17143c-0.09481,0.55215 -0.61928,0.92289 -1.17143,0.82808z" data-paper-data="{&quot;origPos&quot;:null,&quot;origRot&quot;:0}" fill="#fff300" stroke-width="0" stroke="none" transform="matrix(1,0,0,1,-213.13334,-76.19011)"/><path d="M298.19924,115.91117c-0.44813,0.33622 -1.08395,0.2455 -1.42017,-0.20263c-0.33622,-0.44813 -0.2455,-1.08396 0.20262,-1.42018c0.44813,-0.33622 1.08396,-0.2455 1.42018,0.20262c0.33622,0.44813 0.2455,1.08396 -0.20263,1.42018z" data-paper-data="{&quot;origPos&quot;:null,&quot;origRot&quot;:0}" fill="#fff300" stroke-width="0" stroke="none" transform="matrix(1,0,0,1,-213.13334,-76.19011)"/><path d="M299.13808,116.14494c-0.32862,-0.45372 -0.22721,-1.08794 0.22651,-1.41656c0.45372,-0.32862 1.08794,-0.22721 1.41656,0.22651c0.32862,0.45372 0.22721,1.08794 -0.22651,1.41656c-0.45372,0.32862 -1.08794,0.22721 -1.41656,-0.22651z" data-paper-data="{&quot;origPos&quot;:null,&quot;origRot&quot;:0}" fill="#fff300" stroke-width="0" stroke="none" transform="matrix(1,0,0,1,-213.13334,-76.19011)"/><path d="M296.39962,118.12836c-0.32862,-0.45372 -0.22721,-1.08794 0.22651,-1.41656c0.45372,-0.32862 1.08794,-0.22721 1.41656,0.22651c0.32862,0.45372 0.22721,1.08794 -0.22651,1.41656c-0.45372,0.32862 -1.08794,0.22721 -1.41656,-0.22651z" data-paper-data="{&quot;origPos&quot;:null,&quot;origRot&quot;:0}" fill="#fff300" stroke-width="0" stroke="none" transform="matrix(1,0,0,1,-213.13334,-76.19011)"/><path d="M300.15025,118.67252c-0.44813,0.33622 -1.08396,0.2455 -1.42018,-0.20263c-0.33622,-0.44813 -0.2455,-1.08396 0.20262,-1.42018c0.44813,-0.33622 1.08396,-0.2455 1.42018,0.20263c0.33622,0.44813 0.2455,1.08396 -0.20262,1.42018z" data-paper-data="{&quot;origPos&quot;:null,&quot;origRot&quot;:0}" fill="#fff300" stroke-width="0" stroke="none" transform="matrix(1,0,0,1,-213.13334,-76.19011)"/><path d="M296.84091,116.36223c0.18112,-0.95778 1.10438,-1.5874 2.06217,-1.40628c0.95778,0.18112 1.5874,1.10438 1.40628,2.06217c-0.18112,0.95778 -1.10438,1.5874 -2.06217,1.40628c-0.95778,-0.18112 -1.5874,-1.10438 -1.40628,-2.06217z" data-paper-data="{&quot;origPos&quot;:null}" fill="#c07e1b" stroke-width="0" stroke="none" transform="matrix(1,0,0,1,-213.13334,-76.19011)"/></g><path d="M301.179,120.45538c-0.07114,0.28963 -0.5636,0.41762 -1.09994,0.28589c-0.53634,-0.13173 -0.91347,-0.47331 -0.84233,-0.76294c0.07114,-0.28963 0.5636,-0.41762 1.09994,-0.28589c0.53634,0.13173 0.91347,0.47331 0.84233,0.76294z" data-paper-data="{&quot;origRot&quot;:0}" fill="#1a7100" stroke="none" stroke-width="0" stroke-linecap="butt" transform="matrix(1,0,0,1,-213.13334,-76.19011)"/><path d="M297.53667,122.18125c-0.53634,0.13173 -1.0288,0.00374 -1.09994,-0.28589c-0.07114,-0.28963 0.30599,-0.6312 0.84233,-0.76294c0.53634,-0.13173 1.0288,-0.00374 1.09994,0.28589c0.07114,0.28963 -0.30599,0.6312 -0.84233,0.76293z" data-paper-data="{&quot;origRot&quot;:0,&quot;origPos&quot;:null,&quot;index&quot;:null}" fill="#1a7100" stroke="none" stroke-width="0" stroke-linecap="butt" transform="matrix(1,0,0,1,-213.13334,-76.19011)"/></g></g></g></g></svg>