<svg xmlns="http://www.w3.org/2000/svg" xmlns:xlink="http://www.w3.org/1999/xlink" version="1.1" width="67.93095" height="157.40628" viewBox="0,0,67.93095,157.40628"><defs><radialGradient cx="231.33333" cy="111.00005" r="16.29163" gradientUnits="userSpaceOnUse" id="color-1"><stop offset="0" stop-color="#bea792"/><stop offset="1" stop-color="#bea792" stop-opacity="0"/></radialGradient></defs><g><g data-paper-data="{&quot;isPaintingLayer&quot;:true}" fill-rule="nonzero" stroke-linejoin="miter" stroke-miterlimit="10" stroke-dasharray="" stroke-dashoffset="0" style="mix-blend-mode: normal"><g><path d="M 25.3453 49.4404 L 25.3453 116.7375 L 13.2976 155.6563 " data-paper-data="{&quot;origPos&quot;:null}" fill="none" stroke="#000000" stroke-width="3.5" stroke-linecap="round"/><path d="M 38.196 155.4595 L 26.1484 115.3008 " fill="none" stroke="#000000" stroke-width="3.5" stroke-linecap="round"/><path d="M 24.0421 57.7643 L 8.3437 87.3357 " data-paper-data="{&quot;origPos&quot;:null}" fill="none" stroke="#000000" stroke-width="3.5" stroke-linecap="round"/><path d="M 66.1809 58.5857 L 26.2325 57.7643 " data-paper-data="{&quot;origPos&quot;:null,&quot;index&quot;:null}" fill="none" stroke="#000000" stroke-width="3.5" stroke-linecap="round"/><path d="M 1.25 26.55 C 1.25 12.5772 12.5772 1.25 26.55 1.25 C 40.5228 1.25 51.85 12.5772 51.85 26.55 C 51.85 40.5228 40.5228 51.85 26.55 51.85 C 12.5772 51.85 1.25 40.5228 1.25 26.55 Z " data-paper-data="{&quot;origPos&quot;:null}" fill="#d4d4d4" stroke="#000000" stroke-width="2.5" stroke-linecap="butt"/><path d="M 43.5262 13.5548 L 36.5897 16.8405 " data-paper-data="{&quot;origPos&quot;:null}" fill="none" stroke="#000000" stroke-width="2.5" stroke-linecap="round"/><path d="M252.05554,109.34923c0,-2.66148 2.15757,-4.81905 4.81905,-4.81905c2.66148,0 4.81905,2.15757 4.81905,4.81905c0,2.66148 -2.15757,4.81905 -4.81905,4.81905c-2.66148,0 -4.81905,-2.15757 -4.81905,-4.81905z" data-paper-data="{&quot;origPos&quot;:null}" fill="#000000" stroke="none" stroke-width="0" stroke-linecap="butt" transform="matrix(1,0,0,1,-216.26903,-88.82303)"/><path d="M243.39217,113.52527c-1.18896,8.94897 -7.81213,15.45165 -14.79327,14.52413c-6.98113,-0.92751 -11.67662,-8.93399 -10.48766,-17.88296c1.18896,-8.94897 7.81213,-15.45165 14.79327,-14.52413c6.98113,0.92751 11.67662,8.93399 10.48766,17.88296z" data-paper-data="{&quot;origPos&quot;:null,&quot;origRot&quot;:0}" fill="url(#color-1)" stroke="none" stroke-width="0" stroke-linecap="butt" transform="matrix(1,0,0,1,-216.26903,-88.82303)"/><path d="M238.40157,109.34923c0,-2.66149 2.15756,-4.81905 4.81905,-4.81905c2.66149,0 4.81905,2.15756 4.81905,4.81905c0,2.66149 -2.15756,4.81905 -4.81905,4.81905c-2.66149,0 -4.81905,-2.15756 -4.81905,-4.81905z" data-paper-data="{&quot;origPos&quot;:null}" fill="#000000" stroke="none" stroke-width="0" stroke-linecap="butt" transform="matrix(1,0,0,1,-216.26903,-88.82303)"/><path d="M 31.4786 17.1706 L 22.3516 13.5198 " data-paper-data="{&quot;origPos&quot;:null}" fill="none" stroke="#000000" stroke-width="2.5" stroke-linecap="round"/><path d="M 10.5643 11.5104 C 10.5643 11.5104 12.7168 9.3531 14.3079 8.2924 C 15.4487 7.5319 17.5643 6.8437 17.5643 6.8437 " data-paper-data="{&quot;origPos&quot;:null}" fill="none" stroke="#462929" stroke-width="1.5" stroke-linecap="round"/><path d="M 12.389 12.8588 C 12.389 12.8588 14.5415 10.7015 16.1326 9.6408 C 17.2734 8.8803 19.389 8.1921 19.389 8.1921 " data-paper-data="{&quot;origPos&quot;:null}" fill="none" stroke="#462929" stroke-width="1.5" stroke-linecap="round"/><path d="M224.2245,128.07173l1.17657,-0.91511l1.24194,1.56876c0,0 -0.48234,-0.31037 -0.78982,-0.35191c-0.36558,-0.04939 -0.57489,0.25888 -0.92849,0.15376c-0.42632,-0.12674 -0.7002,-0.4555 -0.7002,-0.4555z" data-paper-data="{&quot;origPos&quot;:null}" fill="#e00000" stroke="none" stroke-width="0" stroke-linecap="butt" transform="matrix(1,0,0,1,-216.26903,-88.82303)"/><path d="M226.6099,124.31279l-1.17657,0.91512l-0.90968,-1.15149c0,0 1.03245,-0.32425 1.38605,-0.21913c0.42632,0.12674 0.7002,0.4555 0.7002,0.4555z" data-paper-data="{&quot;origPos&quot;:null,&quot;index&quot;:null}" fill="#e00000" stroke="none" stroke-width="0" stroke-linecap="butt" transform="matrix(1,0,0,1,-216.26903,-88.82303)"/><path d="M 10.8976 35.8437 L 7.231 39.0104 " data-paper-data="{&quot;origPos&quot;:null}" fill="none" stroke="#462929" stroke-width="1.5" stroke-linecap="round"/><path d="M 7.5643 35.445 L 13.731 42.7783 " data-paper-data="{&quot;origPos&quot;:null}" fill="none" stroke="#462929" stroke-width="1.5" stroke-linecap="round"/><path d="M 13.3976 38.0104 L 9.5643 41.3437 " data-paper-data="{&quot;origPos&quot;:null}" fill="none" stroke="#462929" stroke-width="1.5" stroke-linecap="round"/><path d="M225.84654,126.39099l1.06803,-0.7539c0,0 -0.02751,0.6746 0.24774,1.06454c0.21021,0.2978 0.604,0.8938 0.604,0.8938l-0.67583,0.55781z" data-paper-data="{&quot;origRot&quot;:0,&quot;origPos&quot;:null}" fill="#e00000" stroke="none" stroke-width="0" stroke-linecap="butt" transform="matrix(1,0,0,1,-216.26903,-88.82303)"/></g></g></g></svg>