<svg version="1.1" xmlns="http://www.w3.org/2000/svg" xmlns:xlink="http://www.w3.org/1999/xlink" width="490.10577" height="323.346" viewBox="0,0,490.10577,323.346"><g transform="translate(4.75001,-37.59558)"><g data-paper-data="{&quot;isPaintingLayer&quot;:true}" fill-rule="nonzero" stroke-linejoin="miter" stroke-miterlimit="10" stroke-dasharray="" stroke-dashoffset="0" style="mix-blend-mode: normal"><path d="M184.49999,211.10484v-14h113v14z" data-paper-data="{&quot;origPos&quot;:null}" fill="#c0c0c0" stroke="none" stroke-width="0" stroke-linecap="butt"/><path d="M-4.50001,330.11518v-13h485v13z" data-paper-data="{&quot;origPos&quot;:null}" fill="#c0c0c0" stroke="#000000" stroke-width="0.5" stroke-linecap="butt"/><path d="M35.49999,337.11518v-10.9092h407v10.9092z" data-paper-data="{&quot;origPos&quot;:null}" fill="#c0c0c0" stroke="#000000" stroke-width="0.5" stroke-linecap="butt"/><path d="M422.49999,336.11518v9.5423h-356v-9.5423z" data-paper-data="{&quot;origPos&quot;:null}" fill="#c0c0c0" stroke="#000000" stroke-width="0.5" stroke-linecap="butt"/><path d="M218.85299,350.77498h47" fill="none" stroke="#008aff" stroke-width="5" stroke-linecap="round"/><path d="M231.18629,358.10828l21.3334,0.3333" fill="none" stroke="#008aff" stroke-width="5" stroke-linecap="round"/><path d="M182.49999,116.10484v-14h113v14z" data-paper-data="{&quot;origPos&quot;:null}" fill="#c0c0c0" stroke="none" stroke-width="0" stroke-linecap="butt"/><path d="M0.34606,220.55835l111.00814,30.26845l-9.04183,13.82453l-101.4272,-27.49295z" data-paper-data="{&quot;origRot&quot;:0,&quot;origPos&quot;:null}" fill="#c0c0c0" stroke="none" stroke-width="0" stroke-linecap="butt"/><path d="M-3.27048,37.90503l90.62468,24.92177l-9.04183,13.82453l-81.62606,-22.12564z" data-paper-data="{&quot;origRot&quot;:0,&quot;origPos&quot;:null}" fill="#c0c0c0" stroke="none" stroke-width="0" stroke-linecap="butt"/><path d="M-0.43395,128.1143l98.32687,26.65257l-9.04183,13.82453l-89.68522,-24.31016z" data-paper-data="{&quot;origRot&quot;:0}" fill="#c0c0c0" stroke="none" stroke-width="0" stroke-linecap="butt"/><path d="M481.1569,236.84893l-101.42719,27.49295l-9.04183,-13.82453l111.00814,-30.26845z" data-paper-data="{&quot;origRot&quot;:0,&quot;origPos&quot;:null}" fill="#c0c0c0" stroke="none" stroke-width="0" stroke-linecap="butt"/><path d="M485.35576,54.21624l-81.62606,22.12564l-9.04183,-13.82453l90.62468,-24.92177z" data-paper-data="{&quot;origRot&quot;:0,&quot;origPos&quot;:null}" fill="#c0c0c0" stroke="none" stroke-width="0" stroke-linecap="butt"/><path d="M480.2424,147.26404l-89.68523,24.31016l-9.04183,-13.82453l98.32687,-26.65257z" data-paper-data="{&quot;origRot&quot;:0}" fill="#c0c0c0" stroke="none" stroke-width="0" stroke-linecap="butt"/></g></g></svg>