<svg xmlns="http://www.w3.org/2000/svg" xmlns:xlink="http://www.w3.org/1999/xlink" version="1.1" width="6.28537" height="5.55435" viewBox="0,0,6.28537,5.55435"><g><g data-paper-data="{&quot;isPaintingLayer&quot;:true}" fill-rule="nonzero" stroke-linecap="butt" stroke-linejoin="miter" stroke-miterlimit="10" stroke-dasharray="" stroke-dashoffset="0" style="mix-blend-mode: normal"><path d="M238.914,177.71224c1.11824,-0.46674 2.59976,-0.88602 3.35705,-0.0229c0.19189,0.2187 0.12175,1.21811 0.24002,1.50146c0.46352,1.11052 0.53661,2.51345 -0.31316,3.27226c-0.22274,0.19889 -0.92086,-0.42743 -1.21194,-0.30594c-1.13514,0.47379 -2.91444,0.99152 -3.66788,0.09898c-0.17685,-0.2095 0.22857,-0.68034 0.11735,-0.9468c-0.16182,-0.3877 -0.90402,-0.08582 -0.86844,-0.73258c0.04221,-0.76739 0.89728,-2.48742 1.13945,-2.88216c0.29156,-0.47527 0.65369,0.24886 1.20755,0.01769z" stroke-width="0" fill="#ffffff" stroke="none" transform="matrix(1,0,0,1,-236.56577,-177.18895)"/></g></g></svg>