<svg xmlns="http://www.w3.org/2000/svg" xmlns:xlink="http://www.w3.org/1999/xlink" version="1.1" width="129.64875" height="292.69057" viewBox="0,0,129.64875,292.69057"><g><g data-paper-data="{&quot;isPaintingLayer&quot;:true}" fill-rule="nonzero" stroke-linejoin="miter" stroke-miterlimit="10" stroke-dasharray="" stroke-dashoffset="0" style="mix-blend-mode: normal"><g><path d="M 105.8004 101.3622 C 104.1501 102.1852 112.4924 123.3618 112.4924 123.3618 C 112.4924 123.3618 101.5323 114.428 97.7547 120.3097 C 93.9772 126.1913 99.0091 134.4025 99.0091 134.4025 C 99.0091 134.4025 92.0244 128.8086 87.1241 131.4709 C 82.2238 134.1332 89.8697 154.8434 89.8697 154.8434 C 89.8697 154.8434 80.7311 141.3769 74.7123 136.0114 C 70.7059 132.4398 59.5147 131.9434 59.5147 131.9434 L 58.8972 111.7233 C 58.8972 111.7233 80.6638 106.5268 88.5929 98.9473 C 95.6177 92.2322 101.17 71.3357 101.17 71.3357 L 119.3094 105.813 C 119.3094 105.813 108.2527 100.1392 105.8004 101.3622 Z " data-paper-data="{&quot;origRot&quot;:0,&quot;index&quot;:null}" fill="#4be83c" stroke="#217d2a" stroke-width="1.5" stroke-linecap="butt"/><path d="M 128.8199 139.8324 C 128.8199 139.8324 118.7789 129.3407 115.6033 129.7539 C 113.4663 130.032 114.5845 156.6058 114.5845 156.6058 C 114.5845 156.6058 105.896 142.5511 99.4764 147.6022 C 93.0568 152.6533 95.475 163.6443 95.475 163.6443 C 95.475 163.6443 89.8999 154.7973 83.471 155.8642 C 77.0422 156.9312 77.5695 182.7236 77.5695 182.7236 C 77.5695 182.7236 72.625 164.3597 68.0294 156.1342 C 64.9702 150.6588 57.9551 147.6167 57.9551 147.6167 L 59.1121 123.0134 C 59.1121 123.0134 85.8712 125.8494 97.5242 120.5101 C 107.8484 115.7797 121.9668 94.8261 121.9668 94.8261 L 128.82 139.8324 Z " data-paper-data="{&quot;origRot&quot;:0,&quot;index&quot;:null}" fill="#4df33e" stroke="#248a2e" stroke-width="1.5" stroke-linecap="butt"/><path d="M 80.5907 290.1906 L 58.6785 217.2517 L 58.6785 91.1282 " data-paper-data="{&quot;index&quot;:null}" fill="none" stroke="#248a2e" stroke-width="5" stroke-linecap="round"/><path d="M 58.6693 217.559 L 39.7571 290.1551 " data-paper-data="{&quot;index&quot;:null}" fill="none" stroke="#248a2e" stroke-width="5" stroke-linecap="round"/><path d="M 61.1209 106.7281 L 90.5417 162.1488 " data-paper-data="{&quot;index&quot;:null}" fill="none" stroke="#248a2e" stroke-width="5" stroke-linecap="round"/><path d="M 57.0157 106.7281 L 27.5948 162.1489 " data-paper-data="{&quot;index&quot;:null}" fill="none" stroke="#248a2e" stroke-width="5" stroke-linecap="round"/><path d="M195.0841,146.80497l11.2075,0.91489l-7.01,11.65012z" data-paper-data="{&quot;origRot&quot;:0,&quot;origPos&quot;:null}" fill="#e1e1e1" stroke="none" stroke-width="0" stroke-linecap="butt" transform="matrix(1,0,0,1,-189.07813,-87.2968)"/><path d="M213.34148,148.10554l11.24478,0.01681l-6.05708,12.17279z" data-paper-data="{&quot;origRot&quot;:0,&quot;origPos&quot;:null}" fill="#e1e1e1" stroke="none" stroke-width="0" stroke-linecap="butt" transform="matrix(1,0,0,1,-189.07813,-87.2968)"/><path d="M230.62514,147.06438l11.24476,0.01681l-6.05708,12.17279z" data-paper-data="{&quot;origRot&quot;:0,&quot;origPos&quot;:null}" fill="#e1e1e1" stroke="none" stroke-width="0" stroke-linecap="butt" transform="matrix(1,0,0,1,-189.07813,-87.2968)"/><path d="M227.48335,151.02088l6.05708,12.17279l-11.24476,0.01681z" data-paper-data="{&quot;origRot&quot;:0,&quot;origPos&quot;:null,&quot;index&quot;:null}" fill="#e1e1e1" stroke="none" stroke-width="0" stroke-linecap="butt" transform="matrix(1,0,0,1,-189.07813,-87.2968)"/><path d="M209.36677,152.27027l6.05708,12.17279l-11.24476,0.01681z" data-paper-data="{&quot;origRot&quot;:0,&quot;origPos&quot;:null,&quot;index&quot;:null}" fill="#e1e1e1" stroke="none" stroke-width="0" stroke-linecap="butt" transform="matrix(1,0,0,1,-189.07813,-87.2968)"/><path d="M 103.8361 48.2285 C 103.8361 74.4153 82.6075 95.644 56.4206 95.644 C 36.8178 95.644 44.4555 94.0658 27.0493 94.2285 C 21.2473 94.2827 13.5648 85.8296 8.7983 82.5209 C -2.3018 74.8153 35.6766 78.1884 49.0245 76.0854 C 58.423 74.6047 60.7727 59.3664 51.2893 58.5979 C 35.1922 57.2935 -5.4186 63.8982 2.8597 50.0314 C 8.2316 41.0333 -2.6522 30.4024 3.9507 22.2646 C 20.7376 1.5753 41.4911 1.7501 68.134 1.7501 C 95.6748 1.7501 103.8362 20.6877 103.8362 48.2285 Z " data-paper-data="{&quot;origPos&quot;:null}" fill="#4df33e" stroke="#248a2e" stroke-width="3.5" stroke-linecap="butt"/><path d="M234.71818,128.44691c-4.98798,0 -9.03153,-4.04355 -9.03153,-9.03153c0,-4.98798 4.04355,-9.03153 9.03153,-9.03153c4.98798,0 9.03153,4.04355 9.03153,9.03153c0,4.98798 -4.04355,9.03153 -9.03153,9.03153z" data-paper-data="{&quot;origPos&quot;:null}" fill="#ee2424" stroke="none" stroke-width="0" stroke-linecap="butt" transform="matrix(1,0,0,1,-189.07813,-87.2968)"/><path d="M208.18249,128.78024c-4.98796,0 -9.03153,-4.04357 -9.03153,-9.03153c0,-4.98796 4.04357,-9.03153 9.03153,-9.03153c4.98796,0 9.03153,4.04357 9.03153,9.03153c0,4.98796 -4.04357,9.03153 -9.03153,9.03153z" data-paper-data="{&quot;origPos&quot;:null}" fill="#ee2424" stroke="none" stroke-width="0" stroke-linecap="butt" transform="matrix(1,0,0,1,-189.07813,-87.2968)"/><path d="M 49.5984 19.2726 L 34.5925 29.9599 " data-paper-data="{&quot;origRot&quot;:0}" fill="none" stroke="#000000" stroke-width="3.5" stroke-linecap="round"/><path d="M 14.5925 19.2726 L 29.5984 29.9599 " data-paper-data="{&quot;origRot&quot;:0,&quot;index&quot;:null}" fill="none" stroke="#000000" stroke-width="3.5" stroke-linecap="round"/></g></g></g></svg>