<svg version="1.1" xmlns="http://www.w3.org/2000/svg" xmlns:xlink="http://www.w3.org/1999/xlink" width="483.20601" height="358.16632" viewBox="0,0,483.20601,358.16632"><defs><linearGradient x1="364.03698" y1="22.68188" x2="364.03698" y2="170.68189" gradientUnits="userSpaceOnUse" id="color-1"><stop offset="0" stop-color="#e4fcff" stop-opacity="0"/><stop offset="1" stop-color="#e4fcff"/></linearGradient><linearGradient x1="120.53697" y1="23.68188" x2="120.53697" y2="171.68189" gradientUnits="userSpaceOnUse" id="color-2"><stop offset="0" stop-color="#e4fcff" stop-opacity="0"/><stop offset="1" stop-color="#e4fcff"/></linearGradient><linearGradient x1="418.86477" y1="51.54438" x2="448.32751" y2="51.54438" gradientUnits="userSpaceOnUse" id="color-3"><stop offset="0" stop-color="#5293ff"/><stop offset="1" stop-color="#8fd7ff"/></linearGradient><linearGradient x1="276.76849" y1="52.22089" x2="306.2312" y2="52.22089" gradientUnits="userSpaceOnUse" id="color-4"><stop offset="0" stop-color="#8fd7ff"/><stop offset="1" stop-color="#5293ff"/></linearGradient><linearGradient x1="176.61477" y1="51.79438" x2="206.07751" y2="51.79438" gradientUnits="userSpaceOnUse" id="color-5"><stop offset="0" stop-color="#5293ff"/><stop offset="1" stop-color="#8fd7ff"/></linearGradient><linearGradient x1="34.51849" y1="52.47088" x2="63.9812" y2="52.47088" gradientUnits="userSpaceOnUse" id="color-6"><stop offset="0" stop-color="#8fd7ff"/><stop offset="1" stop-color="#5293ff"/></linearGradient></defs><g transform="translate(0.11822,-2.84969)"><g data-paper-data="{&quot;isPaintingLayer&quot;:true}" fill-rule="nonzero" stroke-linecap="butt" stroke-linejoin="miter" stroke-miterlimit="10" stroke-dasharray="" stroke-dashoffset="0" style="mix-blend-mode: normal"><path d="M-0.11822,360.33715v-40.33063h105.8679v40.33063z" fill="#585858" stroke="none" stroke-width="0"/><g stroke="none"><path d="M5.56798,339.45848c-0.27645,-8.54265 6.42449,-15.69198 14.96714,-15.96844c8.54265,-0.27645 15.69201,6.42449 15.96854,14.96717c0.27645,8.54265 -6.42449,15.69193 -14.96719,15.96841c-8.54265,0.27645 -15.69196,-6.42447 -15.96846,-14.96712z" fill="#bbb54b" stroke-width="NaN"/><path d="M8.46192,339.57129c-0.2802,-8.65658 6.51016,-15.9012 15.16674,-16.18137c8.65658,-0.2802 15.90122,6.51016 16.18135,15.16674c0.2802,8.65658 -6.51019,15.9012 -15.16669,16.18135c-8.65658,0.2802 -15.9012,-6.51019 -16.18137,-15.16677z" fill="#fff866" stroke-width="NaN"/><text transform="translate(15.75438,348.00632) rotate(-1.85503) scale(0.61908,0.61908)" font-size="40" xml:space="preserve" fill="#bbb54b" fill-rule="nonzero" stroke="none" stroke-width="1" stroke-linecap="butt" stroke-linejoin="miter" stroke-miterlimit="10" stroke-dasharray="" stroke-dashoffset="0" font-family="Sans Serif" font-weight="normal" text-anchor="start" style="mix-blend-mode: normal"><tspan x="0" dy="0">C</tspan></text></g><g stroke="none"><path d="M370.018,361.01601v-40.33063h113.06979v40.33063z" fill="#585858" stroke-width="0"/><g><path d="M375.7042,340.13735c-0.27645,-8.54264 6.42449,-15.69198 14.96714,-15.96844c8.54264,-0.27645 15.69201,6.4245 15.96854,14.96717c0.27646,8.54264 -6.42449,15.69194 -14.96719,15.96841c-8.54264,0.27645 -15.69196,-6.42447 -15.96846,-14.96712z" fill="#bbb54b" stroke-width="NaN"/><path d="M378.59813,340.25016c-0.2802,-8.65658 6.51017,-15.9012 15.16674,-16.18138c8.65658,-0.2802 15.90122,6.51016 16.18135,15.16674c0.2802,8.65658 -6.51019,15.9012 -15.16669,16.18135c-8.65658,0.2802 -15.9012,-6.51018 -16.18138,-15.16676z" fill="#fff866" stroke-width="NaN"/><text transform="translate(385.89059,348.68519) rotate(-1.85459) scale(0.61907,0.61907)" font-size="40" xml:space="preserve" fill="#bbb54b" fill-rule="nonzero" stroke="none" stroke-width="1" stroke-linecap="butt" stroke-linejoin="miter" stroke-miterlimit="10" stroke-dasharray="" stroke-dashoffset="0" font-family="Sans Serif" font-weight="normal" text-anchor="start" style="mix-blend-mode: normal"><tspan x="0" dy="0">C</tspan></text></g></g><path d="M310.61078,304.19172c0,7.28055 -14.32156,13.18261 -31.98809,13.18261c-17.66654,0 -31.98809,-5.90206 -31.98809,-13.18261c0,-7.28055 14.32156,-13.18261 31.98809,-13.18261c17.66654,0 31.98809,5.90206 31.98809,13.18261z" fill="#ceffcc" stroke="none" stroke-width="0"/><path d="M146.45674,301.85089c0,8.45793 -16.63758,15.31445 -37.16107,15.31445c-20.5235,0 -37.16107,-6.85652 -37.16107,-15.31445c0,-8.45793 16.63758,-15.31445 37.16107,-15.31445c20.5235,0 37.16107,6.85652 37.16107,15.31445z" fill="#ffccfe" stroke="none" stroke-width="0"/><path d="M389.95674,301.35087c0,8.45793 -16.63757,15.31445 -37.16107,15.31445c-20.5235,0 -37.16107,-6.85652 -37.16107,-15.31445c0,-8.45793 16.63758,-15.31444 37.16107,-15.31444c20.5235,0 37.16107,6.85652 37.16107,15.31444z" fill="#ffccfe" stroke="none" stroke-width="0"/><path d="M236.44962,301.10087c0,9.42443 -18.53877,17.06445 -41.40751,17.06445c-22.86874,0 -41.40752,-7.64002 -41.40752,-17.06445c0,-9.42443 18.53878,-17.06444 41.40752,-17.06444c22.86874,0 41.40751,7.64002 41.40751,17.06444z" fill="#fff9cc" stroke="none" stroke-width="0"/><path d="M69.11078,303.69172c0,7.28055 -14.32155,13.18261 -31.98809,13.18261c-17.66654,0 -31.98809,-5.90206 -31.98809,-13.18261c0,-7.28055 14.32155,-13.18261 31.98809,-13.18261c17.66654,0 31.98809,5.90206 31.98809,13.18261z" fill="#ceffcc" stroke="none" stroke-width="0"/><path d="M477.94962,301.60087c0,9.42443 -18.53877,17.06445 -41.40751,17.06445c-22.86874,0 -41.40751,-7.64002 -41.40751,-17.06445c0,-9.42443 18.53877,-17.06444 41.40751,-17.06444c22.86874,0 41.40751,7.64002 41.40751,17.06444z" fill="#fff9cc" stroke="none" stroke-width="0"/><path d="M313.03695,170.68189l-19.5,-132.5c0,0 50.39826,-15.5 70.5,-15.5c21.76577,0 70,16.5 70,16.5l-21,131.5c0,0 -17.23337,-12.31724 -52,-13c-27.89983,-0.5479 -48,13 -48,13z" fill="url(#color-1)" stroke="none" stroke-width="0"/><path d="M69.53696,171.68189l-17.5,-131c0,0 48.39826,-17 68.5,-17c21.76577,0 70.5,15.5 70.5,15.5l-21.5,132.5c0,0 -17.23337,-12.31724 -52,-13c-27.89983,-0.5479 -48,13 -48,13z" fill="url(#color-2)" stroke="none" stroke-width="0"/><path d="M414.00002,172.00007c0,9.1127 -22.60962,16.5 -50.5,16.5c-27.89038,0 -50.5,-7.3873 -50.5,-16.5c0,-9.1127 22.60962,-16.5 50.5,-16.5c27.89038,0 50.5,7.3873 50.5,16.5z" fill="#cdf9ff" stroke="none" stroke-width="0"/><path d="M170.00002,173.00006c0,9.1127 -22.60962,16.5 -50.5,16.5c-27.89038,0 -50.5,-7.3873 -50.5,-16.5c0,-9.1127 22.60962,-16.5 50.5,-16.5c27.89038,0 50.5,7.3873 50.5,16.5z" fill="#cdf9ff" stroke="none" stroke-width="0"/><g stroke="none" stroke-width="0"><path d="M418.86477,68.49778v-33.90683l29.46274,16.95342z" fill="url(#color-3)"/><path d="M276.76849,52.22089l29.46273,-16.95341v33.90683z" data-paper-data="{&quot;index&quot;:null}" fill="url(#color-4)"/></g><g stroke-width="1"><path d="M289.57086,59.76824v-12.1438h13.9438v12.1438z" fill="#cecece" stroke="#9a9a9a"/><path d="M291.22526,55.12804v-10.576h10.576v10.576z" fill="#d8d8d8" stroke="#9a9a9a"/><text transform="translate(292.65639,53.8836) scale(0.31081,0.31081)" font-size="40" xml:space="preserve" fill="#000000" fill-rule="nonzero" stroke="#000000" stroke-width="1" stroke-linecap="butt" stroke-linejoin="miter" stroke-miterlimit="10" stroke-dasharray="" stroke-dashoffset="0" font-family="Serif" font-weight="normal" text-anchor="start" style="mix-blend-mode: normal"><tspan x="0" dy="0">&lt;</tspan></text><path d="M289.57086,59.76824c-0.0854,-0.1547 0.0591,-12.3802 0.0591,-12.3802c0,0 1.5542,-2.9668 1.5362,-2.8951c-0.017,0.0674 0.1181,10.6351 0.1181,10.6351c0,0 -1.6083,4.8305 -1.7134,4.6402z" fill="#c0c0c0" stroke="#9a9a9a"/><path d="M301.89236,55.18714c0,0 0.1352,-10.5677 0.1182,-10.6351c-0.0181,-0.0717 1.5362,2.8951 1.5362,2.8951c0,0 0.1445,12.2255 0.0591,12.3802c-0.1052,0.1903 -1.7135,-4.6402 -1.7135,-4.6402z" data-paper-data="{&quot;index&quot;:null}" fill="#c0c0c0" stroke="#9a9a9a"/></g><g stroke-width="1"><path d="M421.90416,59.43485v-12.1438h13.9438v12.1438z" fill="#cecece" stroke="#9a9a9a"/><path d="M423.55856,54.79474v-10.576h10.576v10.576z" fill="#d8d8d8" stroke="#9a9a9a"/><text transform="translate(425.32306,53.55027) scale(0.31081,0.31081)" font-size="40" xml:space="preserve" fill="#000000" fill-rule="nonzero" stroke="#000000" stroke-width="1" stroke-linecap="butt" stroke-linejoin="miter" stroke-miterlimit="10" stroke-dasharray="" stroke-dashoffset="0" font-family="Serif" font-weight="normal" text-anchor="start" style="mix-blend-mode: normal"><tspan x="0" dy="0">&gt;</tspan></text><path d="M421.90416,59.43485c-0.0854,-0.1546 0.0591,-12.3801 0.0591,-12.3801c0,0 1.5543,-2.9668 1.5362,-2.8951c-0.017,0.0674 0.1182,10.6351 0.1182,10.6351c0,0 -1.6084,4.8304 -1.7135,4.6401z" fill="#c0c0c0" stroke="#9a9a9a"/><path d="M434.22576,54.85384c0,0 0.1351,-10.5677 0.1181,-10.6351c-0.018,-0.0717 1.5362,2.8951 1.5362,2.8951c0,0 0.1445,12.2255 0.0591,12.3801c-0.1051,0.1903 -1.7135,-4.6401 -1.7135,-4.6401z" data-paper-data="{&quot;index&quot;:null}" fill="#c0c0c0" stroke="#9a9a9a"/></g><text transform="translate(81.00002,18.91673) scale(0.43242,0.43242)" font-size="40" xml:space="preserve" data-paper-data="{&quot;origPos&quot;:null}" fill="#000000" fill-rule="nonzero" stroke="#001c7e" stroke-width="0" stroke-linecap="butt" stroke-linejoin="miter" stroke-miterlimit="10" stroke-dasharray="" stroke-dashoffset="0" font-family="Serif" font-weight="normal" text-anchor="start" style="mix-blend-mode: normal"><tspan x="0" dy="0">PLAYER 1</tspan></text><text transform="translate(326.00002,18.54173) scale(0.43589,0.43589)" font-size="40" xml:space="preserve" data-paper-data="{&quot;origPos&quot;:null}" fill="#000000" fill-rule="nonzero" stroke-opacity="0" stroke="#000000" stroke-width="0" stroke-linecap="butt" stroke-linejoin="miter" stroke-miterlimit="10" stroke-dasharray="" stroke-dashoffset="0" font-family="Serif" font-weight="normal" text-anchor="start" style="mix-blend-mode: normal"><tspan x="0" dy="0">PLAYER 2</tspan></text><g stroke="none" stroke-width="0"><path d="M176.61477,68.74778v-33.90683l29.46274,16.95341z" fill="url(#color-5)"/><path d="M34.51849,52.47088l29.46273,-16.95341v33.90683z" data-paper-data="{&quot;index&quot;:null}" fill="url(#color-6)"/></g><g stroke-width="1"><path d="M47.90416,59.60154v-12.1438h13.9438v12.1438z" fill="#cecece" stroke="#9a9a9a"/><path d="M49.55856,55.12804v-10.576h10.576v10.576z" fill="#d8d8d8" stroke="#9a9a9a"/><text transform="translate(50.32306,53.8836) scale(0.31081,0.31081)" font-size="40" xml:space="preserve" fill="#000000" fill-rule="nonzero" stroke="#000000" stroke-width="1" stroke-linecap="butt" stroke-linejoin="miter" stroke-miterlimit="10" stroke-dasharray="" stroke-dashoffset="0" font-family="Serif" font-weight="normal" text-anchor="start" style="mix-blend-mode: normal"><tspan x="0" dy="0">A</tspan></text><path d="M47.90416,59.60154c-0.0854,-0.1547 0.0591,-12.3802 0.0591,-12.3802c0,0 1.5542,-2.9667 1.5362,-2.8951c-0.017,0.0674 0.1182,10.6351 0.1182,10.6351c0,0 -1.6084,4.8305 -1.7135,4.6402z" fill="#c0c0c0" stroke="#9a9a9a"/><path d="M60.22576,55.02044c0,0 0.1351,-10.5677 0.1181,-10.6351c-0.018,-0.0717 1.5362,2.8951 1.5362,2.8951c0,0 0.1445,12.2255 0.0591,12.3802c-0.1051,0.1903 -1.7134,-4.6402 -1.7134,-4.6402z" data-paper-data="{&quot;index&quot;:null}" fill="#c0c0c0" stroke="#9a9a9a"/></g><g stroke-width="1"><path d="M179.57086,58.76824v-12.1438h13.9438v12.1438z" fill="#cecece" stroke="#9a9a9a"/><path d="M181.22526,54.12804v-10.576h10.576v10.576z" fill="#d8d8d8" stroke="#9a9a9a"/><text transform="translate(181.98973,52.8836) scale(0.31081,0.31081)" font-size="40" xml:space="preserve" fill="#000000" fill-rule="nonzero" stroke="#000000" stroke-width="1" stroke-linecap="butt" stroke-linejoin="miter" stroke-miterlimit="10" stroke-dasharray="" stroke-dashoffset="0" font-family="Serif" font-weight="normal" text-anchor="start" style="mix-blend-mode: normal"><tspan x="0" dy="0">D</tspan></text><path d="M179.57086,58.76824c-0.0854,-0.1547 0.0591,-12.3802 0.0591,-12.3802c0,0 1.5542,-2.9668 1.5362,-2.8951c-0.017,0.0674 0.1181,10.6351 0.1181,10.6351c0,0 -1.6083,4.8305 -1.7134,4.6402z" fill="#c0c0c0" stroke="#9a9a9a"/><path d="M191.89236,54.18714c0,0 0.1352,-10.5677 0.1182,-10.6351c-0.018,-0.0717 1.5362,2.8951 1.5362,2.8951c0,0 0.1445,12.2255 0.0591,12.3802c-0.1051,0.1903 -1.7135,-4.6402 -1.7135,-4.6402z" data-paper-data="{&quot;index&quot;:null}" fill="#c0c0c0" stroke="#9a9a9a"/></g></g></g></svg>