<svg xmlns="http://www.w3.org/2000/svg" xmlns:xlink="http://www.w3.org/1999/xlink" version="1.1" width="53.1" height="157.40634" viewBox="0,0,53.1,157.40634"><g><g data-paper-data="{&quot;isPaintingLayer&quot;:true}" fill-rule="nonzero" stroke-linejoin="miter" stroke-miterlimit="10" stroke-dasharray="" stroke-dashoffset="0" style="mix-blend-mode: normal"><g><path d="M 24.3278 57.7643 L 8.6294 87.3357 " fill="none" stroke="#000000" stroke-width="3.5" stroke-linecap="round"/><path d="M 26.5183 57.7643 L 42.2167 87.3357 " data-paper-data="{&quot;index&quot;:null}" fill="none" stroke="#000000" stroke-width="3.5" stroke-linecap="round"/><path d="M 25.631 49.4405 L 25.631 116.7375 " fill="none" stroke="#ff3636" stroke-width="4.5" stroke-linecap="round"/><path d="M 25.3453 116.7375 L 13.2976 155.6563 " fill="none" stroke="#000000" stroke-width="3.5" stroke-linecap="round"/><path d="M 37.9103 155.4595 L 25.8627 115.3008 " fill="none" stroke="#000000" stroke-width="3.5" stroke-linecap="round"/><path d="M 1.25 26.55 C 1.25 12.5772 12.5772 1.25 26.55 1.25 C 40.5228 1.25 51.85 12.5772 51.85 26.55 C 51.85 40.5228 40.5228 51.85 26.55 51.85 C 12.5772 51.85 1.25 40.5228 1.25 26.55 Z " fill="#ff3636" stroke="#000000" stroke-width="2.5" stroke-linecap="butt"/><path d="M 22.6214 20.4947 L 26.9072 22.7804 L 28.05 29.3518 L 25.1929 34.9232 L 20.1929 36.4947 L 16.9071 34.0661 L 15.3357 27.7804 L 17.1929 22.9232 Z " fill="none" stroke="#000000" stroke-width="0.5" stroke-linecap="round"/><path d="M 29.3357 20.209 L 32.05 30.3518 L 27.05 39.0661 L 19.1929 40.9232 L 13.7643 36.0661 L 11.6214 26.9232 L 16.05 19.0661 L 23.1929 17.2089 Z " fill="none" stroke="#000000" stroke-width="0.5" stroke-linecap="round"/><path d="M 23.7643 13.0661 L 32.3357 16.3518 L 36.6214 31.0661 L 30.05 43.2089 L 18.7643 44.4947 L 11.6214 39.3518 L 7.4786 26.7804 L 12.9071 15.9232 Z " fill="none" stroke="#000000" stroke-width="0.5" stroke-linecap="round"/><path d="M 17.6214 48.4947 L 8.6214 42.4947 L 41.05 7.2089 " fill="none" stroke="#000000" stroke-width="0.5" stroke-linecap="round"/><path d="M 8.7643 42.2089 L 2.7643 25.4947 L 49.3357 32.7804 " fill="none" stroke="#000000" stroke-width="0.5" stroke-linecap="round"/><path d="M 2.6214 25.4947 L 9.4786 9.2089 L 33.1928 49.3518 " fill="none" stroke="#000000" stroke-width="0.5" stroke-linecap="round"/><path d="M 9.4786 9.0661 L 25.05 8.4947 L 36.3357 12.4947 L 42.3357 31.4947 L 32.7643 47.4947 L 17.7643 48.4947 L 25.7643 2.4947 " fill="none" stroke="#000000" stroke-width="0.5" stroke-linecap="round"/><path d="M 16.3357 4.9232 L 25.7643 3.7804 L 39.9071 8.4947 L 48.3357 32.7804 L 39.1928 46.6375 " fill="none" stroke="#000000" stroke-width="0.5" stroke-linecap="round"/><g stroke-linecap="butt"><path d="M 19.8496 18.999 C 19.8496 17.1677 19.6417 13.6294 20.3963 13.2935 C 21.3725 12.8591 31.1246 18.3079 31.1246 18.999 C 31.1246 21.98 28.7081 24.3965 25.7271 24.3965 C 22.7462 24.3965 19.8496 21.98 19.8496 18.999 Z " data-paper-data="{&quot;origPos&quot;:null}" stroke-width="1" fill="#ffffff" stroke="#000000"/><path d="M 35.6225 18.999 C 35.6225 18.1553 43.9258 12.6356 44.9076 13.6548 C 45.8425 14.6253 46.4174 17.5451 46.4174 18.999 C 46.4174 21.9799 44.0009 24.3965 41.0199 24.3965 C 38.039 24.3965 35.6225 21.9799 35.6225 18.999 Z " data-paper-data="{&quot;origPos&quot;:null}" stroke-width="1" fill="#ffffff" stroke="#000000"/></g></g></g></g></svg>