<svg xmlns="http://www.w3.org/2000/svg" xmlns:xlink="http://www.w3.org/1999/xlink" version="1.1" width="96.19691" height="65.06549" viewBox="0,0,96.19691,65.06549"><g><g data-paper-data="{&quot;isPaintingLayer&quot;:true}" fill-rule="nonzero" stroke-linecap="butt" stroke-linejoin="miter" stroke-miterlimit="10" stroke-dasharray="" stroke-dashoffset="0" style="mix-blend-mode: normal"><path d="M199.98469,212.80073v-41.45479h58.86877v41.45479z" data-paper-data="{&quot;origPos&quot;:null}" fill="#fff27e" stroke="none" stroke-width="0" transform="matrix(1,0,0,1,-192.36881,-147.90887)"/><path d="M192.36882,212.80073v-46.79055h9.05675v46.79055z" data-paper-data="{&quot;origPos&quot;:null}" fill="#e5d62f" stroke="none" stroke-width="0" transform="matrix(1,0,0,1,-192.36881,-147.90887)"/><path d="M258.23591,212.80073v-46.79055l7.98807,0.10186l4.2444,-1.94887l0.11762,46.48273l-3.34086,2.32847z" data-paper-data="{&quot;origPos&quot;:null}" fill="#e5d62f" stroke="none" stroke-width="0" transform="matrix(1,0,0,1,-192.36881,-147.90887)"/><path d="M196.07385,175.03992v-9.02976h67.92551v9.02976z" data-paper-data="{&quot;origPos&quot;:null}" fill="#e5d62f" stroke="none" stroke-width="0" transform="matrix(1,0,0,1,-192.36881,-147.90887)"/><path d="M269.96853,211.13844v-46.70821l14.16143,-8.22967l-0.09263,44.37524z" data-paper-data="{&quot;origPos&quot;:null}" fill="#fff27e" stroke="none" stroke-width="0" transform="matrix(1,0,0,1,-192.36881,-147.90887)"/><path d="M283.98591,200.63108l-0.15438,-44.12267l4.7342,-2.8731v43.3531z" data-paper-data="{&quot;origPos&quot;:null}" fill="#e5d62f" stroke="none" stroke-width="0" transform="matrix(1,0,0,1,-192.36881,-147.90887)"/><path d="M269.55683,174.0138v-9.4402l15.02595,-8.41409v9.23498z" data-paper-data="{&quot;origPos&quot;:null}" fill="#e5d62f" stroke="none" stroke-width="0" transform="matrix(1,0,0,1,-192.36881,-147.90887)"/><path d="M 2.3717 20.5707 C 2.3717 20.5707 2.1681 15.7087 3.1058 12.3109 C 5.0197 5.3759 12.2847 0.4864 19.0967 2.8544 C 24.1785 4.6209 23.0627 8.8912 23.0627 8.8912 Z " data-paper-data="{&quot;origPos&quot;:null}" fill="#fff37d" stroke="#e5d62f" stroke-width="4.5"/><path d="M196.85628,166.19518c0,0 0.27011,-4.10702 0.82758,-5.94761c0.91778,-3.03017 2.56797,-5.64896 4.7412,-7.8892c2.32403,-2.39569 8.1957,-4.08785 8.1957,-4.08785l65.50901,0.21548c0,0 -5.15089,1.29121 -7.7957,3.64631c-2.46359,2.19375 -3.13344,3.50586 -3.95006,6.76293c-0.64408,2.56886 -0.88527,7.47583 -0.88527,7.47583z" data-paper-data="{&quot;origPos&quot;:null}" fill="#fff27e" stroke="none" stroke-width="0" transform="matrix(1,0,0,1,-192.36881,-147.90887)"/><path d="M 70.3082 19.955 C 70.3082 19.955 70.3103 15.2982 71.2481 11.9004 C 72.2039 8.4369 73.5997 6.3814 76.7096 4.5675 C 81.3779 1.8446 84.602 0.4634 89.709 2.2387 C 94.7908 4.0052 93.675 8.2756 93.675 8.2756 Z " data-paper-data="{&quot;origPos&quot;:null}" fill="#fff27e" stroke="#e5d62f" stroke-width="4.5"/><path d="M219.12733,186.82528v-27.81242h19.30731v27.81242z" data-paper-data="{&quot;origPos&quot;:null}" fill="#e7c000" stroke="none" stroke-width="0" transform="matrix(1,0,0,1,-192.36881,-147.90887)"/><path d="M221.05007,167.91221c0,-4.12848 3.3568,-7.47528 7.49762,-7.47528c4.14082,0 7.49762,3.3468 7.49762,7.47528c0,4.12848 -3.3568,7.47528 -7.49762,7.47528c-4.14082,0 -7.49762,-3.3468 -7.49762,-7.47528z" data-paper-data="{&quot;origPos&quot;:null}" fill="#675600" stroke="none" stroke-width="0" transform="matrix(1,0,0,1,-192.36881,-147.90887)"/><path d="M225.03252,184.52738v-13.30185h6.83839v13.30185z" data-paper-data="{&quot;origPos&quot;:null}" fill="#675600" stroke="none" stroke-width="0" transform="matrix(1,0,0,1,-192.36881,-147.90887)"/><path d="M265.97898,165.97594c-1.8757,0 -3.39628,-2.75643 -3.39628,-6.15665c0,-3.40021 8.93063,-8.4434 10.80633,-8.4434c1.83066,0 2.49442,0.09909 1.06044,1.23367c-1.37519,1.08806 -4.72891,3.08714 -5.55361,4.63235c-0.49828,0.93361 -0.62171,1.70909 -0.85695,2.74031c-0.27896,1.22286 -0.42796,1.74926 -0.42796,3.00335c0,3.40021 0.24373,2.99037 -1.63197,2.99037z" data-paper-data="{&quot;origPos&quot;:null}" fill="#e5d62f" stroke="none" stroke-width="0" transform="matrix(1,0,0,1,-192.36881,-147.90887)"/></g></g></svg>