<svg xmlns="http://www.w3.org/2000/svg" xmlns:xlink="http://www.w3.org/1999/xlink" version="1.1" width="515.5" height="26.97791" viewBox="0,0,515.5,26.97791"><g><g data-paper-data="{&quot;isPaintingLayer&quot;:true}" fill-rule="nonzero" stroke-linejoin="miter" stroke-miterlimit="10" stroke-dasharray="" stroke-dashoffset="0" style="mix-blend-mode: normal"><path d="M-10.77083,181.625v-3.25h501.54167v3.25z" fill="#ff3333" stroke="none" stroke-width="0" stroke-linecap="butt" transform="matrix(1,0,0,1,18.0625,-166.96729)"/><path d="M-11.3125,188v-16h507v16z" fill="#ff3333" stroke="none" stroke-width="0" stroke-linecap="butt" transform="matrix(1,0,0,1,18.0625,-166.96729)"/><path d="M 1.75 10.0327 L 32.75 14.0327 L 54.75 3.0327 L 104.75 21.0327 L 162.75 8.0327 L 177.75 18.0327 L 190.75 6.0327 L 238.75 25.0327 L 273.75 4.0327 L 301.75 13.0327 L 303.75 23.0327 L 324.75 4.0327 L 356.75 19.0327 L 362.75 7.0327 L 407.75 21.0327 L 435.75 10.0327 L 457.75 18.0327 L 503.75 2.0327 L 513.75 13.0327 " fill="none" stroke="#c90000" stroke-width="3.5" stroke-linecap="round"/></g></g></svg>