<svg xmlns="http://www.w3.org/2000/svg" xmlns:xlink="http://www.w3.org/1999/xlink" version="1.1" width="16.09312" height="8.15789" viewBox="0,0,16.09312,8.15789"><g><g data-paper-data="{&quot;isPaintingLayer&quot;:true}" fill-rule="nonzero" stroke-linecap="butt" stroke-linejoin="miter" stroke-miterlimit="10" stroke-dasharray="" stroke-dashoffset="0" style="mix-blend-mode: normal"><g><path d="M231.95379,184.06865v-8.07692l16.07692,4z" fill="#bcbcbc" stroke-width="0" stroke="none" transform="matrix(1,0,0,1,-231.9376,-175.95124)"/><path d="M231.99023,184.10914v-8.15789l4.21053,1.05263c0,0 -1.05334,0.32246 -1.23691,0.83903c-0.18357,0.51657 0.60874,1.02218 0.7932,1.57483c0.18446,0.55265 0.89888,0.27252 0.94615,0.95569c0.04727,0.68317 -1.07667,1.07993 -1.31272,1.7216c-0.23605,0.64167 0.28397,1.11937 0.28397,1.11937z" fill="#de5e5e" stroke-width="0" stroke="none" transform="matrix(1,0,0,1,-231.9376,-175.95124)"/><path d="M231.9376,184.10914v-8.10526l2.52632,0.57895c0,0 -0.41727,0.62519 -0.44744,0.9443c-0.03017,0.31911 0.39871,0.89283 0.21426,1.5222c-0.18445,0.62937 -1.1993,1.06434 -1.05385,1.90306c0.14544,0.83871 1.43591,0.35481 1.58202,1.14265c0.1461,0.78784 -1.08445,1.54043 -1.08445,1.54043z" fill="#de4040" stroke-width="0" stroke="none" transform="matrix(1,0,0,1,-231.9376,-175.95124)"/></g></g></g></svg>